<svg width="100" height="100" viewBox="0 0 100 100" fill="none" xmlns="http://www.w3.org/2000/svg">
<g clip-path="url(#clip0_1360_672)">
<path d="M28.4216 43.043C28.4216 44.2899 28.5531 45.3008 28.7834 46.0422C29.0466 46.7836 29.3755 47.5924 29.836 48.4686C30.0005 48.7382 30.0663 49.0078 30.0663 49.2437C30.0663 49.5807 29.8689 49.9177 29.4413 50.2547L27.3689 51.6701C27.0729 51.8723 26.7768 51.9734 26.5137 51.9734C26.1847 51.9734 25.8558 51.8049 25.5268 51.5016C25.0663 50.9961 24.6716 50.4569 24.3426 49.9177C24.0137 49.3448 23.6847 48.7045 23.3229 47.9294C20.7571 51.0298 17.5334 52.58 13.6518 52.58C10.8887 52.58 8.68472 51.7712 7.07288 50.1536C5.46104 48.536 4.63867 46.3792 4.63867 43.6833C4.63867 40.8188 5.62551 38.4935 7.63209 36.7411C9.63867 34.9888 12.3031 34.1126 15.6913 34.1126C16.8097 34.1126 17.961 34.2137 19.1781 34.3822C20.3952 34.5507 21.6453 34.8203 22.961 35.1236V32.6635C22.961 30.1023 22.4347 28.3162 21.415 27.2715C20.3624 26.2269 18.586 25.7214 16.0531 25.7214C14.9018 25.7214 13.7176 25.8562 12.5005 26.1595C11.2834 26.4627 10.0992 26.8334 8.94788 27.3052C8.42157 27.5411 8.02683 27.6759 7.79657 27.7433C7.5663 27.8107 7.40183 27.8444 7.27025 27.8444C6.80972 27.8444 6.57946 27.5074 6.57946 26.7997V25.1485C6.57946 24.6093 6.64525 24.2049 6.80972 23.969C6.9742 23.7331 7.27025 23.4972 7.73078 23.2613C8.88209 22.6547 10.2637 22.1492 11.8755 21.7448C13.4874 21.3067 15.1979 21.1045 17.0071 21.1045C20.9216 21.1045 23.7834 22.0144 25.6255 23.8342C27.4347 25.654 28.3558 28.4173 28.3558 32.1243V43.043H28.4216ZM15.0663 48.1653C16.1518 48.1653 17.2702 47.9631 18.4545 47.5587C19.6387 47.1543 20.6913 46.4129 21.5795 45.4019C22.1058 44.7617 22.5005 44.054 22.6979 43.2452C22.8952 42.4364 23.0268 41.4591 23.0268 40.3133V38.8979C22.0729 38.662 21.0531 38.4598 20.0005 38.325C18.9479 38.1902 17.9281 38.1228 16.9084 38.1228C14.7045 38.1228 13.0926 38.5609 12.0071 39.4708C10.9216 40.3807 10.3953 41.6613 10.3953 43.3463C10.3953 44.9301 10.79 46.1096 11.6124 46.9184C12.4018 47.7609 13.5531 48.1653 15.0663 48.1653ZM41.4808 51.8049C40.8887 51.8049 40.4939 51.7038 40.2308 51.4679C39.9676 51.2657 39.7374 50.7939 39.54 50.1536L31.8097 24.1038C31.6124 23.4298 31.5137 22.9917 31.5137 22.7558C31.5137 22.2166 31.7768 21.9133 32.3031 21.9133H35.5268C36.1518 21.9133 36.5795 22.0144 36.8097 22.2503C37.0729 22.4525 37.2702 22.9243 37.4676 23.5646L42.9939 45.8737L48.1255 23.5646C48.29 22.8906 48.4873 22.4525 48.7505 22.2503C49.0137 22.0481 49.4742 21.9133 50.0663 21.9133H52.6979C53.3229 21.9133 53.7505 22.0144 54.0137 22.2503C54.2768 22.4525 54.5071 22.9243 54.6387 23.5646L59.836 46.1433L65.5268 23.5646C65.7242 22.8906 65.9545 22.4525 66.1847 22.2503C66.4479 22.0481 66.8755 21.9133 67.4676 21.9133H70.5268C71.0531 21.9133 71.3492 22.1829 71.3492 22.7558C71.3492 22.9243 71.3163 23.0928 71.2834 23.295C71.2505 23.4972 71.1847 23.7668 71.0531 24.1375L63.1255 50.1873C62.9281 50.8613 62.6979 51.2994 62.4347 51.5016C62.1716 51.7038 61.7439 51.8386 61.1847 51.8386H58.3558C57.7308 51.8386 57.3031 51.7375 57.04 51.5016C56.7768 51.2657 56.5466 50.8276 56.415 50.1536L51.3163 28.4173L46.2505 50.1199C46.086 50.7939 45.8887 51.232 45.6255 51.4679C45.3624 51.7038 44.9018 51.8049 44.3097 51.8049H41.4808ZM83.7505 52.7148C82.04 52.7148 80.3295 52.5126 78.6847 52.1082C77.04 51.7038 75.7571 51.2657 74.9018 50.7602C74.3755 50.4569 74.0137 50.1199 73.8821 49.8166C73.7505 49.5133 73.6847 49.1763 73.6847 48.873V47.1543C73.6847 46.4466 73.9479 46.1096 74.4413 46.1096C74.6387 46.1096 74.836 46.1433 75.0334 46.2107C75.2308 46.2781 75.5268 46.4129 75.8558 46.5477C76.9742 47.0532 78.1913 47.4576 79.4742 47.7272C80.79 47.9968 82.0729 48.1316 83.3887 48.1316C85.461 48.1316 87.0729 47.7609 88.1913 47.0195C89.3097 46.2781 89.9018 45.1997 89.9018 43.8181C89.9018 42.8745 89.6058 42.0994 89.0137 41.4591C88.4216 40.8188 87.3031 40.2459 85.6913 39.7067L80.9216 38.1902C78.5202 37.4151 76.7439 36.2693 75.6584 34.7529C74.5729 33.2701 74.0137 31.6188 74.0137 29.8664C74.0137 28.451 74.3097 27.2041 74.9018 26.1258C75.4939 25.0474 76.2834 24.1038 77.2702 23.3624C78.2571 22.5873 79.3755 22.0144 80.6913 21.61C82.0071 21.2056 83.3887 21.0371 84.836 21.0371C85.5597 21.0371 86.3163 21.0708 87.04 21.1719C87.7966 21.273 88.4873 21.4078 89.1781 21.5426C89.836 21.7111 90.461 21.8796 91.0531 22.0818C91.6452 22.284 92.1058 22.4862 92.4347 22.6884C92.8952 22.958 93.2242 23.2276 93.4216 23.5309C93.6189 23.8005 93.7176 24.1712 93.7176 24.643V26.2269C93.7176 26.9345 93.4545 27.3052 92.961 27.3052C92.6979 27.3052 92.2702 27.1704 91.711 26.9008C89.836 26.0247 87.7308 25.5866 85.3952 25.5866C83.5202 25.5866 82.04 25.8899 81.0202 26.5301C80.0005 27.1704 79.4742 28.1477 79.4742 29.5294C79.4742 30.473 79.8031 31.2818 80.461 31.9221C81.1189 32.5624 82.336 33.2027 84.0795 33.7756L88.7505 35.2921C91.1189 36.0671 92.8294 37.1455 93.8492 38.5272C94.8689 39.9089 95.3623 41.4928 95.3623 43.2452C95.3623 44.6943 95.0663 46.0085 94.5071 47.1543C93.915 48.3001 93.1255 49.3111 92.1058 50.1199C91.086 50.9624 89.8689 51.569 88.4544 52.0071C86.9742 52.4789 85.4281 52.7148 83.7505 52.7148Z" fill="#00ADB5"/>
<path fill-rule="evenodd" clip-rule="evenodd" d="M89.9673 69.093C79.1449 77.282 63.4212 81.6293 49.9015 81.6293C30.9541 81.6293 13.8817 74.4513 0.986992 62.5216C-0.0327452 61.578 0.888307 60.2974 2.10541 61.0388C16.0528 69.3289 33.2567 74.3502 51.0528 74.3502C63.0594 74.3502 76.2502 71.789 88.3883 66.5318C90.1975 65.6894 91.7436 67.745 89.9673 69.093Z" fill="#00ADB5"/>
<path fill-rule="evenodd" clip-rule="evenodd" d="M94.4731 63.8359C93.0915 62.0161 85.3283 62.9597 81.8086 63.3978C80.7559 63.5326 80.5915 62.589 81.5454 61.8813C87.7296 57.4329 97.8941 58.7135 99.0783 60.1963C100.263 61.7128 98.7494 72.126 92.9599 77.1135C92.0717 77.8886 91.2165 77.4842 91.6112 76.4732C92.927 73.137 95.8546 65.622 94.4731 63.8359Z" fill="#00ADB5"/>
</g>
<path d="M28.4216 40.3765C28.4216 41.6234 28.5531 42.6343 28.7834 43.3757C29.0466 44.1171 29.3755 44.9259 29.836 45.8021C30.0005 46.0717 30.0663 46.3413 30.0663 46.5772C30.0663 46.9142 29.8689 47.2512 29.4413 47.5882L27.3689 49.0036C27.0729 49.2058 26.7768 49.3069 26.5137 49.3069C26.1847 49.3069 25.8558 49.1384 25.5268 48.8351C25.0663 48.3296 24.6716 47.7904 24.3426 47.2512C24.0137 46.6783 23.6847 46.038 23.3229 45.2629C20.7571 48.3633 17.5334 49.9135 13.6518 49.9135C10.8887 49.9135 8.68472 49.1047 7.07288 47.4871C5.46104 45.8695 4.63867 43.7127 4.63867 41.0168C4.63867 38.1523 5.62551 35.827 7.63209 34.0746C9.63867 32.3223 12.3031 31.4461 15.6913 31.4461C16.8097 31.4461 17.961 31.5472 19.1781 31.7157C20.3952 31.8842 21.6453 32.1538 22.961 32.4571V29.997C22.961 27.4358 22.4347 25.6497 21.415 24.605C20.3624 23.5603 18.586 23.0549 16.0531 23.0549C14.9018 23.0549 13.7176 23.1897 12.5005 23.4929C11.2834 23.7962 10.0992 24.1669 8.94788 24.6387C8.42157 24.8746 8.02683 25.0094 7.79657 25.0768C7.5663 25.1442 7.40183 25.1779 7.27025 25.1779C6.80972 25.1779 6.57946 24.8409 6.57946 24.1332V22.482C6.57946 21.9428 6.64525 21.5384 6.80972 21.3025C6.9742 21.0666 7.27025 20.8307 7.73078 20.5948C8.88209 19.9882 10.2637 19.4827 11.8755 19.0783C13.4874 18.6402 15.1979 18.438 17.0071 18.438C20.9216 18.438 23.7834 19.3479 25.6255 21.1677C27.4347 22.9875 28.3558 25.7508 28.3558 29.4578V40.3765H28.4216ZM15.0663 45.4988C16.1518 45.4988 17.2702 45.2966 18.4545 44.8922C19.6387 44.4878 20.6913 43.7464 21.5795 42.7354C22.1058 42.0951 22.5005 41.3875 22.6979 40.5787C22.8952 39.7699 23.0268 38.7926 23.0268 37.6468V36.2314C22.0729 35.9955 21.0531 35.7933 20.0005 35.6585C18.9479 35.5237 17.9281 35.4563 16.9084 35.4563C14.7045 35.4563 13.0926 35.8944 12.0071 36.8043C10.9216 37.7142 10.3953 38.9948 10.3953 40.6798C10.3953 42.2636 10.79 43.4431 11.6124 44.2519C12.4018 45.0944 13.5531 45.4988 15.0663 45.4988ZM41.4808 49.1384C40.8887 49.1384 40.4939 49.0373 40.2308 48.8014C39.9676 48.5992 39.7374 48.1274 39.54 47.4871L31.8097 21.4373C31.6124 20.7633 31.5137 20.3252 31.5137 20.0893C31.5137 19.5501 31.7768 19.2468 32.3031 19.2468H35.5268C36.1518 19.2468 36.5795 19.3479 36.8097 19.5838C37.0729 19.786 37.2702 20.2578 37.4676 20.8981L42.9939 43.2072L48.1255 20.8981C48.29 20.2241 48.4873 19.786 48.7505 19.5838C49.0137 19.3816 49.4742 19.2468 50.0663 19.2468H52.6979C53.3229 19.2468 53.7505 19.3479 54.0137 19.5838C54.2768 19.786 54.5071 20.2578 54.6387 20.8981L59.836 43.4768L65.5268 20.8981C65.7242 20.2241 65.9545 19.786 66.1847 19.5838C66.4479 19.3816 66.8755 19.2468 67.4676 19.2468H70.5268C71.0531 19.2468 71.3492 19.5164 71.3492 20.0893C71.3492 20.2578 71.3163 20.4263 71.2834 20.6285C71.2505 20.8307 71.1847 21.1003 71.0531 21.471L63.1255 47.5208C62.9281 48.1948 62.6979 48.6329 62.4347 48.8351C62.1716 49.0373 61.7439 49.1721 61.1847 49.1721H58.3558C57.7308 49.1721 57.3031 49.071 57.04 48.8351C56.7768 48.5992 56.5466 48.1611 56.415 47.4871L51.3163 25.7508L46.2505 47.4534C46.086 48.1274 45.8887 48.5655 45.6255 48.8014C45.3624 49.0373 44.9018 49.1384 44.3097 49.1384H41.4808ZM83.7505 50.0483C82.04 50.0483 80.3295 49.8461 78.6847 49.4417C77.04 49.0373 75.7571 48.5992 74.9018 48.0937C74.3755 47.7904 74.0137 47.4534 73.8821 47.1501C73.7505 46.8468 73.6847 46.5098 73.6847 46.2065V44.4878C73.6847 43.7801 73.9479 43.4431 74.4413 43.4431C74.6387 43.4431 74.836 43.4768 75.0334 43.5442C75.2308 43.6116 75.5268 43.7464 75.8558 43.8812C76.9742 44.3867 78.1913 44.7911 79.4742 45.0607C80.79 45.3303 82.0729 45.4651 83.3887 45.4651C85.461 45.4651 87.0729 45.0944 88.1913 44.353C89.3097 43.6116 89.9018 42.5332 89.9018 41.1516C89.9018 40.208 89.6058 39.4329 89.0137 38.7926C88.4216 38.1523 87.3031 37.5794 85.6913 37.0402L80.9216 35.5237C78.5202 34.7486 76.7439 33.6028 75.6584 32.0864C74.5729 30.6036 74.0137 28.9523 74.0137 27.1999C74.0137 25.7845 74.3097 24.5376 74.9018 23.4592C75.4939 22.3809 76.2834 21.4373 77.2702 20.6959C78.2571 19.9208 79.3755 19.3479 80.6913 18.9435C82.0071 18.5391 83.3887 18.3706 84.836 18.3706C85.5597 18.3706 86.3163 18.4043 87.04 18.5054C87.7966 18.6065 88.4873 18.7413 89.1781 18.8761C89.836 19.0446 90.461 19.2131 91.0531 19.4153C91.6452 19.6175 92.1058 19.8197 92.4347 20.0219C92.8952 20.2915 93.2242 20.5611 93.4216 20.8644C93.6189 21.134 93.7176 21.5047 93.7176 21.9765V23.5603C93.7176 24.268 93.4545 24.6387 92.961 24.6387C92.6979 24.6387 92.2702 24.5039 91.711 24.2343C89.836 23.3582 87.7308 22.9201 85.3952 22.9201C83.5202 22.9201 82.04 23.2234 81.0202 23.8636C80.0005 24.5039 79.4742 25.4812 79.4742 26.8629C79.4742 27.8065 79.8031 28.6153 80.461 29.2556C81.1189 29.8959 82.336 30.5362 84.0795 31.1091L88.7505 32.6256C91.1189 33.4006 92.8294 34.479 93.8492 35.8607C94.8689 37.2424 95.3623 38.8263 95.3623 40.5787C95.3623 42.0277 95.0663 43.342 94.5071 44.4878C93.915 45.6336 93.1255 46.6446 92.1058 47.4534C91.086 48.2959 89.8689 48.9025 88.4544 49.3406C86.9742 49.8124 85.4281 50.0483 83.7505 50.0483Z" fill="#EEEEEE"/>
<path fill-rule="evenodd" clip-rule="evenodd" d="M89.9673 66.4265C79.1449 74.6155 63.4212 78.9628 49.9015 78.9628C30.9541 78.9628 13.8817 71.7848 0.986992 59.8551C-0.0327452 58.9115 0.888307 57.6309 2.10541 58.3723C16.0528 66.6624 33.2567 71.6837 51.0528 71.6837C63.0594 71.6837 76.2502 69.1225 88.3883 63.8653C90.1975 63.0229 91.7436 65.0785 89.9673 66.4265Z" fill="#EEEEEE"/>
<path fill-rule="evenodd" clip-rule="evenodd" d="M94.4731 61.1694C93.0915 59.3496 85.3283 60.2932 81.8086 60.7313C80.7559 60.8661 80.5915 59.9225 81.5454 59.2148C87.7296 54.7664 97.8941 56.047 99.0783 57.5298C100.263 59.0463 98.7494 69.4595 92.9599 74.447C92.0717 75.2221 91.2165 74.8177 91.6112 73.8067C92.927 70.4705 95.8546 62.9554 94.4731 61.1694Z" fill="#EEEEEE"/>
<defs>
<clipPath id="clip0_1360_672">
<rect width="100" height="61.3333" fill="white" transform="translate(0 20.6665)"/>
</clipPath>
</defs>
</svg>
