<svg width="100" height="100" viewBox="0 0 100 100" fill="none" xmlns="http://www.w3.org/2000/svg">
<g clip-path="url(#clip0_1360_732)">
<g clip-path="url(#clip1_1360_732)">
<path d="M96.0695 75.7248C96.8171 74.552 97.2817 73.2306 97.2817 72.044V30.8548C97.2817 29.6682 96.8177 28.3471 96.0698 27.1743L49.6406 51.4495L96.0695 75.7248Z" fill="#00ADB5"/>
<path d="M53.7675 99.1102L93.1571 78.5157C94.2917 77.9224 95.323 76.898 96.0706 75.7249L49.6418 51.4497L3.21289 75.7252C3.96051 76.898 4.99211 77.9227 6.12647 78.5157L45.516 99.1102C47.785 100.297 51.4985 100.297 53.7675 99.1102Z" fill="#00ADB5"/>
<path d="M96.0703 27.1741C95.3223 26.0011 94.2907 24.9766 93.1564 24.3833L53.7669 3.78887C51.4978 2.60228 47.7843 2.60228 45.5153 3.78887L6.12578 24.3833C3.85644 25.5697 2 28.482 2 30.8549V72.0441C2 73.2307 2.46427 74.5521 3.2122 75.7249L49.6411 51.4497L96.0703 27.1741Z" fill="#00ADB5"/>
<path d="M49.6416 80.2119C32.1287 80.2119 17.8809 67.3091 17.8809 51.4495C17.8809 35.5898 32.1287 22.687 49.6416 22.687C60.9422 22.687 71.4814 28.1942 77.146 37.0592L63.4008 44.2622C60.5657 39.8249 55.2931 37.0682 49.6416 37.0682C40.885 37.0682 33.7612 43.5195 33.7612 51.4495C33.7612 59.3792 40.885 65.8307 49.6416 65.8307C55.2937 65.8307 60.5663 63.074 63.4017 58.6358L77.147 65.8386C71.4824 74.7045 60.9428 80.2119 49.6416 80.2119Z" fill="#EEEEEE"/>
<path d="M81.4014 49.8515H77.8722V46.6558H74.3436V49.8515H70.8145V53.0472H74.3436V56.2432H77.8722V53.0472H81.4014V49.8515Z" fill="#EEEEEE"/>
<path d="M94.6357 49.8515H91.1066V46.6558H87.578V49.8515H84.0488V53.0472H87.578V56.2432H91.1066V53.0472H94.6357V49.8515Z" fill="#EEEEEE"/>
</g>
<g clip-path="url(#clip2_1360_732)">
<path d="M96.0695 72.8258C96.8171 71.6531 97.2817 70.3317 97.2817 69.1451V27.9559C97.2817 26.7693 96.8177 25.4482 96.0698 24.2754L49.6406 48.5506L96.0695 72.8258Z" fill="#EEEEEE"/>
<path d="M53.7675 96.2113L93.1571 75.6168C94.2917 75.0235 95.323 73.9991 96.0706 72.826L49.6418 48.5508L3.21289 72.8263C3.96051 73.9991 4.99211 75.0238 6.12647 75.6168L45.516 96.2113C47.785 97.3979 51.4985 97.3979 53.7675 96.2113Z" fill="#EEEEEE"/>
<path d="M96.0703 24.2752C95.3223 23.1022 94.2907 22.0777 93.1564 21.4844L53.7669 0.889944C51.4978 -0.296648 47.7843 -0.296648 45.5153 0.889944L6.12578 21.4844C3.85644 22.6707 2 25.5831 2 27.956V69.1452C2 70.3318 2.46427 71.6532 3.2122 72.8259L49.6411 48.5507L96.0703 24.2752Z" fill="#EEEEEE"/>
<path d="M49.6416 74.9165C32.1287 74.9165 17.8809 62.0137 17.8809 46.154C17.8809 30.2944 32.1287 17.3916 49.6416 17.3916C60.9422 17.3916 71.4814 22.8988 77.146 31.7638L63.4008 38.9668C60.5657 34.5295 55.2931 31.7728 49.6416 31.7728C40.885 31.7728 33.7612 38.2241 33.7612 46.154C33.7612 54.0837 40.885 60.5353 49.6416 60.5353C55.2937 60.5353 60.5663 57.7786 63.4017 53.3404L77.147 60.5432C71.4824 69.4091 60.9428 74.9165 49.6416 74.9165Z" fill="#00ADB5"/>
<path d="M49.6416 77.3135C32.1287 77.3135 17.8809 64.4107 17.8809 48.551C17.8809 32.6914 32.1287 19.7886 49.6416 19.7886C60.9422 19.7886 71.4814 25.2957 77.146 34.1608L63.4008 41.3638C60.5657 36.9265 55.2931 34.1698 49.6416 34.1698C40.885 34.1698 33.7612 40.621 33.7612 48.551C33.7612 56.4807 40.885 62.9322 49.6416 62.9322C55.2937 62.9322 60.5663 60.1756 63.4017 55.7374L77.147 62.9401C71.4824 71.806 60.9428 77.3135 49.6416 77.3135Z" fill="#222831"/>
<path d="M81.4033 44.5561H77.8741V41.3604H74.3456V44.5561H70.8164V47.7518H74.3456V50.9478H77.8741V47.7518H81.4033V44.5561Z" fill="#00ADB5"/>
<path d="M81.4033 46.9526H77.8741V43.7568H74.3456V46.9526H70.8164V50.1483H74.3456V53.3443H77.8741V50.1483H81.4033V46.9526Z" fill="#222831"/>
<path d="M94.6338 44.5561H91.1046V41.3604H87.5761V44.5561H84.0469V47.7518H87.5761V50.9478H91.1046V47.7518H94.6338V44.5561Z" fill="#00ADB5"/>
<path d="M94.6338 46.9526H91.1046V43.7568H87.5761V46.9526H84.0469V50.1483H87.5761V53.3443H91.1046V50.1483H94.6338V46.9526Z" fill="#222831"/>
</g>
</g>
<defs>
<clipPath id="clip0_1360_732">
<rect width="100" height="100" fill="white"/>
</clipPath>
<clipPath id="clip1_1360_732">
<rect width="95.2821" height="97.1014" fill="white" transform="translate(2 2.89893)"/>
</clipPath>
<clipPath id="clip2_1360_732">
<rect width="95.2821" height="97.1014" fill="white" transform="translate(2)"/>
</clipPath>
</defs>
</svg>
