<svg width="100" height="100" viewBox="0 0 100 100" fill="none" xmlns="http://www.w3.org/2000/svg">
<g clip-path="url(#clip0_1360_350)">
<path d="M10 3.38525L17.323 88.7855L50.2868 100.048L83.2506 88.7855L90.5735 3.38525H10ZM75.6968 20.6465L74.6896 30.8523L50.4966 41.4896L50.4336 41.5111H73.8293L71.1435 73.1425L50.5385 79.3349L29.8077 73.0346L28.4648 57.0895H38.7253L39.3967 65.3533L50.4336 68.223L61.9112 64.9002L62.6875 51.609L27.7933 51.5011V51.4795L27.7514 51.5011L26.996 41.5111L50.5176 31.4349L51.8814 30.8523H26.0937L24.8767 20.6465H75.6968Z" fill="#00ADB5"/>
</g>
<g clip-path="url(#clip1_1360_350)">
<path d="M10 0.159668L17.323 85.5599L50.2868 96.8229L83.2506 85.5599L90.5735 0.159668H10ZM75.6968 17.421L74.6896 27.6267L50.4966 38.264L50.4336 38.2855H73.8293L71.1435 69.9169L50.5385 76.1094L29.8077 69.809L28.4648 53.8639H38.7253L39.3967 62.1277L50.4336 64.9974L61.9112 61.6746L62.6875 48.3834L27.7933 48.2755V48.2539L27.7514 48.2755L26.996 38.2855L50.5176 28.2093L51.8814 27.6267H26.0937L24.8767 17.421H75.6968Z" fill="#EEEEEE"/>
</g>
<defs>
<clipPath id="clip0_1360_350">
<rect width="80.6452" height="96.7742" fill="white" transform="translate(10 3.22559)"/>
</clipPath>
<clipPath id="clip1_1360_350">
<rect width="80.6452" height="96.7742" fill="white" transform="translate(10)"/>
</clipPath>
</defs>
</svg>
