<svg width="100" height="100" viewBox="0 0 100 100" fill="none" xmlns="http://www.w3.org/2000/svg">
<g clip-path="url(#clip0_1360_686)">
<path d="M88.1895 3.22559H12.5847C6.73892 3.22559 2 7.96451 2 13.8103V89.4151C2 95.2609 6.73892 99.9998 12.5847 99.9998H88.1895C94.0353 99.9998 98.7742 95.2609 98.7742 89.4151V13.8103C98.7742 7.96451 94.0353 3.22559 88.1895 3.22559Z" fill="#00ADB5"/>
<path d="M72.4546 38.8348V63.8701C72.4546 72.4962 71.8235 76.6334 69.9302 80.2102C68.1767 83.6471 65.8622 85.8205 61.0938 88.2051L51.0653 83.4363C55.8341 81.1924 58.1482 79.2294 59.6207 76.2127C61.1639 73.1273 61.6552 69.5505 61.6552 60.1536V38.8348H72.4546ZM55.274 22.1567V72.146C49.7338 73.1979 45.6662 73.6186 41.2485 73.6186C28.0639 73.6186 21.1914 67.6581 21.1914 56.2267C21.1914 45.2164 28.4851 38.0639 39.7754 38.0639C41.5285 38.0639 42.8608 38.2036 44.4741 38.6244V22.1567H55.274ZM40.8277 46.7591C35.3577 46.7591 32.2017 50.1255 32.2017 56.0158C32.2017 61.7669 35.2174 64.9224 40.7576 64.9224C41.9492 64.9224 42.9314 64.8523 44.4741 64.6424V47.3197C43.2119 46.8994 42.1601 46.7591 40.8277 46.7591ZM72.4546 22.2142V33.2946H61.6552V22.2142H72.4546Z" fill="#222831"/>
</g>
<g clip-path="url(#clip1_1360_686)">
<path d="M88.1895 0H12.5847C6.73892 0 2 4.73892 2 10.5847V86.1895C2 92.0353 6.73892 96.7742 12.5847 96.7742H88.1895C94.0353 96.7742 98.7742 92.0353 98.7742 86.1895V10.5847C98.7742 4.73892 94.0353 0 88.1895 0Z" fill="#EEEEEE"/>
<path d="M72.4546 32.8069V57.8423C72.4546 66.4683 71.8235 70.6056 69.9302 74.1823C68.1767 77.6193 65.8622 79.7927 61.0938 82.1773L51.0653 77.4085C55.8341 75.1645 58.1482 73.2015 59.6207 70.1849C61.1639 67.0994 61.6552 63.5227 61.6552 54.1257V32.8069H72.4546ZM55.274 16.1289V66.1182C49.7338 67.17 45.6662 67.5908 41.2485 67.5908C28.0639 67.5908 21.1914 61.6303 21.1914 50.1988C21.1914 39.1886 28.4851 32.036 39.7754 32.036C41.5285 32.036 42.8608 32.1758 44.4741 32.5966V16.1289H55.274ZM40.8277 40.7313C35.3577 40.7313 32.2017 44.0977 32.2017 49.988C32.2017 55.739 35.2174 58.8946 40.7576 58.8946C41.9492 58.8946 42.9314 58.8244 44.4741 58.6145V41.2918C43.2119 40.8715 42.1601 40.7313 40.8277 40.7313ZM72.4546 16.1864V27.2667H61.6552V16.1864H72.4546Z" fill="#00ADB5"/>
<path d="M72.4546 35.6092V60.6445C72.4546 69.2706 71.8235 73.4078 69.9302 76.9846C68.1767 80.4215 65.8622 82.5949 61.0938 84.9795L51.0653 80.2107C55.8341 77.9668 58.1482 76.0038 59.6207 72.9871C61.1639 69.9017 61.6552 66.325 61.6552 56.928V35.6092H72.4546ZM55.274 18.9312V68.9204C49.7338 69.9723 45.6662 70.393 41.2485 70.393C28.0639 70.393 21.1914 64.4325 21.1914 53.0011C21.1914 41.9908 28.4851 34.8383 39.7754 34.8383C41.5285 34.8383 42.8608 34.9781 44.4741 35.3988V18.9312H55.274ZM40.8277 43.5335C35.3577 43.5335 32.2017 46.8999 32.2017 52.7903C32.2017 58.5413 35.2174 61.6968 40.7576 61.6968C41.9492 61.6968 42.9314 61.6267 44.4741 61.4168V44.0941C43.2119 43.6738 42.1601 43.5335 40.8277 43.5335ZM72.4546 18.9886V30.069H61.6552V18.9886H72.4546Z" fill="#222831"/>
</g>
<defs>
<clipPath id="clip0_1360_686">
<rect width="96.7742" height="96.7742" fill="white" transform="translate(2 3.22559)"/>
</clipPath>
<clipPath id="clip1_1360_686">
<rect width="96.7742" height="96.7742" fill="white" transform="translate(2)"/>
</clipPath>
</defs>
</svg>
