<svg width="100" height="100" viewBox="0 0 100 100" fill="none" xmlns="http://www.w3.org/2000/svg">
<g clip-path="url(#clip0_1360_576)">
<path d="M99.0236 43.2742C98.7469 43.051 96.2404 41.1861 90.8612 41.1861C89.4696 41.1861 88.0291 41.3215 86.6375 41.5527C85.6203 34.6029 79.7283 31.2397 79.4923 31.0643L78.0519 30.2434L77.1242 31.5585C75.9686 33.3278 75.0815 35.3282 74.577 37.3685C73.6004 41.3215 74.2026 45.0435 76.2453 48.2234C73.7876 49.5863 69.8 49.9051 68.9617 49.9529H3.10074C1.38361 49.9529 -0.00798844 51.3157 -0.00798844 52.9974C-0.0975067 58.6321 0.870918 64.2588 2.86473 69.5747C5.13524 75.3847 8.52066 79.7044 12.8826 82.3345C17.798 85.2833 25.8221 86.9649 34.8634 86.9649C38.9406 86.9649 43.0259 86.5983 47.0623 85.8731C52.6776 84.8768 58.0568 82.9641 63.0128 80.1985C67.0981 77.8793 70.7602 74.9305 73.869 71.4795C79.1099 65.7093 82.2186 59.2617 84.4891 53.5393C84.8146 53.5393 85.0913 53.5393 85.4168 53.5393C91.1216 53.5393 94.6453 51.3157 96.5903 49.403C97.8924 48.2234 98.8608 46.765 99.5607 45.1311L99.9757 43.9516L99.0236 43.2742ZM58.2602 48.088H67.0737C67.4888 48.088 67.8631 47.7692 67.8631 47.3149V39.5921C67.8631 39.1856 67.5376 38.819 67.0737 38.819H58.2602C57.8452 38.819 57.4709 39.1378 57.4709 39.5921V47.3149C57.5197 47.7692 57.8452 48.088 58.2602 48.088ZM45.9718 25.9716H54.7853C55.2003 25.9716 55.5747 25.6528 55.5747 25.1985V17.4757C55.5747 17.0693 55.2003 16.7026 54.7853 16.7026H45.9718C45.5568 16.7026 45.1824 17.0214 45.1824 17.4757V25.1985C45.1824 25.605 45.5487 25.9716 45.9718 25.9716ZM45.9718 37.0497H54.7853C55.2003 37.0497 55.5747 36.6831 55.5747 36.2766V28.5538C55.5747 28.1474 55.2003 27.7807 54.7853 27.7807H45.9718C45.5568 27.7807 45.1824 28.0995 45.1824 28.5538V36.2766C45.1824 36.6911 45.5487 37.0497 45.9718 37.0497ZM33.7729 37.0497H42.5864C43.0015 37.0497 43.3758 36.6831 43.3758 36.2766V28.5538C43.3758 28.1474 43.0503 27.7807 42.5864 27.7807H33.7729C33.3579 27.7807 32.9835 28.0995 32.9835 28.5538V36.2766C32.9835 36.6911 33.3091 37.0497 33.7729 37.0497ZM21.3869 37.0497H30.2003C30.6154 37.0497 30.9897 36.6831 30.9897 36.2766V28.5538C30.9897 28.1474 30.6642 27.7807 30.2003 27.7807H21.3869C20.9718 27.7807 20.5975 28.0995 20.5975 28.5538V36.2766C20.6463 36.6911 20.9718 37.0497 21.3869 37.0497ZM45.9718 48.088H54.7853C55.2003 48.088 55.5747 47.7692 55.5747 47.3149V39.5921C55.5747 39.1856 55.2492 38.819 54.7853 38.819H45.9718C45.5568 38.819 45.1824 39.1378 45.1824 39.5921V47.3149C45.1824 47.7692 45.5487 48.088 45.9718 48.088ZM33.7729 48.088H42.5864C43.0015 48.088 43.3758 47.7692 43.3758 47.3149V39.5921C43.3758 39.1856 43.0503 38.819 42.5864 38.819H33.7729C33.3579 38.819 32.9835 39.1378 32.9835 39.5921V47.3149C32.9835 47.7692 33.3091 48.088 33.7729 48.088ZM21.3869 48.088H30.2003C30.6154 48.088 30.9897 47.7692 30.9897 47.3149V39.5921C30.9897 39.1856 30.6642 38.819 30.2003 38.819H21.3869C20.9718 38.819 20.5975 39.1378 20.5975 39.5921V47.3149C20.6463 47.7692 20.9718 48.088 21.3869 48.088ZM9.2368 48.088H18.0503C18.4653 48.088 18.8397 47.7692 18.8397 47.3149V39.5921C18.8397 39.1856 18.5141 38.819 18.0503 38.819H9.2368C8.82177 38.819 8.44742 39.1378 8.44742 39.5921V47.3149C8.49624 47.7692 8.82177 48.088 9.2368 48.088Z" fill="#00ADB5"/>
</g>
<g clip-path="url(#clip1_1360_576)">
<path d="M99.0236 40.5715C98.7469 40.3484 96.2404 38.4834 90.8612 38.4834C89.4696 38.4834 88.0291 38.6189 86.6375 38.85C85.6203 31.9003 79.7283 28.537 79.4923 28.3617L78.0519 27.5408L77.1242 28.8558C75.9686 30.6251 75.0815 32.6256 74.577 34.6659C73.6004 38.6189 74.2026 42.3408 76.2453 45.5208C73.7876 46.8837 69.8 47.2024 68.9617 47.2503H3.10074C1.38361 47.2503 -0.00798844 48.6131 -0.00798844 50.2948C-0.0975067 55.9294 0.870918 61.5562 2.86473 66.8721C5.13524 72.6821 8.52066 77.0018 12.8826 79.6318C17.798 82.5807 25.8221 84.2623 34.8634 84.2623C38.9406 84.2623 43.0259 83.8957 47.0623 83.1704C52.6776 82.1742 58.0568 80.2614 63.0128 77.4959C67.0981 75.1767 70.7602 72.2278 73.869 68.7769C79.1099 63.0067 82.2186 56.5591 84.4891 50.8367C84.8146 50.8367 85.0913 50.8367 85.4168 50.8367C91.1216 50.8367 94.6453 48.6131 96.5903 46.7003C97.8924 45.5208 98.8608 44.0623 99.5607 42.4285L99.9757 41.249L99.0236 40.5715ZM58.2602 45.3853H67.0737C67.4888 45.3853 67.8631 45.0665 67.8631 44.6122V36.8894C67.8631 36.483 67.5376 36.1164 67.0737 36.1164H58.2602C57.8452 36.1164 57.4709 36.4352 57.4709 36.8894V44.6122C57.5197 45.0665 57.8452 45.3853 58.2602 45.3853ZM45.9718 23.2689H54.7853C55.2003 23.2689 55.5747 22.9502 55.5747 22.4959V14.7731C55.5747 14.3666 55.2003 14 54.7853 14H45.9718C45.5568 14 45.1824 14.3188 45.1824 14.7731V22.4959C45.1824 22.9023 45.5487 23.2689 45.9718 23.2689ZM45.9718 34.3471H54.7853C55.2003 34.3471 55.5747 33.9804 55.5747 33.574V25.8512C55.5747 25.4447 55.2003 25.0781 54.7853 25.0781H45.9718C45.5568 25.0781 45.1824 25.3969 45.1824 25.8512V33.574C45.1824 33.9884 45.5487 34.3471 45.9718 34.3471ZM33.7729 34.3471H42.5864C43.0015 34.3471 43.3758 33.9804 43.3758 33.574V25.8512C43.3758 25.4447 43.0503 25.0781 42.5864 25.0781H33.7729C33.3579 25.0781 32.9835 25.3969 32.9835 25.8512V33.574C32.9835 33.9884 33.3091 34.3471 33.7729 34.3471ZM21.3869 34.3471H30.2003C30.6154 34.3471 30.9897 33.9804 30.9897 33.574V25.8512C30.9897 25.4447 30.6642 25.0781 30.2003 25.0781H21.3869C20.9718 25.0781 20.5975 25.3969 20.5975 25.8512V33.574C20.6463 33.9884 20.9718 34.3471 21.3869 34.3471ZM45.9718 45.3853H54.7853C55.2003 45.3853 55.5747 45.0665 55.5747 44.6122V36.8894C55.5747 36.483 55.2492 36.1164 54.7853 36.1164H45.9718C45.5568 36.1164 45.1824 36.4352 45.1824 36.8894V44.6122C45.1824 45.0665 45.5487 45.3853 45.9718 45.3853ZM33.7729 45.3853H42.5864C43.0015 45.3853 43.3758 45.0665 43.3758 44.6122V36.8894C43.3758 36.483 43.0503 36.1164 42.5864 36.1164H33.7729C33.3579 36.1164 32.9835 36.4352 32.9835 36.8894V44.6122C32.9835 45.0665 33.3091 45.3853 33.7729 45.3853ZM21.3869 45.3853H30.2003C30.6154 45.3853 30.9897 45.0665 30.9897 44.6122V36.8894C30.9897 36.483 30.6642 36.1164 30.2003 36.1164H21.3869C20.9718 36.1164 20.5975 36.4352 20.5975 36.8894V44.6122C20.6463 45.0665 20.9718 45.3853 21.3869 45.3853ZM9.2368 45.3853H18.0503C18.4653 45.3853 18.8397 45.0665 18.8397 44.6122V36.8894C18.8397 36.483 18.5141 36.1164 18.0503 36.1164H9.2368C8.82177 36.1164 8.44742 36.4352 8.44742 36.8894V44.6122C8.49624 45.0665 8.82177 45.3853 9.2368 45.3853Z" fill="#EEEEEE"/>
</g>
<defs>
<clipPath id="clip0_1360_576">
<rect width="100" height="70.2703" fill="white" transform="translate(0 16.7026)"/>
</clipPath>
<clipPath id="clip1_1360_576">
<rect width="100" height="70.2703" fill="white" transform="translate(0 14)"/>
</clipPath>
</defs>
</svg>
