<svg width="100" height="100" viewBox="0 0 100 100" fill="none" xmlns="http://www.w3.org/2000/svg">
<g clip-path="url(#clip0_1360_584)">
<path d="M50.3871 99.9998C77.1105 99.9998 98.7742 78.3361 98.7742 51.6127C98.7742 24.8892 77.1105 3.22559 50.3871 3.22559C23.6636 3.22559 2 24.8892 2 51.6127C2 78.3361 23.6636 99.9998 50.3871 99.9998Z" fill="#00ADB5"/>
<path d="M39.9908 30.3261C30.1603 28.5358 22.3874 30.4096 19.2895 35.7753C16.9778 39.7793 17.6386 45.0879 20.8923 50.7624C20.9565 50.8803 21.0437 50.9841 21.1486 51.0679C21.2535 51.1516 21.3741 51.2135 21.5032 51.2501C21.6324 51.2866 21.7676 51.2969 21.9008 51.2805C22.034 51.2641 22.1626 51.2212 22.279 51.1545C22.3955 51.0877 22.4974 50.9983 22.5789 50.8916C22.6603 50.7849 22.7196 50.663 22.7533 50.5331C22.7871 50.4032 22.7945 50.2678 22.7752 50.135C22.7559 50.0022 22.7103 49.8745 22.641 49.7595C19.7106 44.6479 19.1401 40.0666 21.0355 36.7835C23.6091 32.3262 30.5421 30.6546 39.6294 32.3096C39.8906 32.353 40.1583 32.2921 40.3749 32.1398C40.5914 31.9876 40.7394 31.7562 40.7869 31.4958C40.8343 31.2353 40.7774 30.9667 40.6285 30.7478C40.4795 30.529 40.2505 30.3775 39.9908 30.3261ZM26.0043 57.6599C29.9792 62.0279 35.1434 66.1253 41.033 69.5253C55.2932 77.7587 70.4747 79.9591 77.9565 74.8577C78.0685 74.7842 78.1646 74.6892 78.2394 74.5781C78.3142 74.4671 78.3661 74.3422 78.3921 74.2109C78.4181 74.0796 78.4177 73.9444 78.3909 73.8132C78.3641 73.682 78.3115 73.5575 78.236 73.4469C78.1606 73.3363 78.0639 73.2418 77.9516 73.169C77.8392 73.0962 77.7135 73.0465 77.5817 73.0227C77.45 72.999 77.3148 73.0018 77.1841 73.0309C77.0534 73.06 76.9299 73.1148 76.8206 73.1921C70.1243 77.7579 55.7034 75.6674 42.0412 67.7796C36.3278 64.4809 31.3269 60.5132 27.4956 56.3028C27.4067 56.2043 27.2991 56.1243 27.1792 56.0674C27.0593 56.0106 26.9293 55.9779 26.7967 55.9714C26.6641 55.9649 26.5316 55.9847 26.4067 56.0295C26.2818 56.0744 26.1669 56.1434 26.0688 56.2328C25.9706 56.3221 25.891 56.4299 25.8346 56.5501C25.7782 56.6702 25.7461 56.8003 25.7401 56.9329C25.7342 57.0655 25.7544 57.198 25.7997 57.3227C25.8451 57.4475 25.9146 57.5621 26.0043 57.6599Z" fill="#222831"/>
<path d="M75.57 56.4336C82.007 48.8292 84.2544 41.1811 81.1629 35.8267C78.8883 31.8866 74.0795 29.8063 67.6882 29.7231C67.4234 29.7235 67.1693 29.8281 66.9809 30.0144C66.7925 30.2006 66.685 30.4534 66.6816 30.7183C66.6782 30.9831 66.7791 31.2387 66.9626 31.4297C67.1461 31.6208 67.3974 31.7319 67.6621 31.7391C73.41 31.814 77.5531 33.6062 79.4172 36.8349C81.9847 41.2824 79.9804 48.1027 74.0311 55.1309C73.9438 55.2317 73.8774 55.3488 73.8356 55.4755C73.7939 55.6022 73.7778 55.7358 73.7881 55.8688C73.7984 56.0017 73.8349 56.1313 73.8957 56.25C73.9564 56.3688 74.0401 56.4743 74.1419 56.5604C74.2436 56.6466 74.3615 56.7117 74.4886 56.752C74.6157 56.7923 74.7496 56.8069 74.8824 56.7951C75.0152 56.7833 75.1444 56.7453 75.2624 56.6832C75.3805 56.6212 75.485 56.5363 75.57 56.4336ZM59.0273 30.6618C53.2072 31.9089 47.0122 34.3471 41.0628 37.7819C26.3418 46.281 16.7389 58.8136 18.0725 67.9009C18.0903 68.0332 18.1342 68.1606 18.2016 68.2757C18.269 68.3909 18.3585 68.4915 18.4651 68.5718C18.5717 68.6521 18.6931 68.7104 18.8224 68.7434C18.9517 68.7764 19.0862 68.7835 19.2182 68.7641C19.3503 68.7447 19.4771 68.6993 19.5914 68.6305C19.7058 68.5617 19.8053 68.4709 19.8843 68.3634C19.9633 68.2559 20.0201 68.1337 20.0516 68.004C20.083 67.8744 20.0884 67.7397 20.0674 67.608C18.883 59.5394 27.9859 47.66 42.071 39.528C47.8423 36.1957 53.8408 33.8349 59.4496 32.6332C59.5808 32.6073 59.7056 32.5556 59.8167 32.481C59.9278 32.4064 60.0229 32.3104 60.0965 32.1987C60.1701 32.087 60.2207 31.9617 60.2454 31.8303C60.2701 31.6988 60.2684 31.5637 60.2404 31.4329C60.2124 31.302 60.1586 31.1781 60.0822 31.0683C60.0058 30.9585 59.9083 30.8649 59.7954 30.7932C59.6825 30.7214 59.5564 30.6728 59.4246 30.6503C59.2927 30.6277 59.1577 30.6316 59.0273 30.6618Z" fill="#222831"/>
<path d="M35.1787 74.2009C38.5446 83.5986 44.0505 89.385 50.2418 89.385C54.7573 89.385 58.9349 86.3068 62.1927 80.8878C62.2632 80.7743 62.3104 80.6479 62.3316 80.5159C62.3529 80.384 62.3476 80.2492 62.3163 80.1193C62.2849 79.9894 62.2281 79.867 62.149 79.7593C62.0699 79.6515 61.9702 79.5606 61.8557 79.4918C61.7412 79.4229 61.6141 79.3775 61.4819 79.3582C61.3496 79.3389 61.2149 79.3461 61.0855 79.3793C60.956 79.4126 60.8345 79.4712 60.7279 79.5518C60.6214 79.6325 60.5319 79.7335 60.4647 79.849C57.5369 84.7191 53.9408 87.3686 50.2418 87.3686C45.0988 87.3686 40.1879 82.2078 37.0771 73.5216C37.0345 73.3944 36.967 73.277 36.8784 73.1763C36.7899 73.0755 36.6821 72.9935 36.5614 72.9349C36.4408 72.8763 36.3096 72.8424 36.1757 72.8351C36.0417 72.8279 35.9077 72.8474 35.7814 72.8926C35.6551 72.9378 35.5391 73.0078 35.4402 73.0984C35.3413 73.189 35.2614 73.2984 35.2053 73.4202C35.1493 73.5421 35.118 73.6739 35.1135 73.8079C35.109 73.942 35.1313 74.0756 35.1791 74.2009H35.1787ZM65.9204 72.3626C67.6631 66.7951 68.5987 60.3724 68.5987 53.6795C68.5987 36.9788 62.7533 22.5821 54.4277 18.8854C54.1845 18.7835 53.911 18.781 53.666 18.8784C53.4209 18.9757 53.2237 19.1652 53.1167 19.4062C53.0097 19.6472 53.0014 19.9205 53.0935 20.1676C53.1857 20.4147 53.3709 20.6158 53.6096 20.7279C61.0352 24.0254 66.5823 37.6883 66.5823 53.6795C66.5823 60.1728 65.6762 66.3925 63.9966 71.7604C63.9549 71.8873 63.9388 72.0213 63.9493 72.1545C63.9598 72.2877 63.9967 72.4175 64.0578 72.5363C64.1189 72.6551 64.203 72.7606 64.3052 72.8466C64.4074 72.9326 64.5257 72.9975 64.6532 73.0374C64.7808 73.0773 64.9149 73.0915 65.048 73.0791C65.181 73.0667 65.3102 73.028 65.4282 72.9652C65.5461 72.9024 65.6504 72.8168 65.7349 72.7133C65.8195 72.6099 65.8827 72.4907 65.9207 72.3626H65.9204ZM84.9062 71.3752C84.9062 68.7105 82.7462 66.5505 80.0815 66.5505C77.4168 66.5505 75.2568 68.7105 75.2568 71.3752C75.2568 74.0399 77.4168 76.1999 80.0815 76.1999C82.7462 76.1999 84.9062 74.0399 84.9062 71.3752ZM82.8902 71.3752C82.8902 71.744 82.8176 72.1093 82.6764 72.45C82.5353 72.7908 82.3284 73.1004 82.0676 73.3613C81.8068 73.6221 81.4971 73.829 81.1564 73.9701C80.8156 74.1113 80.4504 74.1839 80.0815 74.1839C79.7127 74.1839 79.3474 74.1113 79.0067 73.9701C78.6659 73.829 78.3563 73.6221 78.0955 73.3613C77.8346 73.1004 77.6278 72.7908 77.4866 72.45C77.3455 72.1093 77.2728 71.744 77.2728 71.3752C77.2728 70.6303 77.5687 69.9159 78.0955 69.3891C78.6222 68.8624 79.3366 68.5665 80.0815 68.5665C80.8264 68.5665 81.5409 68.8624 82.0676 69.3891C82.5943 69.9159 82.8902 70.6303 82.8902 71.3752ZM20.3325 76.1999C22.9976 76.1999 25.1576 74.0399 25.1576 71.3752C25.1576 68.7105 22.9972 66.5505 20.3325 66.5505C17.6682 66.5505 15.5078 68.7105 15.5078 71.3752C15.5078 74.0399 17.6682 76.1999 20.3325 76.1999ZM20.3325 74.1839C19.5876 74.1839 18.8732 73.888 18.3465 73.3613C17.8197 72.8345 17.5238 72.1201 17.5238 71.3752C17.5238 70.6303 17.8197 69.9159 18.3465 69.3891C18.8732 68.8624 19.5876 68.5665 20.3325 68.5665C21.0775 68.5665 21.7919 68.8624 22.3186 69.3891C22.8453 69.9159 23.1413 70.6303 23.1413 71.3752C23.1413 72.1201 22.8453 72.8345 22.3186 73.3613C21.7919 73.888 21.0775 74.1839 20.3325 74.1839Z" fill="#222831"/>
<path d="M50.2427 23.8067C52.9074 23.8067 55.0674 21.6466 55.0674 18.9819C55.0674 16.3173 52.9074 14.1572 50.2427 14.1572C47.578 14.1572 45.418 16.3173 45.418 18.9819C45.418 21.6466 47.578 23.8067 50.2427 23.8067ZM50.2427 21.7907C49.4978 21.7907 48.7834 21.4948 48.2566 20.968C47.7299 20.4413 47.434 19.7269 47.434 18.9819C47.434 18.237 47.7299 17.5226 48.2566 16.9959C48.7834 16.4691 49.4978 16.1732 50.2427 16.1732C50.9876 16.1732 51.702 16.4691 52.2288 16.9959C52.7555 17.5226 53.0514 18.237 53.0514 18.9819C53.0514 19.7269 52.7555 20.4413 52.2288 20.968C51.702 21.4948 50.9876 21.7907 50.2427 21.7907ZM50.9795 57.0913C49.095 57.4985 47.2385 56.3009 46.8306 54.4164C46.6353 53.5115 46.8074 52.5661 47.309 51.788C47.8106 51.0099 48.6007 50.4629 49.5055 50.2672C51.39 49.8601 53.2465 51.0577 53.6547 52.9421C54.0619 54.8266 52.8643 56.6834 50.9795 57.0913Z" fill="#222831"/>
</g>
<g clip-path="url(#clip1_1360_584)">
<path d="M50.3871 96.7742C77.1105 96.7742 98.7742 75.1105 98.7742 48.3871C98.7742 21.6636 77.1105 0 50.3871 0C23.6636 0 2 21.6636 2 48.3871C2 75.1105 23.6636 96.7742 50.3871 96.7742Z" fill="#EEEEEE"/>
<path d="M39.9908 27.1005C30.1603 25.3102 22.3874 27.184 19.2895 32.5497C16.9778 36.5537 17.6386 41.8623 20.8923 47.5369C20.9565 47.6547 21.0437 47.7586 21.1486 47.8423C21.2535 47.926 21.3741 47.988 21.5032 48.0245C21.6324 48.061 21.7676 48.0713 21.9008 48.0549C22.034 48.0385 22.1626 47.9956 22.279 47.9289C22.3955 47.8621 22.4974 47.7727 22.5789 47.666C22.6603 47.5593 22.7196 47.4375 22.7533 47.3075C22.7871 47.1776 22.7945 47.0422 22.7752 46.9094C22.7559 46.7766 22.7103 46.6489 22.641 46.534C19.7106 41.4223 19.1401 36.841 21.0355 33.5579C23.6091 29.1006 30.5421 27.429 39.6294 29.084C39.8906 29.1275 40.1583 29.0665 40.3749 28.9142C40.5914 28.762 40.7394 28.5306 40.7869 28.2702C40.8343 28.0098 40.7774 27.7411 40.6285 27.5223C40.4795 27.3034 40.2505 27.1519 39.9908 27.1005ZM26.0043 54.4343C29.9792 58.8024 35.1434 62.8998 41.033 66.2997C55.2932 74.5331 70.4747 76.7336 77.9565 71.6321C78.0685 71.5586 78.1646 71.4636 78.2394 71.3525C78.3142 71.2415 78.3661 71.1167 78.3921 70.9853C78.4181 70.854 78.4177 70.7188 78.3909 70.5876C78.3641 70.4565 78.3115 70.3319 78.236 70.2213C78.1606 70.1107 78.0639 70.0163 77.9516 69.9434C77.8392 69.8706 77.7135 69.8209 77.5817 69.7972C77.45 69.7734 77.3148 69.7762 77.1841 69.8053C77.0534 69.8344 76.9299 69.8892 76.8206 69.9665C70.1243 74.5323 55.7034 72.4418 42.0412 64.554C36.3278 61.2554 31.3269 57.2876 27.4956 53.0772C27.4067 52.9787 27.2991 52.8987 27.1792 52.8418C27.0593 52.785 26.9293 52.7524 26.7967 52.7459C26.6641 52.7393 26.5316 52.7591 26.4067 52.8039C26.2818 52.8488 26.1669 52.9178 26.0688 53.0072C25.9706 53.0965 25.891 53.2043 25.8346 53.3245C25.7782 53.4446 25.7461 53.5747 25.7401 53.7073C25.7342 53.8399 25.7544 53.9724 25.7997 54.0972C25.8451 54.2219 25.9146 54.3365 26.0043 54.4343Z" fill="#222831"/>
<path d="M75.57 53.208C82.007 45.6037 84.2544 37.9555 81.1629 32.6011C78.8883 28.661 74.0795 26.5807 67.6882 26.4976C67.4234 26.4979 67.1693 26.6026 66.9809 26.7888C66.7925 26.975 66.685 27.2279 66.6816 27.4927C66.6782 27.7576 66.7791 28.0131 66.9626 28.2041C67.1461 28.3952 67.3974 28.5063 67.6621 28.5136C73.41 28.5884 77.5531 30.3806 79.4172 33.6093C81.9847 38.0568 79.9804 44.8771 74.0311 51.9053C73.9438 52.0061 73.8774 52.1233 73.8356 52.2499C73.7939 52.3766 73.7778 52.5102 73.7881 52.6432C73.7984 52.7761 73.8349 52.9057 73.8957 53.0245C73.9564 53.1432 74.0401 53.2487 74.1419 53.3348C74.2436 53.421 74.3615 53.4861 74.4886 53.5264C74.6157 53.5667 74.7496 53.5813 74.8824 53.5695C75.0152 53.5578 75.1444 53.5197 75.2624 53.4577C75.3805 53.3956 75.485 53.3107 75.57 53.208ZM59.0273 27.4362C53.2072 28.6833 47.0122 31.1216 41.0628 34.5563C26.3418 43.0554 16.7389 55.588 18.0725 64.6754C18.0903 64.8076 18.1342 64.935 18.2016 65.0501C18.269 65.1653 18.3585 65.266 18.4651 65.3462C18.5717 65.4265 18.6931 65.4849 18.8224 65.5179C18.9517 65.5509 19.0862 65.5579 19.2182 65.5385C19.3503 65.5191 19.4771 65.4737 19.5914 65.4049C19.7058 65.3361 19.8053 65.2454 19.8843 65.1378C19.9633 65.0303 20.0201 64.9081 20.0516 64.7784C20.083 64.6488 20.0884 64.5142 20.0674 64.3824C18.883 56.3138 27.9859 44.4344 42.071 36.3024C47.8423 32.9701 53.8408 30.6093 59.4496 29.4076C59.5808 29.3817 59.7056 29.33 59.8167 29.2554C59.9278 29.1808 60.0229 29.0848 60.0965 28.9731C60.1701 28.8614 60.2207 28.7362 60.2454 28.6047C60.2701 28.4732 60.2684 28.3381 60.2404 28.2073C60.2124 28.0765 60.1586 27.9525 60.0822 27.8427C60.0058 27.7329 59.9083 27.6393 59.7954 27.5676C59.6825 27.4958 59.5564 27.4472 59.4246 27.4247C59.2927 27.4021 59.1577 27.406 59.0273 27.4362Z" fill="#222831"/>
<path d="M35.1787 70.9753C38.5446 80.373 44.0505 86.1594 50.2418 86.1594C54.7573 86.1594 58.9349 83.0812 62.1927 77.6622C62.2632 77.5487 62.3104 77.4223 62.3316 77.2904C62.3529 77.1584 62.3476 77.0236 62.3163 76.8937C62.2849 76.7638 62.2281 76.6414 62.149 76.5337C62.0699 76.426 61.9702 76.335 61.8557 76.2662C61.7412 76.1973 61.6141 76.1519 61.4819 76.1326C61.3496 76.1133 61.2149 76.1205 61.0855 76.1537C60.956 76.187 60.8345 76.2456 60.7279 76.3262C60.6214 76.4069 60.5319 76.5079 60.4647 76.6234C57.5369 81.4935 53.9408 84.1431 50.2418 84.1431C45.0988 84.1431 40.1879 78.9823 37.0771 70.296C37.0345 70.1688 36.967 70.0514 36.8784 69.9507C36.7899 69.8499 36.6821 69.7679 36.5614 69.7093C36.4408 69.6507 36.3096 69.6168 36.1757 69.6096C36.0417 69.6023 35.9077 69.6218 35.7814 69.667C35.6551 69.7122 35.5391 69.7822 35.4402 69.8728C35.3413 69.9634 35.2614 70.0728 35.2053 70.1946C35.1493 70.3165 35.118 70.4483 35.1135 70.5823C35.109 70.7164 35.1313 70.85 35.1791 70.9753H35.1787ZM65.9204 69.137C67.6631 63.5695 68.5987 57.1468 68.5987 50.4539C68.5987 33.7532 62.7533 19.3565 54.4277 15.6598C54.1845 15.5579 53.911 15.5554 53.666 15.6528C53.4209 15.7501 53.2237 15.9396 53.1167 16.1806C53.0097 16.4216 53.0014 16.695 53.0935 16.942C53.1857 17.1891 53.3709 17.3902 53.6096 17.5023C61.0352 20.7998 66.5823 34.4627 66.5823 50.4539C66.5823 56.9472 65.6762 63.1669 63.9966 68.5348C63.9549 68.6617 63.9388 68.7957 63.9493 68.9289C63.9598 69.0621 63.9967 69.1919 64.0578 69.3107C64.1189 69.4295 64.203 69.535 64.3052 69.621C64.4074 69.7071 64.5257 69.7719 64.6532 69.8118C64.7808 69.8517 64.9149 69.8659 65.048 69.8535C65.181 69.8411 65.3102 69.8024 65.4282 69.7396C65.5461 69.6768 65.6504 69.5912 65.7349 69.4877C65.8195 69.3843 65.8827 69.2651 65.9207 69.137H65.9204ZM84.9062 68.1496C84.9062 65.4849 82.7462 63.3249 80.0815 63.3249C77.4168 63.3249 75.2568 65.4849 75.2568 68.1496C75.2568 70.8143 77.4168 72.9743 80.0815 72.9743C82.7462 72.9743 84.9062 70.8143 84.9062 68.1496ZM82.8902 68.1496C82.8902 68.5185 82.8176 68.8837 82.6764 69.2245C82.5353 69.5652 82.3284 69.8749 82.0676 70.1357C81.8068 70.3965 81.4971 70.6034 81.1564 70.7445C80.8156 70.8857 80.4504 70.9583 80.0815 70.9583C79.7127 70.9583 79.3474 70.8857 79.0067 70.7445C78.6659 70.6034 78.3563 70.3965 78.0955 70.1357C77.8346 69.8749 77.6278 69.5652 77.4866 69.2245C77.3455 68.8837 77.2728 68.5185 77.2728 68.1496C77.2728 67.4047 77.5687 66.6903 78.0955 66.1635C78.6222 65.6368 79.3366 65.3409 80.0815 65.3409C80.8264 65.3409 81.5409 65.6368 82.0676 66.1635C82.5943 66.6903 82.8902 67.4047 82.8902 68.1496ZM20.3325 72.9743C22.9976 72.9743 25.1576 70.8143 25.1576 68.1496C25.1576 65.4849 22.9972 63.3249 20.3325 63.3249C17.6682 63.3249 15.5078 65.4849 15.5078 68.1496C15.5078 70.8143 17.6682 72.9743 20.3325 72.9743ZM20.3325 70.9583C19.5876 70.9583 18.8732 70.6624 18.3465 70.1357C17.8197 69.6089 17.5238 68.8945 17.5238 68.1496C17.5238 67.4047 17.8197 66.6903 18.3465 66.1635C18.8732 65.6368 19.5876 65.3409 20.3325 65.3409C21.0775 65.3409 21.7919 65.6368 22.3186 66.1635C22.8453 66.6903 23.1413 67.4047 23.1413 68.1496C23.1413 68.8945 22.8453 69.6089 22.3186 70.1357C21.7919 70.6624 21.0775 70.9583 20.3325 70.9583Z" fill="#222831"/>
<path d="M50.2427 20.5811C52.9074 20.5811 55.0674 18.4211 55.0674 15.7564C55.0674 13.0917 52.9074 10.9316 50.2427 10.9316C47.578 10.9316 45.418 13.0917 45.418 15.7564C45.418 18.4211 47.578 20.5811 50.2427 20.5811ZM50.2427 18.5651C49.4978 18.5651 48.7834 18.2692 48.2566 17.7424C47.7299 17.2157 47.434 16.5013 47.434 15.7564C47.434 15.0114 47.7299 14.297 48.2566 13.7703C48.7834 13.2436 49.4978 12.9476 50.2427 12.9476C50.9876 12.9476 51.702 13.2436 52.2288 13.7703C52.7555 14.297 53.0514 15.0114 53.0514 15.7564C53.0514 16.5013 52.7555 17.2157 52.2288 17.7424C51.702 18.2692 50.9876 18.5651 50.2427 18.5651ZM50.9795 53.8657C49.095 54.2729 47.2385 53.0753 46.8306 51.1908C46.6353 50.2859 46.8074 49.3405 47.309 48.5624C47.8106 47.7843 48.6007 47.2373 49.5055 47.0416C51.39 46.6345 53.2465 47.8321 53.6547 49.7165C54.0619 51.601 52.8643 53.4578 50.9795 53.8657Z" fill="#222831"/>
</g>
<defs>
<clipPath id="clip0_1360_584">
<rect width="96.7742" height="96.7742" fill="white" transform="translate(2 3.22559)"/>
</clipPath>
<clipPath id="clip1_1360_584">
<rect width="96.7742" height="96.7742" fill="white" transform="translate(2)"/>
</clipPath>
</defs>
</svg>
