<svg width="100" height="100" viewBox="0 0 100 100" fill="none" xmlns="http://www.w3.org/2000/svg">
<g clip-path="url(#clip0_1372_10)">
<path d="M9.34619 13.8159C4.18739 13.8159 0.00195312 17.965 0.00195312 23.0789C0.00195312 25.9929 1.38412 28.7332 3.73965 30.4893L46.1002 61.9834C48.3194 63.6237 51.3563 63.6237 53.5756 61.9834L95.9361 30.4893C98.2916 28.7332 99.6738 25.9929 99.6738 23.0789C99.6738 17.965 95.4883 13.8159 90.3295 13.8159H9.34619ZM0.00195312 35.4295V75.5691C0.00195312 82.3813 5.58903 87.9198 12.4609 87.9198H87.2148C94.0867 87.9198 99.6738 82.3813 99.6738 75.5691V35.4295L57.3133 66.9237C52.8747 70.2236 46.801 70.2236 42.3625 66.9237L0.00195312 35.4295Z" fill="#00ADB5"/>
</g>
<g clip-path="url(#clip1_1372_10)">
<path d="M9.34619 11.8223C4.18739 11.8223 0.00195312 15.9713 0.00195312 21.0852C0.00195312 23.9992 1.38412 26.7395 3.73965 28.4956L46.1002 59.9898C48.3194 61.6301 51.3563 61.6301 53.5756 59.9898L95.9361 28.4956C98.2916 26.7395 99.6738 23.9992 99.6738 21.0852C99.6738 15.9713 95.4883 11.8223 90.3295 11.8223H9.34619ZM0.00195312 33.4359V73.5755C0.00195312 80.3876 5.58903 85.9261 12.4609 85.9261H87.2148C94.0867 85.9261 99.6738 80.3876 99.6738 73.5755V33.4359L57.3133 64.93C52.8747 68.23 46.801 68.23 42.3625 64.93L0.00195312 33.4359Z" fill="#EEEEEE"/>
</g>
<defs>
<clipPath id="clip0_1372_10">
<rect width="99.6718" height="75.7506" fill="white" transform="translate(0 12.9927)"/>
</clipPath>
<clipPath id="clip1_1372_10">
<rect width="99.6718" height="75.7506" fill="white" transform="translate(0 11)"/>
</clipPath>
</defs>
</svg>
