<svg width="100" height="100" viewBox="0 0 100 100" fill="none" xmlns="http://www.w3.org/2000/svg">
<g clip-path="url(#clip0_1360_518)">
<path d="M100 79.0087C96.3625 79.9488 94.1125 79.0499 92.0942 75.9691L77.7377 55.7788L75.6624 52.9832L58.8969 76.0362C56.9814 78.8098 54.9721 80.0158 51.3969 79.0347L72.8657 49.74L52.8781 23.2783C56.3154 22.599 58.6906 22.9444 60.7997 26.074L75.6902 46.5159L90.6902 26.1853C92.6117 23.4117 94.678 22.3581 98.128 23.3797L90.3782 33.8244L79.8782 47.7219C78.628 49.31 78.7997 50.3972 79.9502 51.9303L100 79.0087ZM0.0255001 49.2505L1.78125 40.4701C6.56252 23.0938 26.1563 15.8733 39.6691 26.61C47.5659 32.9248 49.5286 41.8577 49.1379 51.864H4.62526C3.95701 69.8754 16.71 80.7455 32.9686 75.1999C38.6716 73.2527 42.0309 68.7127 43.7124 63.0337C44.5659 60.1877 45.9774 59.7425 48.6091 60.5559C47.2659 67.6591 44.2344 73.5927 37.8278 77.3063C28.2563 82.8649 14.5928 81.0672 7.40627 73.3419C3.12451 68.8591 1.356 63.1801 0.562501 57.1062C0.437251 56.1021 0.1875 55.1461 0 54.1839C0.0165 52.5402 0.0255001 50.8973 0.0255001 49.2536V49.2505ZM4.70626 48.0437H44.9311C44.6686 35.0198 36.6908 25.769 25.7873 25.6905C13.8188 25.5952 5.22451 34.6257 4.70551 48.0437H4.70626Z" fill="#00ADB5"/>
</g>
<g clip-path="url(#clip1_1360_518)">
<path d="M100 76.4448C96.3625 77.3848 94.1125 76.4859 92.0942 73.4051L77.7377 53.2149L75.6624 50.4192L58.8969 73.4722C56.9814 76.2458 54.9721 77.4519 51.3969 76.4707L72.8657 47.176L52.8781 20.7144C56.3154 20.0351 58.6906 20.3804 60.7997 23.51L75.6902 43.9519L90.6902 23.6213C92.6117 20.8478 94.678 19.7942 98.128 20.8158L90.3782 31.2604L79.8782 45.158C78.628 46.746 78.7997 47.8332 79.9502 49.3663L100 76.4448ZM0.0255001 46.6866L1.78125 37.9062C6.56252 20.5299 26.1563 13.3093 39.6691 24.046C47.5659 30.3608 49.5286 39.2937 49.1379 49.3H4.62526C3.95701 67.3114 16.71 78.1815 32.9686 72.6359C38.6716 70.6888 42.0309 66.1488 43.7124 60.4697C44.5659 57.6238 45.9774 57.1785 48.6091 57.992C47.2659 65.0951 44.2344 71.0288 37.8278 74.7424C28.2563 80.3009 14.5928 78.5032 7.40627 70.778C3.12451 66.2951 1.356 60.6161 0.562501 54.5422C0.437251 53.5381 0.1875 52.5821 0 51.62C0.0165 49.9763 0.0255001 48.3333 0.0255001 46.6896V46.6866ZM4.70626 45.4797H44.9311C44.6686 32.4559 36.6908 23.2051 25.7873 23.1266C13.8188 23.0313 5.22451 32.0617 4.70551 45.4797H4.70626Z" fill="#EEEEEE"/>
</g>
<defs>
<clipPath id="clip0_1360_518">
<rect width="100" height="58.9744" fill="white" transform="translate(0 21.564)"/>
</clipPath>
<clipPath id="clip1_1360_518">
<rect width="100" height="58.9744" fill="white" transform="translate(0 19)"/>
</clipPath>
</defs>
</svg>
