<svg width="100" height="100" viewBox="0 0 100 100" fill="none" xmlns="http://www.w3.org/2000/svg">
<g clip-path="url(#clip0_1372_55)">
<path d="M35.0001 59.9677V100H56.7504V59.9677H72.9693L76.3444 41.5605H56.7504V35.0484C56.7504 25.3178 60.5567 21.5912 70.3818 21.5912C73.4381 21.5912 75.8943 21.6665 77.3194 21.8171V5.12262C74.6381 4.38859 68.0755 3.63574 64.288 3.63574C44.244 3.63574 35.0001 13.1405 35.0001 33.6368V41.5605H22.625V59.9677H35.0001Z" fill="#00ADB5"/>
</g>
<g clip-path="url(#clip1_1372_55)">
<path d="M35.0001 56.3319V96.3647H56.7504V56.3319H72.9693L76.3444 37.9248H56.7504V31.4126C56.7504 21.6821 60.5567 17.9555 70.3818 17.9555C73.4381 17.9555 75.8943 18.0307 77.3194 18.1813V1.48688C74.6381 0.752849 68.0755 0 64.288 0C44.244 0 35.0001 9.50472 35.0001 30.001V37.9248H22.625V56.3319H35.0001Z" fill="#EEEEEE"/>
</g>
<defs>
<clipPath id="clip0_1372_55">
<rect width="60.0007" height="96.3647" fill="white" transform="translate(20 3.63574)"/>
</clipPath>
<clipPath id="clip1_1372_55">
<rect width="60.0007" height="96.3647" fill="white" transform="translate(20)"/>
</clipPath>
</defs>
</svg>
