<svg width="100" height="100" viewBox="0 0 100 100" fill="none" xmlns="http://www.w3.org/2000/svg">
<g clip-path="url(#clip0_1360_380)">
<path d="M15.7051 21.3329C15.7051 11.3342 23.9939 3.22559 34.2148 3.22559H65.9789C76.1999 3.22559 84.4887 11.3342 84.4887 21.3329C84.4887 27.6649 81.1654 33.2407 76.1226 36.4728C81.1654 39.7049 84.4887 45.2808 84.4887 51.6127C84.4887 61.6114 76.1999 69.72 65.9789 69.72H65.5732C60.7815 69.72 56.4149 67.9433 53.1303 65.0136V81.7034C53.1303 91.8345 44.629 99.9998 34.3114 99.9998C24.1098 99.9998 15.7051 91.9101 15.7051 81.8924C15.7051 75.5605 19.0283 69.9847 24.0519 66.7526C19.0283 63.5204 15.7051 57.9446 15.7051 51.6127C15.7051 45.2808 19.0283 39.7049 24.0519 36.4728C19.0283 33.2407 15.7051 27.6649 15.7051 21.3329ZM47.0634 39.4403H34.2148C27.3365 39.4403 21.7719 44.8839 21.7719 51.6127C21.7719 58.3037 27.2978 63.7473 34.1375 63.7851C34.1569 63.7851 34.1955 63.7851 34.2148 63.7851H47.0634V39.4403ZM53.1303 51.6127C53.1303 58.3415 58.6948 63.7851 65.5732 63.7851H65.9789C72.838 63.7851 78.4218 58.3415 78.4218 51.6127C78.4218 44.8839 72.838 39.4403 65.9789 39.4403H65.5732C58.6948 39.4403 53.1303 44.8839 53.1303 51.6127ZM34.2148 69.72C34.1955 69.72 34.1569 69.72 34.1375 69.72C27.2978 69.7578 21.7719 75.2014 21.7719 81.8924C21.7719 88.6024 27.4137 94.0648 34.3114 94.0648C41.325 94.0648 47.0634 88.5078 47.0634 81.7034V69.72H34.2148ZM34.2148 9.16057C27.3365 9.16057 21.7719 14.6041 21.7719 21.3329C21.7719 28.0618 27.3365 33.5053 34.2148 33.5053H47.0634V9.16057H34.2148ZM53.1303 33.5053H65.9789C72.838 33.5053 78.4218 28.0618 78.4218 21.3329C78.4218 14.6041 72.838 9.16057 65.9789 9.16057H53.1303V33.5053Z" fill="#00ADB5"/>
</g>
<g clip-path="url(#clip1_1360_380)">
<path d="M15.7051 18.1074C15.7051 8.10862 23.9939 0 34.2148 0H65.9789C76.1999 0 84.4887 8.10862 84.4887 18.1074C84.4887 24.4393 81.1654 30.0151 76.1226 33.2472C81.1654 36.4793 84.4887 42.0552 84.4887 48.3871C84.4887 58.3858 76.1999 66.4945 65.9789 66.4945H65.5732C60.7815 66.4945 56.4149 64.7177 53.1303 61.7881V78.4778C53.1303 88.6089 44.629 96.7742 34.3114 96.7742C24.1098 96.7742 15.7051 88.6845 15.7051 78.6668C15.7051 72.3349 19.0283 66.7591 24.0519 63.527C19.0283 60.2949 15.7051 54.719 15.7051 48.3871C15.7051 42.0552 19.0283 36.4793 24.0519 33.2472C19.0283 30.0151 15.7051 24.4393 15.7051 18.1074ZM47.0634 36.2147H34.2148C27.3365 36.2147 21.7719 41.6583 21.7719 48.3871C21.7719 55.0781 27.2978 60.5217 34.1375 60.5595C34.1569 60.5595 34.1955 60.5595 34.2148 60.5595H47.0634V36.2147ZM53.1303 48.3871C53.1303 55.1159 58.6948 60.5595 65.5732 60.5595H65.9789C72.838 60.5595 78.4218 55.1159 78.4218 48.3871C78.4218 41.6583 72.838 36.2147 65.9789 36.2147H65.5732C58.6948 36.2147 53.1303 41.6583 53.1303 48.3871ZM34.2148 66.4945C34.1955 66.4945 34.1569 66.4945 34.1375 66.4945C27.2978 66.5323 21.7719 71.9758 21.7719 78.6668C21.7719 85.3768 27.4137 90.8392 34.3114 90.8392C41.325 90.8392 47.0634 85.2823 47.0634 78.4778V66.4945H34.2148ZM34.2148 5.93498C27.3365 5.93498 21.7719 11.3785 21.7719 18.1074C21.7719 24.8362 27.3365 30.2797 34.2148 30.2797H47.0634V5.93498H34.2148ZM53.1303 30.2797H65.9789C72.838 30.2797 78.4218 24.8362 78.4218 18.1074C78.4218 11.3785 72.838 5.93498 65.9789 5.93498H53.1303V30.2797Z" fill="#EEEEEE"/>
</g>
<defs>
<clipPath id="clip0_1360_380">
<rect width="74.1936" height="96.7742" fill="white" transform="translate(13 3.22559)"/>
</clipPath>
<clipPath id="clip1_1360_380">
<rect width="74.1936" height="96.7742" fill="white" transform="translate(13)"/>
</clipPath>
</defs>
</svg>
