<svg width="100" height="100" viewBox="0 0 100 100" fill="none" xmlns="http://www.w3.org/2000/svg">
<g clip-path="url(#clip0_1372_58)">
<path d="M34.3275 78.4873C34.3275 78.8628 33.8931 79.1632 33.3455 79.1632C32.7224 79.2196 32.2881 78.9192 32.2881 78.4873C32.2881 78.1119 32.7224 77.8115 33.27 77.8115C33.8365 77.7551 34.3275 78.0555 34.3275 78.4873ZM28.4547 77.6425C28.3226 78.018 28.7002 78.4498 29.2667 78.5624C29.7577 78.7502 30.3242 78.5624 30.4375 78.187C30.5508 77.8115 30.192 77.3796 29.6255 77.2107C29.1345 77.0793 28.5869 77.267 28.4547 77.6425ZM36.8012 77.3233C36.2536 77.4547 35.8759 77.8115 35.9325 78.2433C35.9892 78.6188 36.4802 78.8628 37.0467 78.7314C37.5943 78.6 37.972 78.2433 37.9153 77.8678C37.8587 77.5111 37.3488 77.267 36.8012 77.3233ZM49.2264 5.37891C23.0352 5.37891 3 25.1486 3 51.189C3 72.0101 16.1806 89.8272 35.0073 96.098C37.4243 96.5298 38.2741 95.0466 38.2741 93.8262C38.2741 92.6622 38.2174 86.2413 38.2174 82.2986C38.2174 82.2986 24.9991 85.1148 22.2232 76.7038C22.2232 76.7038 20.0705 71.2403 16.9737 69.8322C16.9737 69.8322 12.6494 66.8846 17.2758 66.9409C17.2758 66.9409 21.9778 67.3164 24.5648 71.7848C28.7002 79.0318 35.6304 76.9478 38.3307 75.7087C38.7651 72.7048 39.9925 70.6208 41.3521 69.3816C30.7963 68.2176 20.1461 66.6969 20.1461 48.6357C20.1461 43.4726 21.5812 40.8817 24.6025 37.5774C24.1116 36.3571 22.5065 31.3255 25.0935 24.8294C29.0401 23.6091 38.123 29.8986 38.123 29.8986C41.8997 28.8472 45.9596 28.3027 49.9818 28.3027C54.0039 28.3027 58.0638 28.8472 61.8405 29.8986C61.8405 29.8986 70.9234 23.5903 74.87 24.8294C77.457 31.3442 75.8519 36.3571 75.361 37.5774C78.3823 40.9005 80.2329 43.4914 80.2329 48.6357C80.2329 66.7532 69.1106 68.1988 58.5548 69.3816C60.2921 70.8648 61.765 73.681 61.765 78.0931C61.765 84.4201 61.7083 92.2492 61.7083 93.7887C61.7083 95.009 62.5769 96.4922 64.9751 96.0604C83.8585 89.8272 96.6614 72.0101 96.6614 51.189C96.6614 25.1486 75.4176 5.37891 49.2264 5.37891ZM21.3546 70.1326C21.1091 70.3204 21.1658 70.7522 21.4868 71.1089C21.7889 71.4093 22.2232 71.5407 22.4687 71.2967C22.7142 71.1089 22.6576 70.6771 22.3365 70.3204C22.0344 70.02 21.6001 69.8886 21.3546 70.1326ZM19.3152 68.6119C19.183 68.856 19.3719 69.1564 19.7495 69.3441C20.0517 69.5319 20.4293 69.4755 20.5615 69.2127C20.6937 68.9686 20.5049 68.6682 20.1272 68.4805C19.7495 68.3678 19.4474 68.4241 19.3152 68.6119ZM25.4334 75.2957C25.1313 75.5397 25.2446 76.103 25.6789 76.4597C26.1132 76.8915 26.6608 76.9478 26.9063 76.6474C27.1518 76.4034 27.0385 75.8401 26.6608 75.4834C26.2454 75.0516 25.6789 74.9953 25.4334 75.2957ZM23.2807 72.5358C22.9786 72.7235 22.9786 73.2117 23.2807 73.6435C23.5828 74.0753 24.0927 74.2631 24.3382 74.0753C24.6403 73.8312 24.6403 73.3431 24.3382 72.9113C24.0738 72.4795 23.5828 72.2917 23.2807 72.5358Z" fill="#00ADB5"/>
</g>
<g clip-path="url(#clip1_1372_58)">
<path d="M34.3275 74.6133C34.3275 74.9888 33.8931 75.2892 33.3455 75.2892C32.7224 75.3455 32.2881 75.0451 32.2881 74.6133C32.2881 74.2378 32.7224 73.9374 33.27 73.9374C33.8365 73.8811 34.3275 74.1815 34.3275 74.6133ZM28.4547 73.7685C28.3226 74.144 28.7002 74.5758 29.2667 74.6884C29.7577 74.8762 30.3242 74.6884 30.4375 74.3129C30.5508 73.9374 30.192 73.5056 29.6255 73.3367C29.1345 73.2052 28.5869 73.393 28.4547 73.7685ZM36.8012 73.4493C36.2536 73.5807 35.8759 73.9374 35.9325 74.3693C35.9892 74.7448 36.4802 74.9888 37.0467 74.8574C37.5943 74.726 37.972 74.3693 37.9153 73.9938C37.8587 73.637 37.3488 73.393 36.8012 73.4493ZM49.2264 1.50488C23.0352 1.50488 3 21.2746 3 47.315C3 68.1361 16.1806 85.9532 35.0073 92.2239C37.4243 92.6558 38.2741 91.1726 38.2741 89.9522C38.2741 88.7882 38.2174 82.3673 38.2174 78.4246C38.2174 78.4246 24.9991 81.2408 22.2232 72.8297C22.2232 72.8297 20.0705 67.3663 16.9737 65.9582C16.9737 65.9582 12.6494 63.0106 17.2758 63.0669C17.2758 63.0669 21.9778 63.4424 24.5648 67.9108C28.7002 75.1578 35.6304 73.0738 38.3307 71.8347C38.7651 68.8307 39.9925 66.7468 41.3521 65.5076C30.7963 64.3436 20.1461 62.8229 20.1461 44.7617C20.1461 39.5986 21.5812 37.0077 24.6025 33.7034C24.1116 32.483 22.5065 27.4514 25.0935 20.9554C29.0401 19.7351 38.123 26.0246 38.123 26.0246C41.8997 24.9732 45.9596 24.4287 49.9818 24.4287C54.0039 24.4287 58.0638 24.9732 61.8405 26.0246C61.8405 26.0246 70.9234 19.7163 74.87 20.9554C77.457 27.4702 75.8519 32.483 75.361 33.7034C78.3823 37.0265 80.2329 39.6174 80.2329 44.7617C80.2329 62.8792 69.1106 64.3248 58.5548 65.5076C60.2921 66.9908 61.765 69.807 61.765 74.2191C61.765 80.5461 61.7083 88.3751 61.7083 89.9147C61.7083 91.135 62.5769 92.6182 64.9751 92.1864C83.8585 85.9532 96.6614 68.1361 96.6614 47.315C96.6614 21.2746 75.4176 1.50488 49.2264 1.50488ZM21.3546 66.2586C21.1091 66.4464 21.1658 66.8782 21.4868 67.2349C21.7889 67.5353 22.2232 67.6667 22.4687 67.4226C22.7142 67.2349 22.6576 66.8031 22.3365 66.4464C22.0344 66.146 21.6001 66.0145 21.3546 66.2586ZM19.3152 64.7379C19.183 64.9819 19.3719 65.2823 19.7495 65.4701C20.0517 65.6578 20.4293 65.6015 20.5615 65.3387C20.6937 65.0946 20.5049 64.7942 20.1272 64.6064C19.7495 64.4938 19.4474 64.5501 19.3152 64.7379ZM25.4334 71.4216C25.1313 71.6657 25.2446 72.2289 25.6789 72.5857C26.1132 73.0175 26.6608 73.0738 26.9063 72.7734C27.1518 72.5293 27.0385 71.9661 26.6608 71.6094C26.2454 71.1776 25.6789 71.1212 25.4334 71.4216ZM23.2807 68.6618C22.9786 68.8495 22.9786 69.3377 23.2807 69.7695C23.5828 70.2013 24.0927 70.389 24.3382 70.2013C24.6403 69.9572 24.6403 69.4691 24.3382 69.0373C24.0738 68.6054 23.5828 68.4177 23.2807 68.6618Z" fill="#EEEEEE"/>
</g>
<defs>
<clipPath id="clip0_1372_58">
<rect width="93.6614" height="96.1261" fill="white" transform="translate(3 3.87402)"/>
</clipPath>
<clipPath id="clip1_1372_58">
<rect width="93.6614" height="96.1261" fill="white" transform="translate(3)"/>
</clipPath>
</defs>
</svg>
