<svg width="100" height="100" viewBox="0 0 100 100" fill="none" xmlns="http://www.w3.org/2000/svg">
<g clip-path="url(#clip0_1360_602)">
<path d="M7.70158 74.9232L11.5957 76.9751L54.9778 8.40269L51.0837 6.3508L7.70158 74.9232Z" fill="#00ADB5"/>
<path d="M93.5729 69.4448H6.80859V73.5486H93.5729V69.4448Z" fill="#00ADB5"/>
<path d="M8.52349 71.7488L51.9219 94.6162L54.1702 91.0624L10.7718 68.195L8.52349 71.7488Z" fill="#00ADB5"/>
<path d="M46.2208 12.1531L89.6191 35.0205L91.8675 31.4666L48.4691 8.59927L46.2208 12.1531Z" fill="#00ADB5"/>
<path d="M8.54072 31.4505L10.7891 35.0044L54.1874 12.137L51.9391 8.58316L8.54072 31.4505Z" fill="#00ADB5"/>
<path d="M45.4421 8.40269L88.8242 76.9751L92.7183 74.9232L49.3362 6.3508L45.4421 8.40269Z" fill="#00ADB5"/>
<path d="M14.7428 28.7271H10.2461V74.4618H14.7428V28.7271Z" fill="#00ADB5"/>
<path d="M90.1627 28.7271H85.666V74.4618H90.1627V28.7271Z" fill="#00ADB5"/>
<path d="M49.1943 89.7751L51.1582 92.8794L88.9031 72.991L86.9392 69.8867L49.1943 89.7751Z" fill="#00ADB5"/>
<path d="M96.1196 75.7982C93.5191 79.9267 87.7222 81.3358 83.1984 78.9625C78.6746 76.5893 77.1306 71.2989 79.7311 67.1704C82.3316 63.0419 88.1285 61.6328 92.6523 64.006C97.2031 66.404 98.7472 71.6697 96.1196 75.7982Z" fill="#00ADB5"/>
<path d="M20.6508 36.0213C18.0504 40.1498 12.2534 41.5589 7.72966 39.1857C3.20589 36.8124 1.66185 31.522 4.26234 27.3935C6.86283 23.265 12.6598 21.8559 17.1835 24.2292C21.7073 26.6272 23.2513 31.8928 20.6508 36.0213Z" fill="#00ADB5"/>
<path d="M4.28773 75.7982C1.68724 71.6697 3.23128 66.404 7.75505 64.006C12.2788 61.6328 18.0487 63.0419 20.6762 67.1704C23.2767 71.2989 21.7327 76.5646 17.2089 78.9625C12.6581 81.3358 6.88822 79.9267 4.28773 75.7982Z" fill="#00ADB5"/>
<path d="M79.7565 36.0213C77.156 31.8928 78.7 26.6272 83.2238 24.2292C87.7476 21.8559 93.5174 23.265 96.145 27.3935C98.7455 31.522 97.2014 36.7877 92.6777 39.1857C88.1539 41.5589 82.357 40.1498 79.7565 36.0213Z" fill="#00ADB5"/>
<path d="M50.2058 100C44.9777 100 40.752 96.1437 40.752 91.3724C40.752 86.6012 44.9777 82.7446 50.2058 82.7446C55.4339 82.7446 59.6597 86.6012 59.6597 91.3724C59.6597 96.119 55.4339 100 50.2058 100Z" fill="#00ADB5"/>
<path d="M50.2058 20.4465C44.9777 20.4465 40.752 16.59 40.752 11.8187C40.752 7.04747 44.9777 3.19092 50.2058 3.19092C55.4339 3.19092 59.6597 7.04747 59.6597 11.8187C59.6597 16.59 55.4339 20.4465 50.2058 20.4465Z" fill="#00ADB5"/>
<path d="M7.70158 71.7318L11.5957 73.7837L54.9778 5.21128L51.0837 3.1594L7.70158 71.7318Z" fill="#EEEEEE"/>
<path d="M93.5729 66.2539H6.80859V70.3577H93.5729V66.2539Z" fill="#EEEEEE"/>
<path d="M8.52349 68.5584L51.9219 91.4258L54.1702 87.8719L10.7718 65.0046L8.52349 68.5584Z" fill="#EEEEEE"/>
<path d="M46.2208 8.96173L89.6191 31.8291L91.8675 28.2752L48.4691 5.40787L46.2208 8.96173Z" fill="#EEEEEE"/>
<path d="M8.54072 28.2601L10.7891 31.814L54.1874 8.94659L51.9391 5.39273L8.54072 28.2601Z" fill="#EEEEEE"/>
<path d="M45.4421 5.21079L88.8242 73.7832L92.7183 71.7313L49.3362 3.15891L45.4421 5.21079Z" fill="#EEEEEE"/>
<path d="M14.7428 25.5366H10.2461V71.2714H14.7428V25.5366Z" fill="#EEEEEE"/>
<path d="M90.1627 25.5366H85.666V71.2714H90.1627V25.5366Z" fill="#EEEEEE"/>
<path d="M49.1943 86.5842L51.1582 89.6885L88.9031 69.8L86.9392 66.6958L49.1943 86.5842Z" fill="#EEEEEE"/>
<path d="M96.1196 72.6073C93.5191 76.7358 87.7222 78.1449 83.1984 75.7716C78.6746 73.3984 77.1306 68.108 79.7311 63.9795C82.3316 59.851 88.1285 58.4419 92.6523 60.8151C97.2031 63.2131 98.7472 68.4788 96.1196 72.6073Z" fill="#EEEEEE"/>
<path d="M20.6508 32.8304C18.0504 36.9589 12.2534 38.368 7.72966 35.9948C3.20589 33.6215 1.66185 28.3311 4.26234 24.2026C6.86283 20.0741 12.6598 18.665 17.1835 21.0383C21.7073 23.4363 23.2513 28.7019 20.6508 32.8304Z" fill="#EEEEEE"/>
<path d="M4.28773 72.6073C1.68724 68.4788 3.23128 63.2131 7.75505 60.8151C12.2788 58.4419 18.0487 59.851 20.6762 63.9795C23.2767 68.108 21.7327 73.3736 17.2089 75.7716C12.6581 78.1449 6.88822 76.7358 4.28773 72.6073Z" fill="#EEEEEE"/>
<path d="M79.7565 32.8304C77.156 28.7019 78.7 23.4363 83.2238 21.0383C87.7476 18.665 93.5174 20.0741 96.145 24.2026C98.7455 28.3311 97.2014 33.5968 92.6777 35.9948C88.1539 38.368 82.357 36.9589 79.7565 32.8304Z" fill="#EEEEEE"/>
<path d="M50.2058 96.8093C44.9777 96.8093 40.752 92.9528 40.752 88.1815C40.752 83.4103 44.9777 79.5537 50.2058 79.5537C55.4339 79.5537 59.6597 83.4103 59.6597 88.1815C59.6597 92.928 55.4339 96.8093 50.2058 96.8093Z" fill="#EEEEEE"/>
<path d="M50.2058 17.2556C44.9777 17.2556 40.752 13.399 40.752 8.6278C40.752 3.85655 44.9777 0 50.2058 0C55.4339 0 59.6597 3.85655 59.6597 8.6278C59.6597 13.399 55.4339 17.2556 50.2058 17.2556Z" fill="#EEEEEE"/>
</g>
<defs>
<clipPath id="clip0_1360_602">
<rect width="100" height="100" fill="white"/>
</clipPath>
</defs>
</svg>
