<svg width="100" height="100" viewBox="0 0 100 100" fill="none" xmlns="http://www.w3.org/2000/svg">
<g clip-path="url(#clip0_1360_344)">
<path d="M6 3.40527L14.0624 88.5861L50.2393 99.8202L86.6473 88.5861L94.7097 3.40527H6ZM77.1988 30.9309H34.7382L35.6854 41.5623H76.2516L73.1098 73.4998L50.4934 79.3105V79.375H50.2393L27.4382 73.4998L26.0521 57.1867H37.0715L37.88 65.3863L50.2393 68.5068L62.6448 65.3863L64.0309 52.0001H25.4745L22.5176 20.6653H78.2152L77.1988 30.9309Z" fill="#00ADB5"/>
</g>
<g clip-path="url(#clip1_1360_344)">
<path d="M6 0.179688L14.0624 85.3605L50.2393 96.5946L86.6473 85.3605L94.7097 0.179688H6ZM77.1988 27.7053H34.7382L35.6854 38.3367H76.2516L73.1098 70.2742L50.4934 76.0849V76.1494H50.2393L27.4382 70.2742L26.0521 53.9611H37.0715L37.88 62.1607L50.2393 65.2813L62.6448 62.1607L64.0309 48.7745H25.4745L22.5176 17.4397H78.2152L77.1988 27.7053Z" fill="#EEEEEE"/>
</g>
<defs>
<clipPath id="clip0_1360_344">
<rect width="88.7097" height="96.7742" fill="white" transform="translate(6 3.22559)"/>
</clipPath>
<clipPath id="clip1_1360_344">
<rect width="88.7097" height="96.7742" fill="white" transform="translate(6)"/>
</clipPath>
</defs>
</svg>
