<svg width="100" height="100" viewBox="0 0 100 100" fill="none" xmlns="http://www.w3.org/2000/svg">
<g clip-path="url(#clip0_1372_56)">
<path d="M50.0953 27.0992C36.4459 27.0992 25.4362 38.1311 25.4362 51.808C25.4362 65.4849 36.4459 76.5168 50.0953 76.5168C63.7447 76.5168 74.7544 65.4849 74.7544 51.808C74.7544 38.1311 63.7447 27.0992 50.0953 27.0992ZM50.0953 67.8719C41.2747 67.8719 34.0637 60.6679 34.0637 51.808C34.0637 42.9481 41.2532 35.7441 50.0953 35.7441C58.9374 35.7441 66.1269 42.9481 66.1269 51.808C66.1269 60.6679 58.9159 67.8719 50.0953 67.8719ZM81.5147 26.0885C81.5147 29.2927 78.9393 31.8517 75.763 31.8517C72.5653 31.8517 70.0114 29.2712 70.0114 26.0885C70.0114 22.9058 72.5868 20.3253 75.763 20.3253C78.9393 20.3253 81.5147 22.9058 81.5147 26.0885ZM97.8467 31.9378C97.4819 24.2176 95.7221 17.3791 90.0777 11.7449C84.4549 6.11074 77.6302 4.34736 69.9256 3.96028C61.9849 3.50868 38.1843 3.50868 30.2436 3.96028C22.5604 4.32586 15.7357 6.08923 10.0914 11.7234C4.44706 17.3576 2.70869 24.1961 2.32239 31.9162C1.8717 39.8729 1.8717 63.7215 2.32239 71.6782C2.68723 79.3984 4.44706 86.2368 10.0914 91.871C15.7357 97.5052 22.539 99.2686 30.2436 99.6557C38.1843 100.107 61.9849 100.107 69.9256 99.6557C77.6302 99.2901 84.4549 97.5267 90.0777 91.871C95.7006 86.2368 97.4604 79.3984 97.8467 71.6782C98.2974 63.7215 98.2974 39.8944 97.8467 31.9378ZM87.5882 80.2156C85.9142 84.4305 82.6736 87.6776 78.4457 89.3765C72.1146 91.8925 57.0917 91.3119 50.0953 91.3119C43.0989 91.3119 28.0545 91.871 21.7449 89.3765C17.5385 87.6992 14.2978 84.452 12.6024 80.2156C10.0914 73.8717 10.6708 58.8185 10.6708 51.808C10.6708 44.7975 10.1129 29.7228 12.6024 23.4004C14.2763 19.1855 17.517 15.9383 21.7449 14.2395C28.076 11.7234 43.0989 12.3041 50.0953 12.3041C57.0917 12.3041 72.1361 11.7449 78.4457 14.2395C82.6521 15.9168 85.8928 19.164 87.5882 23.4004C90.0992 29.7443 89.5198 44.7975 89.5198 51.808C89.5198 58.8185 90.0992 73.8932 87.5882 80.2156Z" fill="#00ADB5"/>
</g>
<g clip-path="url(#clip1_1372_56)">
<path d="M50.0953 23.44C36.4459 23.44 25.4362 34.4719 25.4362 48.1488C25.4362 61.8257 36.4459 72.8576 50.0953 72.8576C63.7447 72.8576 74.7544 61.8257 74.7544 48.1488C74.7544 34.4719 63.7447 23.44 50.0953 23.44ZM50.0953 64.2127C41.2747 64.2127 34.0637 57.0087 34.0637 48.1488C34.0637 39.2889 41.2532 32.0849 50.0953 32.0849C58.9374 32.0849 66.1269 39.2889 66.1269 48.1488C66.1269 57.0087 58.9159 64.2127 50.0953 64.2127ZM81.5147 22.4293C81.5147 25.6335 78.9393 28.1926 75.763 28.1926C72.5653 28.1926 70.0114 25.612 70.0114 22.4293C70.0114 19.2466 72.5868 16.6661 75.763 16.6661C78.9393 16.6661 81.5147 19.2466 81.5147 22.4293ZM97.8467 28.2786C97.4819 20.5584 95.7221 13.72 90.0777 8.08576C84.4549 2.45156 77.6302 0.688182 69.9256 0.3011C61.9849 -0.150497 38.1843 -0.150497 30.2436 0.3011C22.5604 0.666678 15.7357 2.43005 10.0914 8.06426C4.44706 13.6985 2.70869 20.5369 2.32239 28.2571C1.8717 36.2138 1.8717 60.0623 2.32239 68.019C2.68723 75.7392 4.44706 82.5777 10.0914 88.2119C15.7357 93.8461 22.539 95.6094 30.2436 95.9965C38.1843 96.4481 61.9849 96.4481 69.9256 95.9965C77.6302 95.6309 84.4549 93.8676 90.0777 88.2119C95.7006 82.5777 97.4604 75.7392 97.8467 68.019C98.2974 60.0623 98.2974 36.2353 97.8467 28.2786ZM87.5882 76.5564C85.9142 80.7713 82.6736 84.0185 78.4457 85.7173C72.1146 88.2334 57.0917 87.6527 50.0953 87.6527C43.0989 87.6527 28.0545 88.2119 21.7449 85.7173C17.5385 84.04 14.2978 80.7928 12.6024 76.5564C10.0914 70.2125 10.6708 55.1593 10.6708 48.1488C10.6708 41.1383 10.1129 26.0636 12.6024 19.7412C14.2763 15.5263 17.517 12.2792 21.7449 10.5803C28.076 8.06426 43.0989 8.64488 50.0953 8.64488C57.0917 8.64488 72.1361 8.08576 78.4457 10.5803C82.6521 12.2577 85.8928 15.5048 87.5882 19.7412C90.0992 26.0851 89.5198 41.1383 89.5198 48.1488C89.5198 55.1593 90.0992 70.234 87.5882 76.5564Z" fill="#EEEEEE"/>
</g>
<defs>
<clipPath id="clip0_1372_56">
<rect width="96.3406" height="96.3406" fill="white" transform="translate(2 3.65918)"/>
</clipPath>
<clipPath id="clip1_1372_56">
<rect width="96.3406" height="96.3406" fill="white" transform="translate(2)"/>
</clipPath>
</defs>
</svg>
