<svg width="100" height="100" viewBox="0 0 100 100" fill="none" xmlns="http://www.w3.org/2000/svg">
<g clip-path="url(#clip0_1360_356)">
<path d="M0 4.27881V99.308H100V4.27881H0ZM54.4196 78.3931C54.4196 87.6415 48.7054 91.8627 40.3795 91.8627C32.8571 91.8627 28.5045 88.1718 26.2723 83.6961L33.9286 79.3052C35.4018 81.787 36.7411 83.887 39.9777 83.887C43.058 83.887 45.0223 82.7416 45.0223 78.2659V47.9117H54.4196V78.3931ZM76.6518 91.8627C67.9241 91.8627 62.2768 87.9173 59.5313 82.7416L67.1875 78.5416C69.1964 81.6598 71.8304 83.9719 76.4509 83.9719C80.3348 83.9719 82.8348 82.1264 82.8348 79.5598C82.8348 76.5053 80.2902 75.4235 75.9821 73.6205L73.6384 72.6659C66.8527 69.9296 62.3661 66.472 62.3661 59.1964C62.3661 52.4934 67.7455 47.4026 76.1161 47.4026C82.0982 47.4026 86.3839 49.3753 89.4643 54.551L82.1429 59.0055C80.5357 56.2691 78.7946 55.1873 76.0937 55.1873C73.3482 55.1873 71.6071 56.8419 71.6071 59.0055C71.6071 61.6782 73.3482 62.76 77.3884 64.4357L79.7321 65.3902C87.7232 68.6357 92.2098 71.9659 92.2098 79.4325C92.2098 87.4506 85.558 91.8627 76.6518 91.8627Z" fill="#00ADB5"/>
</g>
<g clip-path="url(#clip1_1360_356)">
<path d="M0 1.10449V96.1337H100V1.10449H0ZM54.4196 75.2188C54.4196 84.4672 48.7054 88.6884 40.3795 88.6884C32.8571 88.6884 28.5045 84.9975 26.2723 80.5218L33.9286 76.1309C35.4018 78.6127 36.7411 80.7127 39.9777 80.7127C43.058 80.7127 45.0223 79.5672 45.0223 75.0915V44.7373H54.4196V75.2188ZM76.6518 88.6884C67.9241 88.6884 62.2768 84.7429 59.5313 79.5672L67.1875 75.3673C69.1964 78.4854 71.8304 80.7975 76.4509 80.7975C80.3348 80.7975 82.8348 78.9521 82.8348 76.3855C82.8348 73.331 80.2902 72.2491 75.9821 70.4461L73.6384 69.4916C66.8527 66.7553 62.3661 63.2977 62.3661 56.0221C62.3661 49.3191 67.7455 44.2283 76.1161 44.2283C82.0982 44.2283 86.3839 46.201 89.4643 51.3767L82.1429 55.8312C80.5357 53.0948 78.7946 52.013 76.0937 52.013C73.3482 52.013 71.6071 53.6675 71.6071 55.8312C71.6071 58.5038 73.3482 59.5857 77.3884 61.2614L79.7321 62.2159C87.7232 65.4613 92.2098 68.7916 92.2098 76.2582C92.2098 84.2763 85.558 88.6884 76.6518 88.6884Z" fill="#EEEEEE"/>
</g>
<defs>
<clipPath id="clip0_1360_356">
<rect width="100" height="95.2381" fill="white" transform="translate(0 4.17432)"/>
</clipPath>
<clipPath id="clip1_1360_356">
<rect width="100" height="95.2381" fill="white" transform="translate(0 1)"/>
</clipPath>
</defs>
</svg>
