<svg width="100" height="100" viewBox="0 0 100 100" fill="none" xmlns="http://www.w3.org/2000/svg">
<g clip-path="url(#clip0_1360_524)">
<path d="M87.6433 50.8272C87.6433 45.8572 83.6348 41.8282 78.69 41.8282C78.3719 41.8282 78.0583 41.8453 77.749 41.8778L90.0463 5.42334H37.7869L50.0668 41.8463C49.8869 41.8354 49.7059 41.8282 49.5228 41.8282C44.578 41.8282 40.5696 45.8572 40.5696 50.8272C40.5696 54.8445 43.1889 58.2456 46.8045 59.4028C44.8948 62.7273 42.4922 65.7215 39.7643 68.3081C36.0548 71.8255 31.8095 74.4924 27.2182 76.1359C21.7516 73.3133 19.1699 67.0357 21.4994 61.5319C21.7624 60.9105 22.0309 60.2803 22.2877 59.6531C26.2479 58.724 29.199 55.1554 29.199 50.8918C29.199 45.9218 25.1905 41.8928 20.2457 41.8928C15.3006 41.8928 11.2921 45.9218 11.2921 50.8918C11.2921 53.9397 12.801 56.6312 15.107 58.2593C12.8908 63.3309 9.63353 68.6381 8.61865 74.7892C7.40236 82.1615 8.61491 89.9869 14.9583 94.406C29.7321 104.698 45.7688 88.0261 62.6775 83.8351C68.8052 82.3161 75.5318 82.5609 80.9307 79.418C84.9852 77.0578 87.6579 73.1465 88.4166 68.755C89.1658 64.417 88.0734 60.0977 85.5612 56.5953C86.8605 55.0333 87.6433 53.0226 87.6433 50.8272ZM58.4754 50.859C58.4754 50.8484 58.4764 50.8378 58.4764 50.8272C58.4764 47.5635 56.7474 44.7055 54.1604 43.128L63.9343 23.2633L73.7252 43.3386C71.3208 44.952 69.7364 47.7034 69.7364 50.8272C69.7364 50.8928 69.7402 50.9575 69.7415 51.0228L58.4754 50.859Z" fill="#00ADB5"/>
<path d="M89.8303 50.8272C89.8303 45.361 85.912 40.8 80.7505 39.8257L93.0968 3.22559H34.7372L47.1022 39.8999C42.1203 41.0144 38.3833 45.4892 38.3833 50.8272C38.3833 54.836 40.491 58.3571 43.65 60.3357C42.1305 62.6108 40.3287 64.7518 38.2639 66.7095C34.9896 69.8144 31.3414 72.1692 27.4085 73.7182C23.4473 71.2172 21.7727 66.5009 23.5119 62.3919L23.648 62.0705C23.7331 61.8694 23.8184 61.6676 23.9035 61.4659C28.2543 59.9411 31.386 55.7784 31.386 50.8918C31.386 44.7178 26.3885 39.6951 20.2458 39.6951C14.1031 39.6951 9.1059 44.7178 9.1059 50.8918C9.1059 54.0081 10.38 56.8299 12.4309 58.8619C12.059 59.6586 11.6681 60.4684 11.2663 61.298C9.391 65.1693 7.26564 69.5573 6.46169 74.4299C4.86503 84.1069 7.44017 91.8427 13.7128 96.2123C17.5192 98.8638 21.3845 99.9068 25.2743 99.9064C32.5989 99.9061 40.0079 96.2078 47.2546 92.5899C52.474 89.9845 57.8706 87.2902 63.2015 85.9689C65.185 85.4772 67.226 85.1814 69.3867 84.8681C73.6715 84.2468 78.1025 83.6046 82.0273 81.32C86.5764 78.6715 89.6908 74.2288 90.5713 69.1312C91.3273 64.7552 90.4172 60.3726 88.1983 56.6555C89.2329 54.9567 89.8303 52.961 89.8303 50.8272ZM85.4571 50.8272C85.4571 54.5775 82.4216 57.6288 78.6901 57.6288C74.9592 57.6288 71.9234 54.5775 71.9234 50.8272C71.9234 47.077 74.9592 44.026 78.6901 44.026C82.4216 44.026 85.4571 47.077 85.4571 50.8272ZM86.9963 7.62112L76.0939 39.9406C75.6213 40.0545 75.1606 40.1981 74.7132 40.3708L63.9432 18.2878L53.1418 40.2402C52.675 40.0784 52.1946 39.9454 51.702 39.8469L40.837 7.62112H86.9963ZM49.5232 44.026C53.2544 44.026 56.2899 47.077 56.2899 50.8272C56.2899 54.5775 53.2544 57.6288 49.5232 57.6288C45.7923 57.6288 42.7565 54.5775 42.7565 50.8272C42.7565 47.077 45.7923 44.026 49.5232 44.026ZM20.2458 44.0906C23.9773 44.0906 27.0128 47.1416 27.0128 50.8918C27.0128 54.6421 23.9773 57.6934 20.2458 57.6934C16.5149 57.6934 13.4791 54.6421 13.4791 50.8918C13.4791 47.1416 16.5149 44.0906 20.2458 44.0906ZM86.2624 68.3792C85.6041 72.1914 83.2613 75.5217 79.8353 77.516C76.6416 79.3753 72.8145 79.9303 68.7624 80.5174C66.5918 80.832 64.347 81.1575 62.1543 81.7013C56.3562 83.1382 50.7402 85.9419 45.3092 88.6533C34.4409 94.0791 25.0545 98.7646 16.2043 92.5995C9.72136 88.0836 10.0208 79.7278 10.776 75.149C11.4759 70.907 13.3682 67.0001 15.1982 63.2218C15.515 62.568 15.8226 61.9275 16.1243 61.2911C17.032 61.656 17.9973 61.9046 19.0033 62.0175C17.1406 68.197 20.0702 74.9158 26.2191 78.0909L27.0604 78.5255L27.9518 78.2064C32.8129 76.4666 37.2919 73.6741 41.265 69.9068C43.8334 67.4717 46.0404 64.7774 47.8551 61.8984C48.3995 61.9809 48.9564 62.0243 49.5232 62.0243C55.6659 62.0243 60.6634 57.0016 60.6634 50.8272C60.6634 47.5068 59.2165 44.5208 56.9247 42.4684L63.9258 28.2388L70.998 42.7396C68.8761 44.7797 67.5502 47.6497 67.5502 50.8272C67.5502 57.0016 72.5474 62.0243 78.6901 62.0243C81.0502 62.0243 83.2395 61.2809 85.0427 60.0177C86.2947 62.5937 86.7612 65.4921 86.2624 68.3792Z" fill="#00ADB5"/>
</g>
<g clip-path="url(#clip1_1360_524)">
<path d="M87.6433 47.6016C87.6433 42.6316 83.6348 38.6026 78.69 38.6026C78.3719 38.6026 78.0583 38.6197 77.749 38.6522L90.0463 2.19775H37.7869L50.0668 38.6208C49.8869 38.6098 49.7059 38.6026 49.5228 38.6026C44.578 38.6026 40.5696 42.6316 40.5696 47.6016C40.5696 51.6189 43.1889 55.0201 46.8045 56.1772C44.8948 59.5018 42.4922 62.4959 39.7643 65.0825C36.0548 68.5999 31.8095 71.2668 27.2182 72.9103C21.7516 70.0878 19.1699 63.8101 21.4994 58.3063C21.7624 57.6849 22.0309 57.0547 22.2877 56.4275C26.2479 55.4984 29.199 51.9298 29.199 47.6662C29.199 42.6962 25.1905 38.6673 20.2457 38.6673C15.3006 38.6673 11.2921 42.6962 11.2921 47.6662C11.2921 50.7141 12.801 53.4057 15.107 55.0337C12.8908 60.1053 9.63353 65.4125 8.61865 71.5636C7.40236 78.9359 8.61491 86.7613 14.9583 91.1804C29.7321 101.472 45.7688 84.8005 62.6775 80.6095C68.8052 79.0905 75.5318 79.3353 80.9307 76.1924C84.9852 73.8322 87.6579 69.9209 88.4166 65.5295C89.1658 61.1914 88.0734 56.8721 85.5612 53.3698C86.8605 51.8077 87.6433 49.797 87.6433 47.6016ZM58.4754 47.6334C58.4754 47.6228 58.4764 47.6122 58.4764 47.6016C58.4764 44.338 56.7474 41.4799 54.1604 39.9024L63.9343 20.0377L73.7252 40.1131C71.3208 41.7264 69.7364 44.4778 69.7364 47.6016C69.7364 47.6673 69.7402 47.7319 69.7415 47.7972L58.4754 47.6334Z" fill="#222831"/>
<path d="M89.8303 47.6016C89.8303 42.1354 85.912 37.5744 80.7505 36.6001L93.0968 0H34.7372L47.1022 36.6743C42.1203 37.7888 38.3833 42.2637 38.3833 47.6016C38.3833 51.6104 40.491 55.1315 43.65 57.1101C42.1305 59.3852 40.3287 61.5262 38.2639 63.4839C34.9896 66.5889 31.3414 68.9436 27.4085 70.4927C23.4473 67.9916 21.7727 63.2753 23.5119 59.1663L23.648 58.8449C23.7331 58.6438 23.8184 58.442 23.9035 58.2403C28.2543 56.7155 31.386 52.5528 31.386 47.6663C31.386 41.4922 26.3885 36.4695 20.2458 36.4695C14.1031 36.4695 9.1059 41.4922 9.1059 47.6663C9.1059 50.7825 10.38 53.6044 12.4309 55.6363C12.059 56.433 11.6681 57.2428 11.2663 58.0724C9.391 61.9437 7.26564 66.3317 6.46169 71.2043C4.86503 80.8814 7.44017 88.6171 13.7128 92.9867C17.5192 95.6382 21.3845 96.6812 25.2743 96.6808C32.5989 96.6805 40.0079 92.9822 47.2546 89.3643C52.474 86.7589 57.8706 84.0646 63.2015 82.7433C65.185 82.2516 67.226 81.9558 69.3867 81.6425C73.6715 81.0212 78.1025 80.379 82.0273 78.0944C86.5764 75.4459 89.6908 71.0032 90.5713 65.9056C91.3273 61.5296 90.4172 57.147 88.1983 53.43C89.2329 51.7311 89.8303 49.7354 89.8303 47.6016ZM85.4571 47.6016C85.4571 51.3519 82.4216 54.4032 78.6901 54.4032C74.9592 54.4032 71.9234 51.3519 71.9234 47.6016C71.9234 43.8514 74.9592 40.8004 78.6901 40.8004C82.4216 40.8004 85.4571 43.8514 85.4571 47.6016ZM86.9963 4.39553L76.0939 36.715C75.6213 36.8289 75.1606 36.9725 74.7132 37.1452L63.9432 15.0622L53.1418 37.0146C52.675 36.8528 52.1946 36.7198 51.702 36.6213L40.837 4.39553H86.9963ZM49.5232 40.8004C53.2544 40.8004 56.2899 43.8514 56.2899 47.6016C56.2899 51.3519 53.2544 54.4032 49.5232 54.4032C45.7923 54.4032 42.7565 51.3519 42.7565 47.6016C42.7565 43.8514 45.7923 40.8004 49.5232 40.8004ZM20.2458 40.865C23.9773 40.865 27.0128 43.916 27.0128 47.6663C27.0128 51.4165 23.9773 54.4678 20.2458 54.4678C16.5149 54.4678 13.4791 51.4165 13.4791 47.6663C13.4791 43.916 16.5149 40.865 20.2458 40.865ZM86.2624 65.1537C85.6041 68.9658 83.2613 72.2961 79.8353 74.2904C76.6416 76.1497 72.8145 76.7047 68.7624 77.2918C66.5918 77.6064 64.347 77.932 62.1543 78.4757C56.3562 79.9126 50.7402 82.7163 45.3092 85.4277C34.4409 90.8535 25.0545 95.5391 16.2043 89.3739C9.72136 84.858 10.0208 76.5022 10.776 71.9234C11.4759 67.6814 13.3682 63.7745 15.1982 59.9962C15.515 59.3424 15.8226 58.7019 16.1243 58.0655C17.032 58.4304 17.9973 58.679 19.0033 58.7919C17.1406 64.9714 20.0702 71.6902 26.2191 74.8653L27.0604 75.2999L27.9518 74.9809C32.8129 73.241 37.2919 70.4485 41.265 66.6812C43.8334 64.2461 46.0404 61.5518 47.8551 58.6729C48.3995 58.7553 48.9564 58.7987 49.5232 58.7987C55.6659 58.7987 60.6634 53.776 60.6634 47.6016C60.6634 44.2812 59.2165 41.2952 56.9247 39.2428L63.9258 25.0132L70.998 39.514C68.8761 41.5541 67.5502 44.4241 67.5502 47.6016C67.5502 53.776 72.5474 58.7987 78.6901 58.7987C81.0502 58.7987 83.2395 58.0553 85.0427 56.7921C86.2947 59.3681 86.7612 62.2665 86.2624 65.1537Z" fill="#EEEEEE"/>
</g>
<defs>
<clipPath id="clip0_1360_524">
<rect width="87.0968" height="96.7742" fill="white" transform="translate(6 3.22559)"/>
</clipPath>
<clipPath id="clip1_1360_524">
<rect width="87.0968" height="96.7742" fill="white" transform="translate(6)"/>
</clipPath>
</defs>
</svg>
