<svg width="100" height="100" viewBox="0 0 100 100" fill="none" xmlns="http://www.w3.org/2000/svg">
<g clip-path="url(#clip0_1372_57)">
<path d="M24.3639 99.7796H5.54252V35.6043H24.3639V99.7796ZM14.9431 26.8502C8.92462 26.8502 4.04297 21.5719 4.04297 15.1995C4.04297 12.1385 5.19137 9.20297 7.23554 7.03856C9.27971 4.87415 12.0522 3.6582 14.9431 3.6582C17.834 3.6582 20.6065 4.87415 22.6507 7.03856C24.6948 9.20297 25.8432 12.1385 25.8432 15.1995C25.8432 21.5719 20.9595 26.8502 14.9431 26.8502ZM94.8064 99.7796H76.0256V68.5395C76.0256 61.0942 75.8837 51.5462 66.24 51.5462C56.4544 51.5462 54.9548 59.6352 54.9548 68.0031V99.7796H36.1537V35.6043H54.205V44.3584H54.4685C56.9812 39.3162 63.1193 33.9951 72.2767 33.9951C91.3251 33.9951 94.8267 47.2764 94.8267 64.5272V99.7796H94.8064Z" fill="#00ADB5"/>
</g>
<g clip-path="url(#clip1_1372_57)">
<path d="M24.3639 96.1214H5.54252V31.9461H24.3639V96.1214ZM14.9431 23.192C8.92462 23.192 4.04297 17.9137 4.04297 11.5413C4.04297 8.48033 5.19137 5.54477 7.23554 3.38036C9.27971 1.21595 12.0522 0 14.9431 0C17.834 0 20.6065 1.21595 22.6507 3.38036C24.6948 5.54477 25.8432 8.48033 25.8432 11.5413C25.8432 17.9137 20.9595 23.192 14.9431 23.192ZM94.8064 96.1214H76.0256V64.8813C76.0256 57.436 75.8837 47.888 66.24 47.888C56.4544 47.888 54.9548 55.977 54.9548 64.3449V96.1214H36.1537V31.9461H54.205V40.7002H54.4685C56.9812 35.658 63.1193 30.3369 72.2767 30.3369C91.3251 30.3369 94.8267 43.6182 94.8267 60.869V96.1214H94.8064Z" fill="#EEEEEE"/>
</g>
<defs>
<clipPath id="clip0_1372_57">
<rect width="91.4009" height="96.3415" fill="white" transform="translate(4 3.6582)"/>
</clipPath>
<clipPath id="clip1_1372_57">
<rect width="91.4009" height="96.3415" fill="white" transform="translate(4)"/>
</clipPath>
</defs>
</svg>
