<svg width="100" height="100" viewBox="0 0 100 100" fill="none" xmlns="http://www.w3.org/2000/svg">
<path d="M46.0213 35.0413C46.0213 35.2689 45.7957 35.2689 45.7957 35.2689H45.5701C45.3446 35.2689 45.3446 35.0413 45.119 34.8137C45.119 34.8137 44.8934 34.5862 44.8934 34.3586C44.8934 34.131 44.8934 34.131 45.119 34.131L45.5701 34.3586C45.7957 34.5862 46.0213 34.8137 46.0213 35.0413ZM41.9611 32.7657C41.9611 31.6278 41.51 30.9451 40.8333 30.9451C40.8333 30.9451 40.8333 31.1727 40.6077 31.1727V31.6278H41.2844C41.2844 32.083 41.51 32.3105 41.51 32.7657H41.9611ZM49.8558 31.6278C50.307 31.6278 50.5325 32.083 50.7581 32.7657H51.2092C50.9837 32.5381 50.9837 32.3105 50.9837 32.083C50.9837 31.8554 50.9837 31.6278 50.7581 31.4003C50.5325 31.1727 50.307 30.9451 50.0814 30.9451C50.0814 30.9451 49.8558 31.1727 49.6303 31.1727C49.6303 31.4003 49.8558 31.4003 49.8558 31.6278ZM43.0889 35.2689C42.8634 35.2689 42.8634 35.2689 42.8634 35.0413C42.8634 34.8137 42.8634 34.5862 43.0889 34.3586C43.5401 34.3586 43.7656 34.131 43.7656 34.131C43.9912 34.131 43.9912 34.3586 43.9912 34.3586C43.9912 34.5862 43.7656 34.8137 43.3145 35.2689H43.0889ZM40.6077 35.0413C39.7055 34.5862 39.4799 33.9035 39.4799 32.7657C39.4799 32.083 39.4799 31.6278 39.931 31.1727C40.1566 30.7176 40.6077 30.49 41.0589 30.49C41.51 30.49 41.7355 30.7176 42.1867 31.1727C42.4122 31.8554 42.6378 32.5381 42.6378 33.2208V33.6759H42.8634V33.4483C43.0889 33.4483 43.0889 32.9932 43.0889 32.083C43.0889 31.4003 43.0889 30.7176 42.6378 30.0349C42.1867 29.3522 41.7355 28.8971 40.8333 28.8971C40.1566 28.8971 39.4799 29.3522 39.2543 30.0349C38.8032 30.9451 38.713 31.6278 38.713 32.7657C38.713 33.6759 39.0288 34.5862 39.931 35.4964C40.1566 35.2689 40.3822 35.2689 40.6077 35.0413ZM68.8032 67.1278C69.0288 67.1278 69.0288 67.0368 69.0288 66.832C69.0288 66.3314 68.8032 65.7397 68.1265 65.0798C67.4498 64.3971 66.322 63.9647 64.9686 63.7826C64.7431 63.7599 64.5175 63.7599 64.5175 63.7599C64.2919 63.7144 64.2919 63.7144 64.0664 63.7144C63.8408 63.6916 63.3897 63.6461 63.1641 63.6006C63.8408 61.4842 64.0664 59.6182 64.0664 57.9798C64.0664 55.7041 63.6152 54.1112 62.713 52.7458C61.8107 51.3804 60.9085 50.6977 59.7807 50.4701C59.5551 50.6977 59.5551 50.6977 59.5551 50.9253C60.6829 51.3804 61.8107 52.2907 62.4874 53.656C63.1641 55.249 63.3897 56.6144 63.3897 58.2073C63.3897 59.4817 63.1641 61.3705 62.2619 63.7826C61.3596 64.1467 60.4573 64.9887 59.7807 66.3086C59.7807 66.5134 59.7807 66.6272 60.0062 66.6272C60.0062 66.6272 60.2318 66.4224 60.4573 66.0355C60.9085 65.6487 61.134 65.2618 61.5852 64.875C62.2619 64.4881 62.713 64.2833 63.3897 64.2833C64.5175 64.2833 65.6453 64.4426 66.322 64.7612C67.2243 65.057 67.6754 65.3756 67.901 65.7397C68.1265 66.081 68.3521 66.3996 68.5776 66.6955C68.5776 66.9913 68.8032 67.1278 68.8032 67.1278ZM48.0513 34.131C47.8258 33.9035 47.8258 33.4483 47.8258 32.9932C47.8258 32.083 47.8258 31.6278 48.2769 30.9451C48.728 30.49 49.1792 30.2625 49.6303 30.2625C50.307 30.2625 50.7581 30.7176 51.2092 31.1727C51.4348 31.8554 51.6604 32.3105 51.6604 32.9932C51.6604 34.131 51.2092 34.8137 50.307 35.0413C50.307 35.0413 50.5325 35.2689 50.7581 35.2689C51.2092 35.2689 51.4348 35.4964 51.8859 35.724C52.1115 34.3586 52.337 33.4483 52.337 32.3105C52.337 30.9451 52.1115 30.0349 51.6604 29.3522C50.9837 28.6695 50.307 28.4419 49.4047 28.4419C48.728 28.4419 48.0513 28.6695 47.3746 29.1246C46.9235 29.8073 46.698 30.2625 46.698 30.9451C46.698 32.083 46.9235 32.9932 47.3746 33.9035C47.6002 33.9035 47.8258 34.131 48.0513 34.131ZM50.7581 37.7721C47.8258 39.8201 45.5701 40.7304 43.7656 40.7304C42.1867 40.7304 40.6077 40.0477 39.2543 38.9099C39.4799 39.365 39.7055 39.8201 39.931 40.0477L41.2844 41.4131C42.1867 42.3233 43.3145 42.7785 44.4423 42.7785C46.0213 42.7785 47.8258 41.8682 50.0814 40.2753L52.1115 38.9099C52.5626 38.4548 53.0137 37.9996 53.0137 37.3169C53.0137 37.0894 53.0137 36.8618 52.7882 36.8618C52.5626 36.4067 51.4348 35.724 49.1792 35.0413C47.1491 34.131 45.5701 33.6759 44.6679 33.6759C43.9912 33.6759 42.8634 34.131 41.2844 35.0413C39.931 35.9516 39.0288 36.8618 39.0288 37.7721C39.0288 37.7721 39.2543 37.9996 39.4799 38.4548C40.8333 39.5926 42.1867 40.2753 43.5401 40.2753C45.3446 40.2753 47.6002 39.365 50.5325 37.0894V37.5445C50.7581 37.5445 50.7581 37.7721 50.7581 37.7721ZM55.9461 83.74C56.8483 85.4513 58.4273 86.3115 60.2318 86.3115C60.6829 86.3115 61.134 86.2432 61.5852 86.1067C62.0363 86.0156 62.4874 85.8564 62.713 85.6743C62.9386 85.515 63.1641 85.3557 63.3897 85.1737C63.8408 85.0144 63.8408 84.9006 64.0664 84.7868L67.901 81.4416C68.8032 80.7157 69.7055 80.0808 70.8333 79.5301C71.7355 78.9839 72.6378 78.6198 73.0889 78.415C73.7656 78.233 74.2167 77.9599 74.6679 77.5958C74.8934 77.2544 75.119 76.8221 75.119 76.2759C75.119 75.616 74.6679 75.1153 74.2167 74.7512C73.7656 74.3871 73.3145 74.1368 72.8634 73.9775C72.4122 73.8182 71.9611 73.4541 71.2844 72.8397C70.8333 72.248 70.3822 71.4288 70.1566 70.3592L69.931 69.0394C69.7055 68.425 69.7055 67.9698 69.4799 67.7195C69.4799 67.6512 69.4799 67.6285 69.2543 67.6285C69.0288 67.6285 68.5776 67.8333 68.3521 68.2201C67.901 68.607 67.4498 69.0394 66.9987 69.4945C66.7731 69.9496 66.0964 70.3592 65.6453 70.7461C64.9686 71.133 64.2919 71.3378 63.8408 71.3378C62.0363 71.3378 61.134 70.8371 60.4573 69.8586C60.0062 69.1304 59.7807 68.2884 59.5551 67.3326C59.104 66.9458 58.8784 66.741 58.4273 66.741C57.2995 66.741 56.8483 67.9243 56.8483 70.3137V77.391C56.8483 77.5958 56.6228 78.0509 56.6228 78.7564C56.3972 79.4618 56.3972 80.2628 56.3972 81.1685L55.9461 83.6945V83.7332M23.2393 82.5294C25.337 82.8389 27.7506 83.5011 30.4799 84.5115C33.2092 85.5127 34.8784 86.0361 35.4874 86.0361C37.0664 86.0361 38.3746 85.3307 39.4573 83.9676C39.6829 83.5261 39.6829 83.0073 39.6829 82.411C39.6829 80.2606 38.3972 77.5412 35.8258 74.2415L34.2919 72.1707C33.9761 71.7383 33.5927 71.0783 33.0964 70.1908C32.6228 69.3033 32.1942 68.6207 31.8558 68.1428C31.5626 67.6194 31.0889 67.096 30.4799 66.5726C29.8934 66.0492 29.2167 65.7078 28.4724 65.5258C27.525 65.7078 26.8709 66.0264 26.5551 66.4588C26.2393 66.8912 26.0589 67.3691 26.0137 67.8697C25.9461 68.3476 25.8107 68.6662 25.5852 68.8255C25.3596 68.962 24.9761 69.0758 24.4573 69.1896C24.3446 69.1896 24.1416 69.1896 23.8483 69.2123H23.2393C22.0438 69.2123 21.2318 69.3489 20.8032 69.5764C20.2393 70.2364 19.9461 70.9873 19.9461 71.7838C19.9461 72.1479 20.0363 72.7623 20.2167 73.6271C20.3972 74.4691 20.4874 75.1517 20.4874 75.6296C20.4874 76.5626 20.2167 77.4957 19.6528 78.4287C19.0889 79.4072 18.7957 80.1354 18.7957 80.6542C19.0213 81.5372 20.51 82.1584 23.2393 82.5225M30.7506 61.837C30.7506 60.2668 31.1566 58.5373 31.9912 56.4892C32.8032 54.4411 33.6152 53.0758 34.4047 52.1655C34.3596 51.9379 34.2468 51.9379 34.0664 51.9379L33.8408 51.7104C33.1867 52.3931 32.3972 53.986 31.4498 56.2617C30.5025 58.3097 30.0062 60.1985 30.0062 61.5867C30.0062 62.6107 30.2543 63.4982 30.7055 64.2719C31.2017 65.0229 32.3972 66.1152 34.2919 67.5033L36.6829 69.0735C39.2318 71.3036 40.5852 72.8511 40.5852 73.7613C40.5852 74.2392 40.3596 74.7171 39.6829 75.2405C39.2318 75.7867 38.6228 76.0597 38.104 76.0597C38.0589 76.0597 38.0363 76.1052 38.0363 76.219C38.0363 76.2418 38.2619 76.6969 38.7355 77.5844C39.6829 78.8815 41.713 79.5187 44.4198 79.5187C49.3822 79.5187 53.2167 77.4706 56.1491 73.3745C56.1491 72.2366 56.1491 71.5312 55.9235 71.2354V70.3934C55.9235 68.9142 56.1491 67.7991 56.6002 67.0709C57.0513 66.3427 57.5025 66.0014 58.1792 66.0014C58.6303 66.0014 59.0814 66.1607 59.5325 66.502C59.7581 64.7498 59.7581 63.2251 59.7581 61.8597C59.7581 59.7889 59.7581 58.0822 59.307 56.4892C59.0814 55.1238 58.6303 53.986 58.1792 53.0758L56.8258 51.0277C56.3746 50.345 56.1491 49.6623 55.6979 48.9796C55.4724 48.0693 55.2468 47.3866 55.2468 46.2488C54.5701 45.111 54.119 43.9732 53.4423 42.8354C52.9912 41.6975 52.5401 40.5597 52.0889 39.6495L50.0589 41.2424C47.8032 42.8354 45.9987 43.5181 44.4198 43.5181C43.0664 43.5181 41.9386 43.2905 41.2619 42.3802L39.9085 41.2424C39.9085 41.9251 39.6829 42.8354 39.2318 43.7456L37.8107 46.4764C37.1792 48.0693 36.8408 48.9796 36.7731 49.6623C36.6829 50.1174 36.6152 50.5725 36.5701 50.5725L34.8784 53.986C33.0513 57.3995 32.1265 60.5626 32.1265 63.1796C32.1265 63.703 32.1716 64.2492 32.2619 64.7953C31.2468 64.0899 30.7506 63.1113 30.7506 61.837ZM46.901 83.3645C43.9686 83.3645 41.713 83.765 40.134 84.5592V84.491C39.0062 85.8564 37.7431 86.5618 35.9837 86.5618C34.8784 86.5618 33.1416 86.1294 30.7957 85.2647C28.4273 84.4455 26.3295 83.8174 24.5025 83.4032C24.322 83.3509 23.916 83.2735 23.2619 83.1688C22.6303 83.0664 22.0438 82.9617 21.525 82.8571C21.0513 82.7547 20.51 82.5999 19.9235 82.3906C19.3596 82.2108 18.9085 81.9764 18.5701 81.6919C18.2589 81.4052 18.1055 81.0821 18.1055 80.7202C18.1055 80.3561 18.1822 79.967 18.3355 79.5528C18.4799 79.3025 18.6378 79.0522 18.7957 78.8246C18.9536 78.5743 19.0889 78.3467 19.1792 78.1192C19.3145 77.9144 19.4047 77.7096 19.4949 77.482C19.5852 77.2772 19.6754 77.0724 19.7205 76.8221C19.7656 76.5945 19.8107 76.3669 19.8107 76.1394C19.8107 75.9118 19.7205 75.2291 19.5401 74.023C19.3596 72.8397 19.2694 72.0887 19.2694 71.7701C19.2694 70.7689 19.4949 69.9724 19.9912 69.4035C20.4874 68.8346 20.9611 68.5387 21.4573 68.5387H24.0513C24.2543 68.5387 24.5701 68.425 25.0438 68.1519C25.2017 67.7878 25.337 67.4919 25.4273 67.2189C25.5401 66.9458 25.5852 66.741 25.6303 66.65C25.6754 66.5134 25.7205 66.3769 25.7656 66.2631C25.8558 66.1038 25.9686 65.9217 26.1265 65.7397C25.9461 65.5121 25.8558 65.2163 25.8558 64.8522C25.8558 64.6019 25.8558 64.3743 25.901 64.2378C25.901 63.4185 26.2844 62.258 27.0964 60.7333L27.8859 59.2996C28.5401 58.0708 29.0363 57.1605 29.3972 56.2503C29.7807 55.34 30.1867 53.9746 30.6378 52.1541C30.9987 50.5612 31.8558 48.9682 33.2092 47.3753L34.901 45.3272C36.0739 43.9618 36.8408 42.824 37.2694 41.9137C37.698 41.0035 37.9235 39.8657 37.9235 38.9554C37.9235 38.5003 37.8107 37.1349 37.5626 34.8592C37.337 32.5836 37.2243 30.308 37.2243 28.2599C37.2243 26.6669 37.3596 25.5291 37.6528 24.3913C37.9461 23.2535 38.4649 22.1157 39.2318 21.2054C39.9085 20.2951 40.8107 19.3849 42.1641 18.9298C43.5175 18.4746 45.0964 18.2471 46.901 18.2471C47.5776 18.2471 48.2543 18.2471 48.931 18.4746C49.6077 18.4746 50.51 18.7022 51.6378 19.1573C52.5401 19.6125 53.4423 20.0676 54.119 20.7503C55.0213 21.433 55.6979 22.5708 56.3746 23.7086C56.8258 25.074 57.2769 26.4394 57.5025 28.2599C57.728 29.3977 57.728 30.5355 57.9536 32.1285C57.9536 33.4939 58.1792 34.4041 58.1792 35.0868C58.4047 35.7695 58.4047 36.6798 58.6303 37.8176C58.8558 38.7278 59.0814 39.6381 59.5325 40.3208C59.9837 41.231 60.4348 42.1413 61.1115 43.0516C61.7882 44.1894 62.6904 45.3272 63.5927 46.6926C65.6228 48.9682 67.2017 51.4714 68.104 53.9746C69.2318 56.2503 69.9085 59.2086 69.9085 62.3717C69.9085 63.9419 69.6829 65.4666 69.2318 66.9458C69.6829 66.9458 69.9085 67.1278 70.134 67.4464C70.3596 67.765 70.5852 68.4477 70.8107 69.5173L71.0363 71.2012C71.2619 71.7019 71.4874 72.1798 72.1641 72.5894C72.6152 72.999 73.0664 73.3403 73.7431 73.6134C74.1942 73.841 74.8709 74.1596 75.322 74.5692C75.7731 75.0243 75.9987 75.5022 75.9987 76.0028C75.9987 76.7766 75.7731 77.3455 75.322 77.7551C74.8709 78.2102 74.4198 78.5288 73.7431 78.7336C73.2919 78.9612 72.3897 79.4163 71.0363 80.058C69.9085 80.7316 68.7807 81.5486 67.6528 82.5157L65.3972 84.4523C64.4949 85.3398 63.5927 85.977 62.916 86.3638C62.2393 86.7734 61.337 86.9782 60.4348 86.9782L58.8558 86.7962C57.0513 86.3183 55.9235 85.4081 55.2468 84.0199C51.6378 83.5784 48.7055 83.36 46.901 83.36" fill="#00ADB5"/>
<path d="M46.0213 34.0413C46.0213 34.2689 45.7957 34.2689 45.7957 34.2689H45.5701C45.3446 34.2689 45.3446 34.0413 45.119 33.8137C45.119 33.8137 44.8934 33.5862 44.8934 33.3586C44.8934 33.131 44.8934 33.131 45.119 33.131L45.5701 33.3586C45.7957 33.5862 46.0213 33.8137 46.0213 34.0413ZM41.9611 31.7657C41.9611 30.6278 41.51 29.9451 40.8333 29.9451C40.8333 29.9451 40.8333 30.1727 40.6077 30.1727V30.6278H41.2844C41.2844 31.083 41.51 31.3105 41.51 31.7657H41.9611ZM49.8558 30.6278C50.307 30.6278 50.5325 31.083 50.7581 31.7657H51.2092C50.9837 31.5381 50.9837 31.3105 50.9837 31.083C50.9837 30.8554 50.9837 30.6278 50.7581 30.4003C50.5325 30.1727 50.307 29.9451 50.0814 29.9451C50.0814 29.9451 49.8558 30.1727 49.6303 30.1727C49.6303 30.4003 49.8558 30.4003 49.8558 30.6278ZM43.0889 34.2689C42.8634 34.2689 42.8634 34.2689 42.8634 34.0413C42.8634 33.8137 42.8634 33.5862 43.0889 33.3586C43.5401 33.3586 43.7656 33.131 43.7656 33.131C43.9912 33.131 43.9912 33.3586 43.9912 33.3586C43.9912 33.5862 43.7656 33.8137 43.3145 34.2689H43.0889ZM40.6077 34.0413C39.7055 33.5862 39.4799 32.9035 39.4799 31.7657C39.4799 31.083 39.4799 30.6278 39.931 30.1727C40.1566 29.7176 40.6077 29.49 41.0589 29.49C41.51 29.49 41.7355 29.7176 42.1867 30.1727C42.4122 30.8554 42.6378 31.5381 42.6378 32.2208V32.6759H42.8634V32.4483C43.0889 32.4483 43.0889 31.9932 43.0889 31.083C43.0889 30.4003 43.0889 29.7176 42.6378 29.0349C42.1867 28.3522 41.7355 27.8971 40.8333 27.8971C40.1566 27.8971 39.4799 28.3522 39.2543 29.0349C38.8032 29.9451 38.713 30.6278 38.713 31.7657C38.713 32.6759 39.0288 33.5862 39.931 34.4964C40.1566 34.2689 40.3822 34.2689 40.6077 34.0413ZM68.8032 66.1278C69.0288 66.1278 69.0288 66.0368 69.0288 65.832C69.0288 65.3314 68.8032 64.7397 68.1265 64.0798C67.4498 63.3971 66.322 62.9647 64.9686 62.7826C64.7431 62.7599 64.5175 62.7599 64.5175 62.7599C64.2919 62.7144 64.2919 62.7144 64.0664 62.7144C63.8408 62.6916 63.3897 62.6461 63.1641 62.6006C63.8408 60.4842 64.0664 58.6182 64.0664 56.9798C64.0664 54.7041 63.6152 53.1112 62.713 51.7458C61.8107 50.3804 60.9085 49.6977 59.7807 49.4701C59.5551 49.6977 59.5551 49.6977 59.5551 49.9253C60.6829 50.3804 61.8107 51.2907 62.4874 52.656C63.1641 54.249 63.3897 55.6144 63.3897 57.2073C63.3897 58.4817 63.1641 60.3705 62.2619 62.7826C61.3596 63.1467 60.4573 63.9887 59.7807 65.3086C59.7807 65.5134 59.7807 65.6272 60.0062 65.6272C60.0062 65.6272 60.2318 65.4224 60.4573 65.0355C60.9085 64.6487 61.134 64.2618 61.5852 63.875C62.2619 63.4881 62.713 63.2833 63.3897 63.2833C64.5175 63.2833 65.6453 63.4426 66.322 63.7612C67.2243 64.057 67.6754 64.3756 67.901 64.7397C68.1265 65.081 68.3521 65.3996 68.5776 65.6955C68.5776 65.9913 68.8032 66.1278 68.8032 66.1278ZM48.0513 33.131C47.8258 32.9035 47.8258 32.4483 47.8258 31.9932C47.8258 31.083 47.8258 30.6278 48.2769 29.9451C48.728 29.49 49.1792 29.2625 49.6303 29.2625C50.307 29.2625 50.7581 29.7176 51.2092 30.1727C51.4348 30.8554 51.6604 31.3105 51.6604 31.9932C51.6604 33.131 51.2092 33.8137 50.307 34.0413C50.307 34.0413 50.5325 34.2689 50.7581 34.2689C51.2092 34.2689 51.4348 34.4964 51.8859 34.724C52.1115 33.3586 52.337 32.4483 52.337 31.3105C52.337 29.9451 52.1115 29.0349 51.6604 28.3522C50.9837 27.6695 50.307 27.4419 49.4047 27.4419C48.728 27.4419 48.0513 27.6695 47.3746 28.1246C46.9235 28.8073 46.698 29.2625 46.698 29.9451C46.698 31.083 46.9235 31.9932 47.3746 32.9035C47.6002 32.9035 47.8258 33.131 48.0513 33.131ZM50.7581 36.7721C47.8258 38.8201 45.5701 39.7304 43.7656 39.7304C42.1867 39.7304 40.6077 39.0477 39.2543 37.9099C39.4799 38.365 39.7055 38.8201 39.931 39.0477L41.2844 40.4131C42.1867 41.3233 43.3145 41.7785 44.4423 41.7785C46.0213 41.7785 47.8258 40.8682 50.0814 39.2753L52.1115 37.9099C52.5626 37.4548 53.0137 36.9996 53.0137 36.3169C53.0137 36.0894 53.0137 35.8618 52.7882 35.8618C52.5626 35.4067 51.4348 34.724 49.1792 34.0413C47.1491 33.131 45.5701 32.6759 44.6679 32.6759C43.9912 32.6759 42.8634 33.131 41.2844 34.0413C39.931 34.9516 39.0288 35.8618 39.0288 36.7721C39.0288 36.7721 39.2543 36.9996 39.4799 37.4548C40.8333 38.5926 42.1867 39.2753 43.5401 39.2753C45.3446 39.2753 47.6002 38.365 50.5325 36.0894V36.5445C50.7581 36.5445 50.7581 36.7721 50.7581 36.7721ZM55.9461 82.74C56.8483 84.4513 58.4273 85.3115 60.2318 85.3115C60.6829 85.3115 61.134 85.2432 61.5852 85.1067C62.0363 85.0156 62.4874 84.8564 62.713 84.6743C62.9386 84.515 63.1641 84.3557 63.3897 84.1737C63.8408 84.0144 63.8408 83.9006 64.0664 83.7868L67.901 80.4416C68.8032 79.7157 69.7055 79.0808 70.8333 78.5301C71.7355 77.9839 72.6378 77.6198 73.0889 77.415C73.7656 77.233 74.2167 76.9599 74.6679 76.5958C74.8934 76.2544 75.119 75.8221 75.119 75.2759C75.119 74.616 74.6679 74.1153 74.2167 73.7512C73.7656 73.3871 73.3145 73.1368 72.8634 72.9775C72.4122 72.8182 71.9611 72.4541 71.2844 71.8397C70.8333 71.248 70.3822 70.4288 70.1566 69.3592L69.931 68.0394C69.7055 67.425 69.7055 66.9698 69.4799 66.7195C69.4799 66.6512 69.4799 66.6285 69.2543 66.6285C69.0288 66.6285 68.5776 66.8333 68.3521 67.2201C67.901 67.607 67.4498 68.0394 66.9987 68.4945C66.7731 68.9496 66.0964 69.3592 65.6453 69.7461C64.9686 70.133 64.2919 70.3378 63.8408 70.3378C62.0363 70.3378 61.134 69.8371 60.4573 68.8586C60.0062 68.1304 59.7807 67.2884 59.5551 66.3326C59.104 65.9458 58.8784 65.741 58.4273 65.741C57.2995 65.741 56.8483 66.9243 56.8483 69.3137V76.391C56.8483 76.5958 56.6228 77.0509 56.6228 77.7564C56.3972 78.4618 56.3972 79.2628 56.3972 80.1685L55.9461 82.6945V82.7332M23.2393 81.5294C25.337 81.8389 27.7506 82.5011 30.4799 83.5115C33.2092 84.5127 34.8784 85.0361 35.4874 85.0361C37.0664 85.0361 38.3746 84.3307 39.4573 82.9676C39.6829 82.5261 39.6829 82.0073 39.6829 81.411C39.6829 79.2606 38.3972 76.5412 35.8258 73.2415L34.2919 71.1707C33.9761 70.7383 33.5927 70.0783 33.0964 69.1908C32.6228 68.3033 32.1942 67.6207 31.8558 67.1428C31.5626 66.6194 31.0889 66.096 30.4799 65.5726C29.8934 65.0492 29.2167 64.7078 28.4724 64.5258C27.525 64.7078 26.8709 65.0264 26.5551 65.4588C26.2393 65.8912 26.0589 66.3691 26.0137 66.8697C25.9461 67.3476 25.8107 67.6662 25.5852 67.8255C25.3596 67.962 24.9761 68.0758 24.4573 68.1896C24.3446 68.1896 24.1416 68.1896 23.8483 68.2123H23.2393C22.0438 68.2123 21.2318 68.3489 20.8032 68.5764C20.2393 69.2364 19.9461 69.9873 19.9461 70.7838C19.9461 71.1479 20.0363 71.7623 20.2167 72.6271C20.3972 73.4691 20.4874 74.1517 20.4874 74.6296C20.4874 75.5626 20.2167 76.4957 19.6528 77.4287C19.0889 78.4072 18.7957 79.1354 18.7957 79.6542C19.0213 80.5372 20.51 81.1584 23.2393 81.5225M30.7506 60.837C30.7506 59.2668 31.1566 57.5373 31.9912 55.4892C32.8032 53.4411 33.6152 52.0758 34.4047 51.1655C34.3596 50.9379 34.2468 50.9379 34.0664 50.9379L33.8408 50.7104C33.1867 51.3931 32.3972 52.986 31.4498 55.2617C30.5025 57.3097 30.0062 59.1985 30.0062 60.5867C30.0062 61.6107 30.2543 62.4982 30.7055 63.2719C31.2017 64.0229 32.3972 65.1152 34.2919 66.5033L36.6829 68.0735C39.2318 70.3036 40.5852 71.8511 40.5852 72.7613C40.5852 73.2392 40.3596 73.7171 39.6829 74.2405C39.2318 74.7867 38.6228 75.0597 38.104 75.0597C38.0589 75.0597 38.0363 75.1052 38.0363 75.219C38.0363 75.2418 38.2619 75.6969 38.7355 76.5844C39.6829 77.8815 41.713 78.5187 44.4198 78.5187C49.3822 78.5187 53.2167 76.4706 56.1491 72.3745C56.1491 71.2366 56.1491 70.5312 55.9235 70.2354V69.3934C55.9235 67.9142 56.1491 66.7991 56.6002 66.0709C57.0513 65.3427 57.5025 65.0014 58.1792 65.0014C58.6303 65.0014 59.0814 65.1607 59.5325 65.502C59.7581 63.7498 59.7581 62.2251 59.7581 60.8597C59.7581 58.7889 59.7581 57.0822 59.307 55.4892C59.0814 54.1238 58.6303 52.986 58.1792 52.0758L56.8258 50.0277C56.3746 49.345 56.1491 48.6623 55.6979 47.9796C55.4724 47.0693 55.2468 46.3866 55.2468 45.2488C54.5701 44.111 54.119 42.9732 53.4423 41.8354C52.9912 40.6975 52.5401 39.5597 52.0889 38.6495L50.0589 40.2424C47.8032 41.8354 45.9987 42.5181 44.4198 42.5181C43.0664 42.5181 41.9386 42.2905 41.2619 41.3802L39.9085 40.2424C39.9085 40.9251 39.6829 41.8354 39.2318 42.7456L37.8107 45.4764C37.1792 47.0693 36.8408 47.9796 36.7731 48.6623C36.6829 49.1174 36.6152 49.5725 36.5701 49.5725L34.8784 52.986C33.0513 56.3995 32.1265 59.5626 32.1265 62.1796C32.1265 62.703 32.1716 63.2492 32.2619 63.7953C31.2468 63.0899 30.7506 62.1113 30.7506 60.837ZM46.901 82.3645C43.9686 82.3645 41.713 82.765 40.134 83.5592V83.491C39.0062 84.8564 37.7431 85.5618 35.9837 85.5618C34.8784 85.5618 33.1416 85.1294 30.7957 84.2647C28.4273 83.4455 26.3295 82.8174 24.5025 82.4032C24.322 82.3509 23.916 82.2735 23.2619 82.1688C22.6303 82.0664 22.0438 81.9617 21.525 81.8571C21.0513 81.7547 20.51 81.5999 19.9235 81.3906C19.3596 81.2108 18.9085 80.9764 18.5701 80.6919C18.2589 80.4052 18.1055 80.0821 18.1055 79.7202C18.1055 79.3561 18.1822 78.967 18.3355 78.5528C18.4799 78.3025 18.6378 78.0522 18.7957 77.8246C18.9536 77.5743 19.0889 77.3467 19.1792 77.1192C19.3145 76.9144 19.4047 76.7096 19.4949 76.482C19.5852 76.2772 19.6754 76.0724 19.7205 75.8221C19.7656 75.5945 19.8107 75.3669 19.8107 75.1394C19.8107 74.9118 19.7205 74.2291 19.5401 73.023C19.3596 71.8397 19.2694 71.0887 19.2694 70.7701C19.2694 69.7689 19.4949 68.9724 19.9912 68.4035C20.4874 67.8346 20.9611 67.5387 21.4573 67.5387H24.0513C24.2543 67.5387 24.5701 67.425 25.0438 67.1519C25.2017 66.7878 25.337 66.4919 25.4273 66.2189C25.5401 65.9458 25.5852 65.741 25.6303 65.65C25.6754 65.5134 25.7205 65.3769 25.7656 65.2631C25.8558 65.1038 25.9686 64.9217 26.1265 64.7397C25.9461 64.5121 25.8558 64.2163 25.8558 63.8522C25.8558 63.6019 25.8558 63.3743 25.901 63.2378C25.901 62.4185 26.2844 61.258 27.0964 59.7333L27.8859 58.2996C28.5401 57.0708 29.0363 56.1605 29.3972 55.2503C29.7807 54.34 30.1867 52.9746 30.6378 51.1541C30.9987 49.5612 31.8558 47.9682 33.2092 46.3753L34.901 44.3272C36.0739 42.9618 36.8408 41.824 37.2694 40.9137C37.698 40.0035 37.9235 38.8657 37.9235 37.9554C37.9235 37.5003 37.8107 36.1349 37.5626 33.8592C37.337 31.5836 37.2243 29.308 37.2243 27.2599C37.2243 25.6669 37.3596 24.5291 37.6528 23.3913C37.9461 22.2535 38.4649 21.1157 39.2318 20.2054C39.9085 19.2951 40.8107 18.3849 42.1641 17.9298C43.5175 17.4746 45.0964 17.2471 46.901 17.2471C47.5776 17.2471 48.2543 17.2471 48.931 17.4746C49.6077 17.4746 50.51 17.7022 51.6378 18.1573C52.5401 18.6125 53.4423 19.0676 54.119 19.7503C55.0213 20.433 55.6979 21.5708 56.3746 22.7086C56.8258 24.074 57.2769 25.4394 57.5025 27.2599C57.728 28.3977 57.728 29.5355 57.9536 31.1285C57.9536 32.4939 58.1792 33.4041 58.1792 34.0868C58.4047 34.7695 58.4047 35.6798 58.6303 36.8176C58.8558 37.7278 59.0814 38.6381 59.5325 39.3208C59.9837 40.231 60.4348 41.1413 61.1115 42.0516C61.7882 43.1894 62.6904 44.3272 63.5927 45.6926C65.6228 47.9682 67.2017 50.4714 68.104 52.9746C69.2318 55.2503 69.9085 58.2086 69.9085 61.3717C69.9085 62.9419 69.6829 64.4666 69.2318 65.9458C69.6829 65.9458 69.9085 66.1278 70.134 66.4464C70.3596 66.765 70.5852 67.4477 70.8107 68.5173L71.0363 70.2012C71.2619 70.7019 71.4874 71.1798 72.1641 71.5894C72.6152 71.999 73.0664 72.3403 73.7431 72.6134C74.1942 72.841 74.8709 73.1596 75.322 73.5692C75.7731 74.0243 75.9987 74.5022 75.9987 75.0028C75.9987 75.7766 75.7731 76.3455 75.322 76.7551C74.8709 77.2102 74.4198 77.5288 73.7431 77.7336C73.2919 77.9612 72.3897 78.4163 71.0363 79.058C69.9085 79.7316 68.7807 80.5486 67.6528 81.5157L65.3972 83.4523C64.4949 84.3398 63.5927 84.977 62.916 85.3638C62.2393 85.7734 61.337 85.9782 60.4348 85.9782L58.8558 85.7962C57.0513 85.3183 55.9235 84.4081 55.2468 83.0199C51.6378 82.5784 48.7055 82.36 46.901 82.36" fill="#EEEEEE"/>
</svg>
