<svg width="100" height="100" viewBox="0 0 100 100" fill="none" xmlns="http://www.w3.org/2000/svg">
<g clip-path="url(#clip0_1360_475)">
<path d="M50.3871 99.9998C77.1105 99.9998 98.7742 78.3361 98.7742 51.6127C98.7742 24.8892 77.1105 3.22559 50.3871 3.22559C23.6636 3.22559 2 24.8892 2 51.6127C2 78.3361 23.6636 99.9998 50.3871 99.9998Z" fill="#00ADB5"/>
<path d="M63.322 45.7002C60.2657 32.2113 53.0426 27.7762 52.2648 26.0817C51.4142 24.8862 50.5523 22.7598 50.5523 22.7598C50.5382 22.7239 50.5155 22.6606 50.489 22.5991C50.4011 23.7946 50.3558 24.2558 49.2255 25.4617C47.4752 26.8302 38.4952 34.3651 37.7647 49.6902C37.0833 63.9833 48.0895 72.5002 49.578 73.5861L49.7471 73.7061V73.6957C49.7566 73.7675 50.2197 77.0979 50.5448 80.6268H51.711C51.9846 78.1323 52.3947 75.6548 52.9396 73.2052L53.0341 73.1438C53.6999 72.6664 54.3347 72.1471 54.9346 71.5892L55.0026 71.5277C58.1667 68.6047 63.855 61.8437 63.7992 51.0643C63.7875 49.2662 63.6278 47.4721 63.322 45.7002ZM50.421 65.5162C50.421 65.5162 50.421 45.4696 51.0825 45.4734C51.5985 45.4734 52.2667 71.3312 52.2667 71.3312C51.3481 71.2206 50.421 67.0756 50.421 65.5162Z" fill="white"/>
</g>
<g clip-path="url(#clip1_1360_475)">
<path d="M50.3871 96.7742C77.1105 96.7742 98.7742 75.1105 98.7742 48.3871C98.7742 21.6636 77.1105 0 50.3871 0C23.6636 0 2 21.6636 2 48.3871C2 75.1105 23.6636 96.7742 50.3871 96.7742Z" fill="#EEEEEE"/>
<path d="M63.072 40.8428C60.0157 27.3539 52.7926 22.9187 52.0148 21.2242C51.1642 20.0287 50.3023 17.9024 50.3023 17.9024C50.2882 17.8664 50.2655 17.8031 50.239 17.7417C50.1511 18.9372 50.1058 19.3984 48.9755 20.6043C47.2252 21.9727 38.2452 29.5077 37.5147 44.8328C36.8333 59.1259 47.8395 67.6428 49.328 68.7287L49.4971 68.8487V68.8383C49.5066 68.9101 49.9697 72.2405 50.2948 75.7694H51.461C51.7346 73.2749 52.1447 70.7973 52.6896 68.3478L52.7841 68.2864C53.4499 67.809 54.0847 67.2897 54.6846 66.7317L54.7526 66.6703C57.9167 63.7472 63.605 56.9863 63.5492 46.2069C63.5375 44.4088 63.3778 42.6147 63.072 40.8428ZM50.171 60.6588C50.171 60.6588 50.171 40.6122 50.8325 40.6159C51.3485 40.6159 52.0167 66.4737 52.0167 66.4737C51.0981 66.3632 50.171 62.2181 50.171 60.6588Z" fill="#00ADB5"/>
<path d="M63.072 44.0879C60.0157 30.599 52.7926 26.1639 52.0148 24.4694C51.1642 23.2739 50.3023 21.1475 50.3023 21.1475C50.2882 21.1116 50.2655 21.0482 50.239 20.9868C50.1511 22.1823 50.1058 22.6435 48.9755 23.8494C47.2252 25.2179 38.2452 32.7528 37.5147 48.0779C36.8333 62.371 47.8395 70.8879 49.328 71.9738L49.4971 72.0938V72.0834C49.5066 72.1552 49.9697 75.4856 50.2948 79.0145H51.461C51.7346 76.52 52.1447 74.0425 52.6896 71.5929L52.7841 71.5315C53.4499 71.0541 54.0847 70.5348 54.6846 69.9769L54.7526 69.9154C57.9167 66.9924 63.605 60.2314 63.5492 49.452C63.5375 47.6539 63.3778 45.8598 63.072 44.0879ZM50.171 63.9039C50.171 63.9039 50.171 43.8573 50.8325 43.8611C51.3485 43.8611 52.0167 69.7189 52.0167 69.7189C51.0981 69.6083 50.171 65.4633 50.171 63.9039Z" fill="#222831"/>
</g>
<defs>
<clipPath id="clip0_1360_475">
<rect width="96.7742" height="96.7742" fill="white" transform="translate(2 3.22559)"/>
</clipPath>
<clipPath id="clip1_1360_475">
<rect width="96.7742" height="96.7742" fill="white" transform="translate(2)"/>
</clipPath>
</defs>
</svg>
