<svg width="100" height="100" viewBox="0 0 100 100" fill="none" xmlns="http://www.w3.org/2000/svg">
<g clip-path="url(#clip0_1360_484)">
<mask id="mask0_1360_484" style="mask-type:alpha" maskUnits="userSpaceOnUse" x="2" y="3" width="97" height="97">
<path d="M50.3871 99.9998C77.1106 99.9998 98.7742 78.3361 98.7742 51.6127C98.7742 24.8892 77.1106 3.22559 50.3871 3.22559C23.6636 3.22559 2 24.8892 2 51.6127C2 78.3361 23.6636 99.9998 50.3871 99.9998Z" fill="black"/>
</mask>
<g mask="url(#mask0_1360_484)">
<path d="M50.3871 99.9998C77.1106 99.9998 98.7742 78.3361 98.7742 51.6127C98.7742 24.8892 77.1106 3.22559 50.3871 3.22559C23.6636 3.22559 2 24.8892 2 51.6127C2 78.3361 23.6636 99.9998 50.3871 99.9998Z" fill="#00ADB5"/>
<path d="M82.3816 87.9137L39.1741 32.2578H31.0332V70.9514H37.5459V40.5286L77.2692 91.8519C79.0617 90.6524 80.7692 89.3358 82.3816 87.9137Z" fill="url(#paint0_linear_1360_484)"/>
<path d="M70.2797 32.2578H63.8281V70.9675H70.2797V32.2578Z" fill="url(#paint1_linear_1360_484)"/>
</g>
</g>
<g clip-path="url(#clip1_1360_484)">
<mask id="mask1_1360_484" style="mask-type:alpha" maskUnits="userSpaceOnUse" x="2" y="0" width="97" height="97">
<path d="M50.3871 96.7742C77.1106 96.7742 98.7742 75.1106 98.7742 48.3871C98.7742 21.6636 77.1106 0 50.3871 0C23.6636 0 2 21.6636 2 48.3871C2 75.1106 23.6636 96.7742 50.3871 96.7742Z" fill="black"/>
</mask>
<g mask="url(#mask1_1360_484)">
<path d="M50.3871 96.7742C77.1106 96.7742 98.7742 75.1106 98.7742 48.3871C98.7742 21.6636 77.1106 0 50.3871 0C23.6636 0 2 21.6636 2 48.3871C2 75.1106 23.6636 96.7742 50.3871 96.7742Z" fill="#EEEEEE"/>
<path d="M82.3816 81.4626L39.1741 25.8066H31.0332V64.5002H37.5459V34.0774L77.2692 85.4007C79.0617 84.2013 80.7692 82.8846 82.3816 81.4626Z" fill="url(#paint2_linear_1360_484)"/>
<path d="M70.2778 25.8066H63.8262V64.5163H70.2778V25.8066Z" fill="url(#paint3_linear_1360_484)"/>
<path d="M82.3816 84.6881L39.1741 29.0322H31.0332V67.7258H37.5459V37.303L77.2692 88.6263C79.0617 87.4268 80.7692 86.1102 82.3816 84.6881Z" fill="url(#paint4_linear_1360_484)"/>
<path d="M70.2778 29.0322H63.8262V67.7419H70.2778V29.0322Z" fill="url(#paint5_linear_1360_484)"/>
</g>
</g>
<defs>
<linearGradient id="paint0_linear_1360_484" x1="60.6031" y1="65.86" x2="79.6891" y2="89.5159" gradientUnits="userSpaceOnUse">
<stop stop-color="white"/>
<stop offset="1" stop-color="white" stop-opacity="0"/>
</linearGradient>
<linearGradient id="paint1_linear_1360_484" x1="67.0539" y1="32.2578" x2="66.9459" y2="60.6852" gradientUnits="userSpaceOnUse">
<stop stop-color="white"/>
<stop offset="1" stop-color="white" stop-opacity="0"/>
</linearGradient>
<linearGradient id="paint2_linear_1360_484" x1="60.6031" y1="59.4088" x2="79.6891" y2="83.0647" gradientUnits="userSpaceOnUse">
<stop stop-color="#00ADB5"/>
<stop offset="1" stop-color="white" stop-opacity="0"/>
<stop offset="1" stop-color="#00ADB5"/>
</linearGradient>
<linearGradient id="paint3_linear_1360_484" x1="67.052" y1="25.8066" x2="66.9439" y2="54.2341" gradientUnits="userSpaceOnUse">
<stop stop-color="#00ADB5"/>
<stop offset="1" stop-color="#222831"/>
</linearGradient>
<linearGradient id="paint4_linear_1360_484" x1="60.6031" y1="62.6344" x2="79.6891" y2="86.2903" gradientUnits="userSpaceOnUse">
<stop stop-color="#222831"/>
<stop offset="1" stop-color="white" stop-opacity="0"/>
<stop offset="1" stop-color="#222831"/>
</linearGradient>
<linearGradient id="paint5_linear_1360_484" x1="67.052" y1="29.0322" x2="66.9439" y2="57.4596" gradientUnits="userSpaceOnUse">
<stop stop-color="#222831"/>
<stop offset="1" stop-color="#222831"/>
</linearGradient>
<clipPath id="clip0_1360_484">
<rect width="96.7742" height="96.7742" fill="white" transform="translate(2 3.22559)"/>
</clipPath>
<clipPath id="clip1_1360_484">
<rect width="96.7742" height="96.7742" fill="white" transform="translate(2)"/>
</clipPath>
</defs>
</svg>
