<svg width="100" height="100" viewBox="0 0 100 100" fill="none" xmlns="http://www.w3.org/2000/svg">
<g clip-path="url(#clip0_1360_447)">
<g clip-path="url(#clip1_1360_447)">
<path d="M49.9543 3.25293H50.1721C51.2882 3.80099 52.3754 4.4098 53.4289 5.07678C65.5558 12.2663 77.6828 19.4581 89.8097 26.6521C90.2789 26.9103 90.662 27.3079 90.9093 27.7932C91.1567 28.2786 91.2569 28.8293 91.1969 29.3741C91.1701 44.5349 91.1969 59.6922 91.1801 74.8461C91.0223 75.5693 90.5935 76.1988 89.9873 76.5974C77.092 84.2521 64.1955 91.9021 51.2979 99.5476C50.9853 99.7932 50.6086 99.9366 50.2162 99.9594C49.8238 99.9822 49.4338 99.8833 49.0965 99.6754C36.1855 92.0438 23.2868 84.3983 10.4004 76.739C9.98157 76.5349 9.63079 76.2075 9.39227 75.798C9.15375 75.3886 9.03818 74.9156 9.06013 74.4385C9.06013 59.2812 9.06013 44.125 9.06013 28.97C9.02853 28.495 9.13503 28.0211 9.366 27.6088C9.59698 27.1966 9.94195 26.8647 10.3568 26.6556C22.4681 19.4753 34.5795 12.2904 46.6908 5.10096C47.7697 4.46538 48.8285 3.7918 49.9543 3.25293Z" fill="#00ADB5"/>
<path d="M25.8939 32.7453C25.8939 45.2475 25.8939 57.7508 25.8939 70.2552C25.8784 70.9477 25.997 71.6364 26.2427 72.2811C26.4883 72.9258 26.8561 73.5136 27.3246 74.01C28.2227 74.9246 29.3977 75.4941 30.6537 75.6236C31.9098 75.7531 33.171 75.4348 34.2269 74.7216C34.9337 74.2265 35.5123 73.5607 35.9124 72.7822C36.3124 72.0037 36.5217 71.1362 36.522 70.2552C36.522 61.2051 36.5053 52.1549 36.522 43.1047C44.5255 52.9839 52.5458 62.8493 60.5827 72.7009C61.6993 73.867 63.0821 74.7255 64.6042 75.1975C66.1263 75.6694 67.739 75.7398 69.2943 75.4021C70.3926 75.1791 71.3925 74.5986 72.147 73.7462C72.9015 72.8937 73.3708 71.8142 73.4859 70.6663C73.5038 57.9062 73.5038 45.1473 73.4859 32.3896C73.3706 31.0277 72.7643 29.76 71.7867 28.8363C70.8092 27.9127 69.5313 27.4004 68.2054 27.4004C66.8794 27.4004 65.6016 27.9127 64.624 28.8363C63.6465 29.76 63.0402 31.0277 62.9248 32.3896C62.9248 41.5848 62.8712 50.7697 62.9248 59.9615C55.0643 50.407 47.3009 40.7696 39.4706 31.1806C38.4382 29.8159 37.0715 28.7597 35.5114 28.1209C33.9512 27.4822 32.2541 27.284 30.5948 27.5467C29.3379 27.6909 28.1727 28.2946 27.3103 29.2483C26.4479 30.202 25.9454 31.4426 25.8939 32.7453Z" fill="white"/>
</g>
<g clip-path="url(#clip2_1360_447)">
<path d="M49.9543 0.0273438H50.1721C51.2882 0.575409 52.3754 1.18422 53.4289 1.8512C65.5558 9.04068 77.6828 16.2325 89.8097 23.4266C90.2789 23.6847 90.662 24.0823 90.9093 24.5676C91.1567 25.053 91.2569 25.6038 91.1969 26.1485C91.1701 41.3093 91.1969 56.4666 91.1801 71.6205C91.0223 72.3437 90.5935 72.9732 89.9873 73.3718C77.092 81.0265 64.1955 88.6766 51.2979 96.322C50.9853 96.5676 50.6086 96.711 50.2162 96.7338C49.8238 96.7566 49.4338 96.6577 49.0965 96.4498C36.1855 88.8182 23.2868 81.1727 10.4004 73.5135C9.98157 73.3093 9.63079 72.9819 9.39227 72.5725C9.15375 72.163 9.03818 71.69 9.06013 71.2129C9.06013 56.0556 9.06013 40.8994 9.06013 25.7444C9.02853 25.2694 9.13503 24.7955 9.366 24.3833C9.59698 23.971 9.94195 23.6391 10.3568 23.43C22.4681 16.2497 34.5795 9.06486 46.6908 1.87538C47.7697 1.23979 48.8285 0.56621 49.9543 0.0273438Z" fill="#EEEEEE"/>
<path d="M25.1302 27.9255C25.1302 40.4277 25.1302 52.931 25.1302 65.4354C25.1148 66.1279 25.2333 66.8166 25.479 67.4613C25.7246 68.106 26.0925 68.6937 26.561 69.1902C27.459 70.1048 28.634 70.6743 29.8901 70.8038C31.1461 70.9333 32.4073 70.6149 33.4632 69.9018C34.17 69.4067 34.7486 68.7409 35.1487 67.9624C35.5487 67.1839 35.758 66.3164 35.7584 65.4354C35.7584 56.3852 35.7416 47.3351 35.7584 38.2849C43.7618 48.1641 51.7821 58.0295 59.8191 67.881C60.9357 69.0472 62.3184 69.9057 63.8405 70.3776C65.3626 70.8496 66.9753 70.92 68.5306 70.5823C69.6289 70.3592 70.6288 69.7788 71.3833 68.9264C72.1378 68.0739 72.6071 66.9944 72.7223 65.8465C72.7401 53.0864 72.7401 40.3275 72.7223 27.5697C72.6069 26.2079 72.0006 24.9401 71.0231 24.0165C70.0455 23.0929 68.7677 22.5806 67.4417 22.5806C66.1157 22.5806 64.8379 23.0929 63.8603 24.0165C62.8828 24.9401 62.2765 26.2079 62.1611 27.5697C62.1611 36.765 62.1075 45.9499 62.1611 55.1417C54.3006 45.5872 46.5373 35.9498 38.7069 26.3607C37.6746 24.996 36.3079 23.9399 34.7477 23.3011C33.1876 22.6624 31.4904 22.4641 29.8311 22.7268C28.5742 22.8711 27.409 23.4748 26.5466 24.4285C25.6842 25.3822 25.1818 26.6228 25.1302 27.9255Z" fill="#00ADB5"/>
<path d="M25.1302 31.1326C25.1302 43.6347 25.1302 56.138 25.1302 68.6425C25.1148 69.3349 25.2333 70.0236 25.479 70.6683C25.7246 71.313 26.0925 71.9008 26.561 72.3972C27.459 73.3118 28.634 73.8813 29.8901 74.0108C31.1461 74.1403 32.4073 73.822 33.4632 73.1088C34.17 72.6137 34.7486 71.9479 35.1487 71.1694C35.5487 70.3909 35.758 69.5234 35.7584 68.6425C35.7584 59.5923 35.7416 50.5421 35.7584 41.4919C43.7618 51.3711 51.7821 61.2365 59.8191 71.0881C60.9357 72.2543 62.3184 73.1127 63.8405 73.5847C65.3626 74.0566 66.9753 74.127 68.5306 73.7893C69.6289 73.5663 70.6288 72.9858 71.3833 72.1334C72.1378 71.2809 72.6071 70.2014 72.7223 69.0535C72.7401 56.2934 72.7401 43.5345 72.7223 30.7768C72.6069 29.4149 72.0006 28.1472 71.0231 27.2236C70.0455 26.2999 68.7677 25.7876 67.4417 25.7876C66.1157 25.7876 64.8379 26.2999 63.8603 27.2236C62.8828 28.1472 62.2765 29.4149 62.1611 30.7768C62.1611 39.972 62.1075 49.1569 62.1611 58.3487C54.3006 48.7942 46.5373 39.1568 38.7069 29.5678C37.6746 28.2031 36.3079 27.1469 34.7477 26.5082C33.1876 25.8694 31.4904 25.6712 29.8311 25.9339C28.5742 26.0781 27.409 26.6818 26.5466 27.6355C25.6842 28.5892 25.1818 29.8298 25.1302 31.1326Z" fill="#222831"/>
</g>
</g>
<defs>
<clipPath id="clip0_1360_447">
<rect width="100" height="100" fill="white"/>
</clipPath>
<clipPath id="clip1_1360_447">
<rect width="82.2583" height="96.7744" fill="white" transform="translate(9 3.22559)"/>
</clipPath>
<clipPath id="clip2_1360_447">
<rect width="82.2583" height="96.7744" fill="white" transform="translate(9)"/>
</clipPath>
</defs>
</svg>
