<svg width="100" height="100" viewBox="0 0 100 100" fill="none" xmlns="http://www.w3.org/2000/svg">
<g clip-path="url(#clip0_1360_374)">
<path d="M49.7392 99.2463C48.4608 99.2463 47.1633 98.9061 46.0375 98.2634L34.2644 91.3645C32.5089 90.3816 33.3675 90.0414 33.94 89.8524C36.287 89.0396 36.764 88.8695 39.2636 87.4519C39.5308 87.3007 39.8742 87.3574 40.1414 87.5276L49.1859 92.8388C49.5103 93.0278 49.9682 93.0278 50.2735 92.8388L85.5165 72.6901C85.8409 72.5011 86.0508 72.1231 86.0508 71.745V31.4477C86.0508 31.0507 85.8409 30.6916 85.4974 30.4837L50.2735 10.3539C49.9491 10.1649 49.5103 10.1649 49.1859 10.3539L13.981 30.5026C13.6376 30.6916 13.4277 31.0696 13.4277 31.4666V71.745C13.4277 72.1231 13.6376 72.5011 13.981 72.6712L23.6361 78.1904C28.8835 80.7798 32.0891 77.7367 32.0891 74.6558V34.8877C32.0891 34.3206 32.547 33.8859 33.1195 33.8859H37.5845C38.1378 33.8859 38.6149 34.3206 38.6149 34.8877V74.6747C38.6149 81.5926 34.7986 85.5618 28.1774 85.5618C26.1358 85.5618 24.5329 85.5618 20.0679 83.3693L10.8326 78.0958C8.54287 76.7917 7.13086 74.3534 7.13086 71.7261V31.4477C7.13086 28.8393 8.54287 26.3821 10.8326 25.078L46.0375 4.92926C48.27 3.68178 51.2276 3.68178 53.441 4.92926L88.684 25.0969C90.9737 26.401 92.3858 28.8393 92.3858 31.4666V71.745C92.3858 74.3534 90.9737 76.7917 88.684 78.1148L53.441 98.2634C52.3152 98.9061 51.0368 99.2463 49.7392 99.2463ZM78.1893 59.5349C78.1893 51.9933 73.0374 49.9897 62.2183 48.5722C51.2657 47.1357 50.159 46.3985 50.159 43.8658C50.159 41.7677 51.094 38.9703 59.2035 38.9703C66.4353 38.9703 69.1067 40.5202 70.2134 45.3589C70.3088 45.8126 70.7286 46.1528 71.2056 46.1528H75.7851C76.0713 46.1528 76.3384 46.0394 76.5293 45.8315C76.7201 45.6236 76.8155 45.34 76.7964 45.0565C76.0904 36.7211 70.4996 32.8463 59.2035 32.8463C49.1477 32.8463 43.1562 37.0424 43.1562 44.0926C43.1562 51.7287 49.1286 53.8456 58.7646 54.7907C70.3088 55.9058 71.2056 57.588 71.2056 59.8373C71.2056 63.7309 68.0381 65.3942 60.6155 65.3942C51.2848 65.3942 49.2431 63.0694 48.5562 58.4764C48.4799 57.985 48.0601 57.6258 47.5449 57.6258H42.9845C42.412 57.6258 41.9732 58.0795 41.9732 58.6276C41.9732 64.5059 45.1979 71.5182 60.6346 71.5182C71.778 71.4993 78.1893 67.1331 78.1893 59.5349Z" fill="#00ADB5"/>
</g>
<g clip-path="url(#clip1_1360_374)">
<path d="M49.7392 96.0207C48.4608 96.0207 47.1633 95.6805 46.0375 95.0378L34.2644 88.1389C32.5089 87.156 33.3675 86.8158 33.94 86.6268C36.287 85.8141 36.764 85.644 39.2636 84.2264C39.5308 84.0752 39.8742 84.1319 40.1414 84.302L49.1859 89.6132C49.5103 89.8022 49.9682 89.8022 50.2735 89.6132L85.5165 69.4645C85.8409 69.2755 86.0508 68.8975 86.0508 68.5195V28.2221C86.0508 27.8251 85.8409 27.466 85.4974 27.2581L50.2735 7.12832C49.9491 6.93931 49.5103 6.93931 49.1859 7.12832L13.981 27.277C13.6376 27.466 13.4277 27.844 13.4277 28.241V68.5195C13.4277 68.8975 13.6376 69.2755 13.981 69.4456L23.6361 74.9648C28.8835 77.5542 32.0891 74.5111 32.0891 71.4302V31.6621C32.0891 31.0951 32.547 30.6603 33.1195 30.6603H37.5845C38.1378 30.6603 38.6149 31.0951 38.6149 31.6621V71.4491C38.6149 78.367 34.7986 82.3362 28.1774 82.3362C26.1358 82.3362 24.5329 82.3362 20.0679 80.1437L10.8326 74.8703C8.54287 73.5661 7.13086 71.1278 7.13086 68.5006V28.2221C7.13086 25.6137 8.54287 23.1565 10.8326 21.8524L46.0375 1.70368C48.27 0.456196 51.2276 0.456196 53.441 1.70368L88.684 21.8713C90.9737 23.1754 92.3858 25.6137 92.3858 28.241V68.5195C92.3858 71.1278 90.9737 73.5661 88.684 74.8892L53.441 95.0378C52.3152 95.6805 51.0368 96.0207 49.7392 96.0207ZM78.1893 56.3093C78.1893 48.7677 73.0374 46.7642 62.2183 45.3466C51.2657 43.9101 50.159 43.1729 50.159 40.6402C50.159 38.5421 51.094 35.7448 59.2035 35.7448C66.4353 35.7448 69.1067 37.2947 70.2134 42.1334C70.3088 42.587 70.7286 42.9272 71.2056 42.9272H75.7851C76.0713 42.9272 76.3384 42.8138 76.5293 42.6059C76.7201 42.398 76.8155 42.1145 76.7964 41.8309C76.0904 33.4955 70.4996 29.6208 59.2035 29.6208C49.1477 29.6208 43.1562 33.8168 43.1562 40.867C43.1562 48.5031 49.1286 50.62 58.7646 51.5651C70.3088 52.6802 71.2056 54.3624 71.2056 56.6117C71.2056 60.5053 68.0381 62.1686 60.6155 62.1686C51.2848 62.1686 49.2431 59.8438 48.5562 55.2508C48.4799 54.7594 48.0601 54.4002 47.5449 54.4002H42.9845C42.412 54.4002 41.9732 54.8539 41.9732 55.402C41.9732 61.2803 45.1979 68.2926 60.6346 68.2926C71.778 68.2737 78.1893 63.9076 78.1893 56.3093Z" fill="#EEEEEE"/>
</g>
<defs>
<clipPath id="clip0_1360_374">
<rect width="85.4839" height="96.7742" fill="white" transform="translate(7 3.22559)"/>
</clipPath>
<clipPath id="clip1_1360_374">
<rect width="85.4839" height="96.7742" fill="white" transform="translate(7)"/>
</clipPath>
</defs>
</svg>
