<svg width="100" height="100" viewBox="0 0 100 100" fill="none" xmlns="http://www.w3.org/2000/svg">
<g clip-path="url(#clip0_1360_431)">
<path d="M16.9621 39.858C15.71 39.0064 14.0761 38.5796 12.0604 38.5796H4.25693C3.63901 38.5796 3.29763 38.8853 3.23278 39.4961L0.0626848 59.183C0.029739 59.3763 0.0786357 59.5532 0.208928 59.7139C0.338475 59.8751 0.501414 59.9552 0.696555 59.9552H4.40317C5.05329 59.9552 5.41063 59.6502 5.47622 59.0384L6.35398 53.731C6.38603 53.4738 6.50037 53.2647 6.69551 53.1036C6.8905 52.9428 7.13439 52.8375 7.42703 52.7895C7.71966 52.7417 7.9956 52.7176 8.25619 52.7176C8.51602 52.7176 8.82476 52.7338 9.18299 52.7659C9.54032 52.798 9.76811 52.8136 9.86576 52.8136C12.6618 52.8136 14.8565 52.0342 16.45 50.4736C18.0427 48.9136 18.84 46.7504 18.84 43.9835C18.84 42.0856 18.2135 40.7104 16.9621 39.8574V39.858ZM12.9385 45.7694C12.7754 46.8955 12.3532 47.635 11.6705 47.989C10.9876 48.3434 10.0121 48.5195 8.74426 48.5195L7.13469 48.5679L7.964 43.4047C8.0287 43.0512 8.23994 42.8742 8.59787 42.8742H9.52482C10.8248 42.8742 11.7683 43.0596 12.3535 43.4289C12.9385 43.7991 13.1336 44.5796 12.9385 45.7694Z" fill="#00ADB5"/>
<path d="M99.3137 38.5791H95.7049C95.3463 38.5791 95.1352 38.7561 95.0708 39.1099L91.9005 59.1832L91.8516 59.2797C91.8516 59.4413 91.9167 59.5934 92.047 59.7382C92.1764 59.8826 92.3396 59.9552 92.5346 59.9552H95.7539C96.3708 59.9552 96.7123 59.6502 96.7782 59.0385L99.9483 39.303V39.255C99.948 38.8048 99.736 38.5795 99.3137 38.5795V38.5791Z" fill="#00ADB5"/>
<path d="M55.7115 46.3488C55.7115 46.1884 55.6462 46.0353 55.5168 45.8907C55.3864 45.7461 55.24 45.6733 55.0778 45.6733H51.3224C50.964 45.6733 50.6715 45.835 50.4444 46.1558L45.2746 53.6836L43.1288 46.4456C42.9654 45.9312 42.608 45.6733 42.0557 45.6733H38.3974C38.2345 45.6733 38.0881 45.7459 37.9588 45.8907C37.8284 46.0353 37.7637 46.1885 37.7637 46.3488C37.7637 46.4137 38.0808 47.3622 38.7146 49.1958C39.3485 51.0297 40.0314 53.0081 40.7631 55.1314C41.4947 57.2544 41.8764 58.3807 41.9092 58.5086C39.2428 62.1118 37.9101 64.0421 37.9101 64.299C37.9101 64.7176 38.1213 64.9265 38.5441 64.9265H42.2995C42.6571 64.9265 42.9496 64.766 43.1775 64.444L55.6145 46.6863C55.679 46.6224 55.7115 46.5103 55.7115 46.3487V46.3488Z" fill="#00ADB5"/>
<path d="M90.6808 45.6733H86.974C86.5185 45.6733 86.243 46.2042 86.1453 47.2658C85.299 45.9797 83.7555 45.3354 81.5116 45.3354C79.1705 45.3354 77.1787 46.2042 75.5371 47.9413C73.8949 49.6786 73.0742 51.7216 73.0742 54.0696C73.0742 55.968 73.6349 57.4797 74.7565 58.6052C75.8782 59.7319 77.3819 60.2941 79.2685 60.2941C80.2111 60.2941 81.1702 60.1008 82.1456 59.7151C83.1212 59.3291 83.8846 58.8146 84.4383 58.171C84.4383 58.2033 84.4052 58.3477 84.3408 58.6049C84.2752 58.8627 84.2431 59.0562 84.2431 59.184C84.2431 59.6993 84.4539 59.9559 84.8773 59.9559H88.2428C88.8597 59.9559 89.2179 59.6509 89.3151 59.0391L91.315 46.4452C91.347 46.2521 91.2984 46.0754 91.1687 45.9143C91.0382 45.754 90.876 45.6733 90.6808 45.6733ZM84.3162 55.1793C83.487 55.9836 82.4872 56.3856 81.3168 56.3856C80.3734 56.3856 79.61 56.1287 79.0244 55.6137C78.4389 55.1 78.1462 54.3922 78.1462 53.4904C78.1462 52.3011 78.5528 51.2952 79.3658 50.4749C80.1777 49.6545 81.1866 49.2444 82.3897 49.2444C83.2993 49.2444 84.0554 49.5098 84.6574 50.0404C85.2585 50.5712 85.5601 51.3033 85.5601 52.2362C85.5599 53.3941 85.1452 54.3755 84.3162 55.1793Z" fill="#00ADB5"/>
<path d="M35.2768 45.6733H31.5702C31.1143 45.6733 30.8385 46.2042 30.7409 47.2658C29.863 45.9797 28.3184 45.3354 26.1075 45.3354C23.7664 45.3354 21.7746 46.2042 20.1328 47.9413C18.4906 49.6786 17.6699 51.7216 17.6699 54.0696C17.6699 55.968 18.2309 57.4797 19.3527 58.6052C20.4745 59.7319 21.9779 60.2941 23.864 60.2941C24.774 60.2941 25.7175 60.1008 26.6927 59.7151C27.6681 59.3291 28.4485 58.8146 29.0338 58.171C28.9034 58.5568 28.8387 58.8947 28.8387 59.184C28.8387 59.6993 29.0499 59.9559 29.4727 59.9559H32.8379C33.4553 59.9559 33.8133 59.6509 33.911 59.0391L35.9105 46.4452C35.9426 46.2521 35.8938 46.0754 35.7643 45.9143C35.6341 45.754 35.4718 45.6733 35.2768 45.6733ZM28.912 55.2032C28.0827 55.9924 27.0662 56.3856 25.8639 56.3856C24.9204 56.3856 24.1644 56.1287 23.5958 55.6137C23.0265 55.1 22.7422 54.3922 22.7422 53.4904C22.7422 52.3011 23.1485 51.2952 23.9617 50.4749C24.774 49.6545 25.782 49.2444 26.9855 49.2444C27.8955 49.2444 28.6514 49.5098 29.2536 50.0405C29.8546 50.5713 30.1558 51.3035 30.1558 52.2363C30.1558 53.4264 29.7412 54.4159 28.912 55.2032Z" fill="#00ADB5"/>
<path d="M72.3665 39.858C71.1146 39.0064 69.481 38.5796 67.4651 38.5796H59.7101C59.0596 38.5796 58.7016 38.8853 58.6372 39.4961L55.467 59.183C55.4341 59.3765 55.4828 59.5533 55.6132 59.7141C55.7422 59.8751 55.9057 59.9552 56.1009 59.9552H60.1C60.4901 59.9552 60.7501 59.7464 60.8804 59.3281L61.7584 53.731C61.7906 53.4738 61.9045 53.2647 62.0998 53.1036C62.295 52.9428 62.5386 52.8377 62.8315 52.7895C63.124 52.7417 63.3998 52.7176 63.6606 52.7176C63.9205 52.7176 64.2292 52.7338 64.587 52.7659C64.9446 52.798 65.173 52.8136 65.2698 52.8136C68.0664 52.8136 70.2607 52.0342 71.8541 50.4736C73.4475 48.9136 74.244 46.7504 74.244 43.9835C74.2443 42.0857 73.618 40.7105 72.3665 39.8576V39.858ZM67.3674 47.7959C66.652 48.2783 65.579 48.5195 64.1486 48.5195L62.5877 48.5679L63.4169 43.4047C63.4813 43.0512 63.6925 42.8742 64.0508 42.8742H64.9284C65.6436 42.8742 66.2125 42.9063 66.6359 42.9705C67.0579 43.0354 67.4651 43.2358 67.8552 43.5736C68.2455 43.9115 68.4405 44.4022 68.4405 45.0455C68.4405 46.3965 68.0824 47.3132 67.3674 47.7959Z" fill="#00ADB5"/>
</g>
<g clip-path="url(#clip1_1360_431)">
<path d="M16.9621 37.2648C15.71 36.4132 14.0761 35.9863 12.0604 35.9863H4.25693C3.63901 35.9863 3.29763 36.2921 3.23278 36.9028L0.0626848 56.5897C0.029739 56.7831 0.0786357 56.9599 0.208928 57.1207C0.338475 57.2819 0.501414 57.362 0.696555 57.362H4.40317C5.05329 57.362 5.41063 57.057 5.47622 56.4452L6.35398 51.1378C6.38603 50.8805 6.50037 50.6714 6.69551 50.5103C6.8905 50.3496 7.13439 50.2443 7.42703 50.1962C7.71966 50.1484 7.9956 50.1244 8.25619 50.1244C8.51602 50.1244 8.82476 50.1406 9.18299 50.1726C9.54032 50.2047 9.76811 50.2204 9.86576 50.2204C12.6618 50.2204 14.8565 49.4409 16.45 47.8803C18.0427 46.3203 18.84 44.1571 18.84 41.3902C18.84 39.4923 18.2135 38.1171 16.9621 37.2642V37.2648ZM12.9385 43.1761C12.7754 44.3022 12.3532 45.0417 11.6705 45.3957C10.9876 45.7501 10.0121 45.9262 8.74426 45.9262L7.13469 45.9746L7.964 40.8114C8.0287 40.4579 8.23994 40.2809 8.59787 40.2809H9.52482C10.8248 40.2809 11.7683 40.4663 12.3535 40.8356C12.9385 41.2058 13.1336 41.9863 12.9385 43.1761Z" fill="#EEEEEE"/>
<path d="M99.3137 35.9858H95.7049C95.3463 35.9858 95.1352 36.1628 95.0708 36.5167L91.9005 56.59L91.8516 56.6864C91.8516 56.8481 91.9167 57.0001 92.047 57.145C92.1764 57.2894 92.3396 57.3619 92.5346 57.3619H95.7539C96.3708 57.3619 96.7123 57.0569 96.7782 56.4453L99.9483 36.7097V36.6618C99.948 36.2115 99.736 35.9863 99.3137 35.9863V35.9858Z" fill="#EEEEEE"/>
<path d="M55.7115 43.7556C55.7115 43.5951 55.6462 43.442 55.5168 43.2975C55.3864 43.1528 55.24 43.0801 55.0778 43.0801H51.3224C50.964 43.0801 50.6715 43.2417 50.4444 43.5625L45.2746 51.0904L43.1288 43.8523C42.9654 43.3379 42.608 43.0801 42.0557 43.0801H38.3974C38.2345 43.0801 38.0881 43.1526 37.9588 43.2975C37.8284 43.442 37.7637 43.5953 37.7637 43.7556C37.7637 43.8205 38.0808 44.769 38.7146 46.6026C39.3485 48.4364 40.0314 50.4149 40.7631 52.5381C41.4947 54.6611 41.8764 55.7875 41.9092 55.9153C39.2428 59.5185 37.9101 61.4488 37.9101 61.7058C37.9101 62.1243 38.1213 62.3332 38.5441 62.3332H42.2995C42.6571 62.3332 42.9496 62.1727 43.1775 61.8508L55.6145 44.093C55.679 44.0292 55.7115 43.9171 55.7115 43.7554V43.7556Z" fill="#EEEEEE"/>
<path d="M90.6808 43.0801H86.974C86.5185 43.0801 86.243 43.6109 86.1453 44.6725C85.299 43.3864 83.7555 42.7422 81.5116 42.7422C79.1705 42.7422 77.1787 43.6109 75.5371 45.348C73.8949 47.0853 73.0742 49.1283 73.0742 51.4764C73.0742 53.3747 73.6349 54.8865 74.7565 56.012C75.8782 57.1386 77.3819 57.7009 79.2685 57.7009C80.2111 57.7009 81.1702 57.5075 82.1456 57.1218C83.1212 56.7358 83.8846 56.2214 84.4383 55.5777C84.4383 55.61 84.4052 55.7544 84.3408 56.0117C84.2752 56.2695 84.2431 56.463 84.2431 56.5907C84.2431 57.106 84.4539 57.3627 84.8773 57.3627H88.2428C88.8597 57.3627 89.2179 57.0577 89.3151 56.4459L91.315 43.8519C91.347 43.6588 91.2984 43.4821 91.1687 43.3211C91.0382 43.1608 90.876 43.0801 90.6808 43.0801ZM84.3162 52.5861C83.487 53.3903 82.4872 53.7924 81.3168 53.7924C80.3734 53.7924 79.61 53.5355 79.0244 53.0204C78.4389 52.5067 78.1462 51.7989 78.1462 50.8972C78.1462 49.7078 78.5528 48.7019 79.3658 47.8816C80.1777 47.0613 81.1866 46.6511 82.3897 46.6511C83.2993 46.6511 84.0554 46.9166 84.6574 47.4471C85.2585 47.9779 85.5601 48.71 85.5601 49.6429C85.5599 50.8009 85.1452 51.7823 84.3162 52.5861Z" fill="#EEEEEE"/>
<path d="M35.2768 43.0801H31.5702C31.1143 43.0801 30.8385 43.6109 30.7409 44.6725C29.863 43.3864 28.3184 42.7422 26.1075 42.7422C23.7664 42.7422 21.7746 43.6109 20.1328 45.348C18.4906 47.0853 17.6699 49.1283 17.6699 51.4764C17.6699 53.3747 18.2309 54.8865 19.3527 56.012C20.4745 57.1386 21.9779 57.7009 23.864 57.7009C24.774 57.7009 25.7175 57.5075 26.6927 57.1218C27.6681 56.7358 28.4485 56.2214 29.0338 55.5777C28.9034 55.9636 28.8387 56.3015 28.8387 56.5907C28.8387 57.106 29.0499 57.3627 29.4727 57.3627H32.8379C33.4553 57.3627 33.8133 57.0577 33.911 56.4459L35.9105 43.8519C35.9426 43.6588 35.8938 43.4821 35.7643 43.3211C35.6341 43.1608 35.4718 43.0801 35.2768 43.0801ZM28.912 52.61C28.0827 53.3992 27.0662 53.7924 25.8639 53.7924C24.9204 53.7924 24.1644 53.5355 23.5958 53.0204C23.0265 52.5067 22.7422 51.7989 22.7422 50.8972C22.7422 49.7078 23.1485 48.7019 23.9617 47.8816C24.774 47.0613 25.782 46.6511 26.9855 46.6511C27.8955 46.6511 28.6514 46.9166 29.2536 47.4472C29.8546 47.9781 30.1558 48.7102 30.1558 49.6431C30.1558 50.8332 29.7412 51.8227 28.912 52.61Z" fill="#EEEEEE"/>
<path d="M72.3665 37.2648C71.1146 36.4132 69.481 35.9863 67.4651 35.9863H59.7101C59.0596 35.9863 58.7016 36.2921 58.6372 36.9028L55.467 56.5897C55.4341 56.7832 55.4828 56.96 55.6132 57.1208C55.7422 57.2819 55.9057 57.362 56.1009 57.362H60.1C60.4901 57.362 60.7501 57.1531 60.8804 56.7348L61.7584 51.1378C61.7906 50.8805 61.9045 50.6714 62.0998 50.5103C62.295 50.3496 62.5386 50.2444 62.8315 50.1962C63.124 50.1484 63.3998 50.1244 63.6606 50.1244C63.9205 50.1244 64.2292 50.1406 64.587 50.1726C64.9446 50.2047 65.173 50.2204 65.2698 50.2204C68.0664 50.2204 70.2607 49.4409 71.8541 47.8803C73.4475 46.3203 74.244 44.1571 74.244 41.3902C74.2443 39.4924 73.618 38.1173 72.3665 37.2643V37.2648ZM67.3674 45.2026C66.652 45.6851 65.579 45.9262 64.1486 45.9262L62.5877 45.9746L63.4169 40.8114C63.4813 40.4579 63.6925 40.2809 64.0508 40.2809H64.9284C65.6436 40.2809 66.2125 40.3131 66.6359 40.3772C67.0579 40.4421 67.4651 40.6426 67.8552 40.9803C68.2455 41.3182 68.4405 41.8089 68.4405 42.4523C68.4405 43.8033 68.0824 44.7199 67.3674 45.2026Z" fill="#EEEEEE"/>
</g>
<defs>
<clipPath id="clip0_1360_431">
<rect width="100" height="26.3158" fill="white" transform="translate(0 38.5933)"/>
</clipPath>
<clipPath id="clip1_1360_431">
<rect width="100" height="26.3158" fill="white" transform="translate(0 36)"/>
</clipPath>
</defs>
</svg>
