<svg width="100" height="100" viewBox="0 0 100 100" fill="none" xmlns="http://www.w3.org/2000/svg">
<g clip-path="url(#clip0_1360_403)">
<path d="M73.1069 73.6602C73.7214 68.5295 73.5372 67.7771 77.3501 68.6082L78.3182 68.6934C81.25 68.8271 85.0853 68.2208 87.3384 67.1717C92.1888 64.916 95.0649 61.1499 90.2822 62.1395C79.3727 64.3951 78.6227 60.6927 78.6227 60.6927C90.1425 43.5615 94.9581 21.815 90.8015 16.4919C79.4641 1.97246 59.8393 8.83838 59.5109 9.01664L59.4064 9.03599C57.2508 8.58773 54.8384 8.3199 52.1285 8.27599C47.1916 8.19468 43.4455 9.57317 40.6039 11.7334C40.6039 11.7334 5.59438 -2.7228 7.22308 29.9136C7.56947 36.8562 17.1522 82.4477 28.5813 68.6769C32.7586 63.6414 36.7956 59.3838 36.7956 59.3838C38.8002 60.7186 41.2002 61.3995 43.7173 61.1549L43.9119 60.9886C43.8509 61.6138 43.8778 62.2253 43.9897 62.9493C41.0459 66.2465 41.9109 66.8254 36.0245 68.0397C30.069 69.27 33.5679 71.4602 35.8516 72.0326C38.621 72.7267 45.0276 73.71 49.3576 67.636L49.1851 68.3291C50.3401 69.2552 50.2621 74.9854 50.4258 79.0796C50.5898 83.174 50.8633 86.9947 51.696 89.2473C52.5287 91.4995 53.5112 97.3017 61.2474 95.64C67.713 94.2513 72.6564 92.2528 73.1069 73.6602Z" fill="#00ADB5" stroke="#00ADB5" stroke-width="5.41761"/>
<path d="M90.2844 62.1384C79.3738 64.394 78.6238 60.6916 78.6238 60.6916C90.1436 43.5593 94.9592 21.8124 90.8034 16.49C79.466 1.97136 59.8404 8.83772 59.5129 9.01598L59.4074 9.03489C57.2519 8.58641 54.8395 8.31924 52.1282 8.27489C47.1914 8.1938 43.4466 9.57207 40.605 11.7319C40.605 11.7319 5.59478 -2.72368 7.22305 29.9125C7.56944 36.8556 17.1519 82.447 28.5815 68.6762C32.759 63.6408 36.7953 59.3831 36.7953 59.3831C38.8001 60.7179 41.2001 61.3988 43.7162 61.1542L43.9116 60.9879C43.8509 61.6131 43.8786 62.2247 43.9899 62.9486C41.0455 66.2458 41.9107 66.8247 36.0247 68.0391C30.0688 69.2693 33.5676 71.4595 35.852 72.0319C38.6214 72.7261 45.0284 73.7093 49.3576 67.6354L49.1849 68.3284C50.3386 69.2545 51.1487 74.3526 51.0129 78.9739C50.8772 83.5955 50.7865 86.7683 51.6955 89.2466C52.6046 91.7249 53.5106 97.301 61.2483 95.6393C67.7139 94.2506 71.0643 90.6519 71.5305 84.649C71.8612 80.3813 72.6098 81.0122 72.657 77.1967L73.2574 75.3904C73.9498 69.6054 73.3674 67.7391 77.3508 68.6071L78.3188 68.6923C81.2507 68.826 85.0878 68.2197 87.3399 67.1706C92.1894 64.9149 95.0655 61.1488 90.2839 62.1384H90.2844Z" fill="#00ADB5"/>
<path d="M49.8227 65.4556C49.5223 76.22 49.8982 87.0594 50.9491 89.6938C52.0007 92.3282 54.251 97.4521 61.9894 95.7906C68.4543 94.4014 70.8066 91.7132 71.8273 85.7794C72.5791 81.4137 74.0284 69.2893 74.2143 66.8051" stroke="#00ADB5" stroke-width="1.80587" stroke-linecap="round" stroke-linejoin="round"/>
<path d="M40.5522 11.4931C40.5522 11.4931 5.51817 -2.85836 7.14687 29.7778C7.49327 36.7209 17.0764 82.3138 28.5057 68.5424C32.6824 63.5063 36.4597 59.5565 36.4597 59.5565" stroke="#00ADB5" stroke-width="1.80587" stroke-linecap="round" stroke-linejoin="round"/>
<path d="M59.4729 8.87253C58.2602 9.25362 78.961 1.2879 90.7255 16.3545C94.8811 21.6772 90.0654 43.4241 78.5458 60.5569" stroke="#00ADB5" stroke-width="1.80587" stroke-linecap="round" stroke-linejoin="round"/>
<path d="M78.548 60.5565C78.548 60.5565 79.2987 64.26 90.2095 62.0028C94.99 61.0132 92.113 64.7798 87.2646 67.0365C83.2856 68.8874 74.3647 69.3617 74.2189 66.8041C73.8439 60.2052 78.914 62.21 78.548 60.5565ZM78.548 60.5565C78.2173 59.0673 75.95 57.6058 74.4501 53.9612C73.1407 50.7801 56.4916 26.3851 79.0673 30.0082C79.8943 29.8367 73.1793 8.48583 52.0517 8.13865C30.9288 7.79147 31.6218 34.1741 31.6218 34.1741" stroke="#00ADB5" stroke-width="1.80587" stroke-linecap="round" stroke-linejoin="bevel"/>
<path d="M43.9183 62.8131C40.9735 66.11 41.8396 66.689 35.9531 67.9037C29.9972 69.1342 33.4965 71.324 35.7802 71.8962C38.5496 72.5907 44.9566 73.574 49.2858 67.4985C50.6041 65.6487 49.278 62.6972 47.4671 61.9448C46.5921 61.5815 45.4221 61.1263 43.9183 62.8131Z" stroke="#00ADB5" stroke-width="1.80587" stroke-linecap="round" stroke-linejoin="round"/>
<path d="M43.7198 62.7556C43.4231 60.8171 44.3553 58.5103 45.3544 55.8116C46.8558 51.7625 50.3199 47.7127 47.5488 34.8682C45.4832 25.2966 31.6291 32.8762 31.6204 34.1741C31.612 35.4715 32.2471 40.7524 31.389 46.902C30.2694 54.9266 36.4836 61.7134 43.6393 61.0191" stroke="#00ADB5" stroke-width="1.80587" stroke-linecap="round" stroke-linejoin="round"/>
<path d="M40.427 33.9798C40.3645 34.423 41.2367 35.6059 42.3739 35.7639C43.5091 35.9226 44.4809 34.9983 44.5425 34.5554C44.6041 34.1122 43.733 33.6239 42.5953 33.4652C41.4594 33.3063 40.4873 33.5376 40.4272 33.9798H40.427Z" fill="#00ADB5" stroke="#00ADB5" stroke-width="0.601952"/>
<path d="M75.0047 33.0764C75.0663 33.5196 74.1952 34.7025 73.0578 34.8605C71.9217 35.0192 70.9499 34.0949 70.8877 33.652C70.8276 33.2088 71.6989 32.7205 72.8352 32.5618C73.9716 32.4031 74.9431 32.6342 75.0047 33.0766V33.0764Z" fill="#00ADB5" stroke="#00ADB5" stroke-width="0.300976"/>
<path d="M79.0673 30.0088C79.2545 33.4858 78.3201 35.8541 78.2023 39.5554C78.0279 44.9354 80.7615 51.0933 76.6426 57.2588" stroke="#00ADB5" stroke-width="1.80587" stroke-linecap="round" stroke-linejoin="round"/>
<path d="M73.1069 70.4835C73.7214 65.3528 73.5372 64.6004 77.3501 65.4315L78.3182 65.5167C81.25 65.6504 85.0853 65.0441 87.3384 63.9949C92.1888 61.7393 95.0649 57.9731 90.2822 58.9627C79.3727 61.2184 78.6227 57.516 78.6227 57.516C90.1425 40.3847 94.9581 18.6383 90.8015 13.3152C79.4641 -1.2043 59.8393 5.66162 59.5109 5.83989L59.4064 5.85923C57.2508 5.41097 54.8384 5.14314 52.1285 5.09923C47.1916 5.01792 43.4455 6.39641 40.6039 8.55665C40.6039 8.55665 5.59438 -5.89956 7.22308 26.7368C7.56947 33.6795 17.1522 79.2709 28.5813 65.5002C32.7586 60.4647 36.7956 56.207 36.7956 56.207C38.8002 57.5418 41.2002 58.2227 43.7173 57.9781L43.9119 57.8118C43.8509 58.437 43.8778 59.0486 43.9897 59.7725C41.0459 63.0697 41.9109 63.6486 36.0245 64.863C30.069 66.0932 33.5679 68.2834 35.8516 68.8558C38.621 69.55 45.0276 70.5332 49.3576 64.4593L49.1851 65.1523C50.3401 66.0784 50.2621 71.8087 50.4258 75.9029C50.5898 79.9972 50.8633 83.8179 51.696 86.0705C52.5287 88.3227 53.5112 94.125 61.2474 92.4632C67.713 91.0745 72.6564 89.076 73.1069 70.4835Z" fill="#EEEEEE" stroke="#EEEEEE" stroke-width="5.41761"/>
<path d="M90.2844 58.9616C79.3738 61.2173 78.6238 57.5149 78.6238 57.5149C90.1436 40.3825 94.9592 18.6356 90.8034 13.3132C79.466 -1.2054 59.8404 5.66096 59.5129 5.83922L59.4074 5.85814C57.2519 5.40965 54.8395 5.14248 52.1282 5.09813C47.1914 5.01704 43.4466 6.39531 40.605 8.55511C40.605 8.55511 5.59478 -5.90044 7.22305 26.7357C7.56944 33.6788 17.1519 79.2702 28.5815 65.4995C32.759 60.464 36.7953 56.2064 36.7953 56.2064C38.8001 57.5412 41.2001 58.222 43.7162 57.9775L43.9116 57.8112C43.8509 58.4364 43.8786 59.0479 43.9899 59.7718C41.0455 63.069 41.9107 63.6479 36.0247 64.8623C30.0688 66.0925 33.5676 68.2828 35.852 68.8552C38.6214 69.5493 45.0284 70.5326 49.3576 64.4586L49.1849 65.1517C50.3386 66.0778 51.1487 71.1758 51.0129 75.7972C50.8772 80.4187 50.7865 83.5916 51.6955 86.0699C52.6046 88.5482 53.5106 94.1243 61.2483 92.4625C67.7139 91.0738 71.0643 87.4751 71.5305 81.4722C71.8612 77.2046 72.6098 77.8355 72.657 74.02L73.2574 72.2137C73.9498 66.4286 73.3674 64.5623 77.3508 65.4304L78.3188 65.5156C81.2507 65.6493 85.0878 65.043 87.3399 63.9938C92.1894 61.7382 95.0655 57.972 90.2839 58.9616H90.2844Z" fill="#222831"/>
<path d="M49.8227 62.2788C49.5223 73.0432 49.8982 83.8827 50.9491 86.517C52.0007 89.1514 54.251 94.2754 61.9894 92.6138C68.4543 91.2247 70.8066 88.5364 71.8273 82.6027C72.5791 78.237 74.0284 66.1125 74.2143 63.6284" stroke="#EEEEEE" stroke-width="1.80587" stroke-linecap="round" stroke-linejoin="round"/>
<path d="M40.5522 8.3163C40.5522 8.3163 5.51817 -6.03512 7.14687 26.601C7.49327 33.5441 17.0764 79.1371 28.5057 65.3657C32.6824 60.3295 36.4597 56.3797 36.4597 56.3797" stroke="#EEEEEE" stroke-width="1.80587" stroke-linecap="round" stroke-linejoin="round"/>
<path d="M59.4729 5.69577C58.2602 6.07686 78.961 -1.88885 90.7255 13.1778C94.8811 18.5004 90.0654 40.2474 78.5458 57.3801" stroke="#EEEEEE" stroke-width="1.80587" stroke-linecap="round" stroke-linejoin="round"/>
<path d="M78.548 57.3797C78.548 57.3797 79.2987 61.0832 90.2095 58.826C94.99 57.8364 92.113 61.603 87.2646 63.8598C83.2856 65.7106 74.3647 66.185 74.2189 63.6274C73.8439 57.0284 78.914 59.0332 78.548 57.3797ZM78.548 57.3797C78.2173 55.8906 75.95 54.429 74.4501 50.7844C73.1407 47.6033 56.4916 23.2083 79.0673 26.8314C79.8943 26.6599 73.1793 5.30907 52.0517 4.96189C30.9288 4.61472 31.6218 30.9973 31.6218 30.9973" stroke="#EEEEEE" stroke-width="1.80587" stroke-linecap="round" stroke-linejoin="bevel"/>
<path d="M43.9183 59.6363C40.9735 62.9333 41.8396 63.5122 35.9531 64.727C29.9972 65.9574 33.4965 68.1472 35.7802 68.7194C38.5496 69.414 44.9566 70.3973 49.2858 64.3218C50.6041 62.472 49.278 59.5204 47.4671 58.768C46.5921 58.4048 45.4221 57.9495 43.9183 59.6363Z" stroke="#EEEEEE" stroke-width="1.80587" stroke-linecap="round" stroke-linejoin="round"/>
<path d="M43.7198 59.5788C43.4231 57.6403 44.3553 55.3336 45.3544 52.6349C46.8558 48.5857 50.3199 44.5359 47.5488 31.6914C45.4832 22.1198 31.6291 29.6995 31.6204 30.9973C31.612 32.2947 32.2471 37.5756 31.389 43.7252C30.2694 51.7499 36.4836 58.5367 43.6393 57.8423" stroke="#EEEEEE" stroke-width="1.80587" stroke-linecap="round" stroke-linejoin="round"/>
<path d="M40.427 30.803C40.3645 31.2463 41.2367 32.4291 42.3739 32.5872C43.5091 32.7459 44.4809 31.8215 44.5425 31.3787C44.6041 30.9354 43.733 30.4471 42.5953 30.2885C41.4594 30.1295 40.4873 30.3608 40.4272 30.803H40.427Z" fill="#EEEEEE" stroke="#EEEEEE" stroke-width="0.601952"/>
<path d="M75.0047 29.8996C75.0663 30.3429 74.1952 31.5257 73.0578 31.6838C71.9217 31.8425 70.9499 30.9181 70.8877 30.4753C70.8276 30.032 71.6989 29.5437 72.8352 29.385C73.9716 29.2263 74.9431 29.4574 75.0047 29.8998V29.8996Z" fill="#EEEEEE" stroke="#EEEEEE" stroke-width="0.300976"/>
<path d="M79.0673 26.832C79.2545 30.309 78.3201 32.6773 78.2023 36.3786C78.0279 41.7587 80.7615 47.9166 76.6426 54.082" stroke="#EEEEEE" stroke-width="1.80587" stroke-linecap="round" stroke-linejoin="round"/>
</g>
<defs>
<clipPath id="clip0_1360_403">
<rect width="100" height="100" fill="white"/>
</clipPath>
</defs>
</svg>
