<svg width="100" height="100" viewBox="0 0 100 100" fill="none" xmlns="http://www.w3.org/2000/svg">
<g clip-path="url(#clip0_1360_697)">
<path d="M89.818 76.7487L56.6301 6.26936C55.79 4.50228 54.0488 3.33804 52.0948 3.23692C50.1363 3.1057 48.2673 4.07458 47.2458 5.75068L11.2498 64.0521C10.1323 65.8493 10.1558 68.1308 11.3101 69.9046L28.9088 97.1579C30.2762 99.259 32.8628 100.21 35.2656 99.4956L86.3369 84.3889C87.8927 83.934 89.1749 82.8269 89.8518 81.3541C90.5195 79.8883 90.508 78.2029 89.8205 76.7463L89.818 76.7487ZM82.3877 79.7715L39.0507 92.5864C37.7287 92.9796 36.4597 91.8337 36.7348 90.4996L52.2178 16.363C52.5073 14.9758 54.4228 14.7563 55.0283 16.0397L83.6904 76.9055C83.9469 77.4544 83.95 78.0881 83.6989 78.6395C83.4478 79.1909 82.9677 79.6046 82.3853 79.7715H82.3877Z" fill="#00ADB5"/>
</g>
<g clip-path="url(#clip1_1360_697)">
<path d="M89.818 73.5231L56.6301 3.04377C55.79 1.2767 54.0488 0.112452 52.0948 0.0113358C50.1363 -0.119887 48.2673 0.848989 47.2458 2.5251L11.2498 60.8265C10.1323 62.6237 10.1558 64.9052 11.3101 66.679L28.9088 93.9323C30.2762 96.0334 32.8628 96.9846 35.2656 96.27L86.3369 81.1633C87.8927 80.7084 89.1749 79.6014 89.8518 78.1285C90.5195 76.6627 90.508 74.9773 89.8205 73.5207L89.818 73.5231ZM82.3877 76.5459L39.0507 89.3608C37.7287 89.754 36.4597 88.6081 36.7348 87.274L52.2178 13.1374C52.5073 11.7503 54.4228 11.5307 55.0283 12.8141L83.6904 73.6799C83.9469 74.2288 83.95 74.8626 83.6989 75.4139C83.4478 75.9653 82.9677 76.379 82.3853 76.5459H82.3877Z" fill="#EEEEEE"/>
</g>
<defs>
<clipPath id="clip0_1360_697">
<rect width="96.7742" height="96.7742" fill="white" transform="translate(2 3.22559)"/>
</clipPath>
<clipPath id="clip1_1360_697">
<rect width="96.7742" height="96.7742" fill="white" transform="translate(2)"/>
</clipPath>
</defs>
</svg>
