<svg width="100" height="100" viewBox="0 0 100 100" fill="none" xmlns="http://www.w3.org/2000/svg">
<g clip-path="url(#clip0_1360_465)">
<path d="M49.0056 3.22638C45.0846 3.24473 41.3403 3.58158 38.0456 4.16885C28.3399 5.89611 26.5777 9.51142 26.5777 16.1787V24.984H49.5135V27.9192H26.5777H17.9701C11.3044 27.9192 5.46762 31.9551 3.64197 39.6328C1.53609 48.4332 1.44269 53.9248 3.64197 63.1138C5.27232 69.9538 9.16583 74.8274 15.8316 74.8274H23.7174V64.2717C23.7174 56.6458 30.2674 49.9192 38.0456 49.9192H60.9546C67.3317 49.9192 72.4225 44.63 72.4225 38.1787V16.1787C72.4225 9.91732 67.1788 5.21384 60.9546 4.16885C57.0146 3.50817 52.9265 3.20803 49.0056 3.22638ZM36.6021 10.3084C38.9712 10.3084 40.9059 12.2891 40.9059 14.7245C40.9059 17.1514 38.9712 19.1138 36.6021 19.1138C34.2245 19.1138 32.2983 17.1514 32.2983 14.7245C32.2983 12.2891 34.2245 10.3084 36.6021 10.3084Z" fill="url(#paint0_linear_1360_465)"/>
<path d="M75.2832 27.9189V38.1784C75.2832 46.1325 68.5888 52.8272 60.955 52.8272H38.046C31.7708 52.8272 26.5781 58.2373 26.5781 64.5677V86.5677C26.5781 92.829 31.9831 96.5119 38.046 98.3082C45.3062 100.459 52.2683 100.847 60.955 98.3082C66.7292 96.6241 72.4229 93.2349 72.4229 86.5677V77.7623H49.5139V74.8272H72.4229H83.8908C90.5565 74.8272 93.0405 70.1435 95.3586 63.1136C97.7532 55.8763 97.6513 48.9166 95.3586 39.6325C93.7113 32.948 90.565 27.9189 83.8908 27.9189H75.2832ZM62.3985 83.6326C64.7761 83.6326 66.7023 85.595 66.7023 88.0218C66.7023 90.4572 64.7761 92.438 62.3985 92.438C60.0294 92.438 58.0947 90.4572 58.0947 88.0218C58.0947 85.595 60.0294 83.6326 62.3985 83.6326Z" fill="url(#paint1_linear_1360_465)"/>
</g>
<g clip-path="url(#clip1_1360_465)">
<path d="M49.0056 0.000792129C45.0846 0.0191444 41.3403 0.355996 38.0456 0.943265C28.3399 2.67053 26.5777 6.28583 26.5777 12.9531V21.7585H49.5135V24.6936H26.5777H17.9701C11.3044 24.6936 5.46762 28.7295 3.64197 36.4072C1.53609 45.2076 1.44269 50.6992 3.64197 59.8882C5.27232 66.7282 9.16583 71.6018 15.8316 71.6018H23.7174V61.0461C23.7174 53.4202 30.2674 46.6936 38.0456 46.6936H60.9546C67.3317 46.6936 72.4225 41.4044 72.4225 34.9531V12.9531C72.4225 6.69174 67.1788 1.98826 60.9546 0.943265C57.0146 0.282586 52.9265 -0.0175604 49.0056 0.000792129ZM36.6021 7.0828C38.9712 7.0828 40.9059 9.06352 40.9059 11.499C40.9059 13.9258 38.9712 15.8882 36.6021 15.8882C34.2245 15.8882 32.2983 13.9258 32.2983 11.499C32.2983 9.06352 34.2245 7.0828 36.6021 7.0828Z" fill="url(#paint2_linear_1360_465)"/>
<path d="M75.2832 24.6934V34.9529C75.2832 42.9069 68.5888 49.6016 60.955 49.6016H38.046C31.7708 49.6016 26.5781 55.0117 26.5781 61.3421V83.3421C26.5781 89.6034 31.9831 93.2863 38.046 95.0826C45.3062 97.2331 52.2683 97.6217 60.955 95.0826C66.7292 93.3986 72.4229 90.0093 72.4229 83.3421V74.5367H49.5139V71.6016H72.4229H83.8908C90.5565 71.6016 93.0405 66.918 95.3586 59.888C97.7532 52.6508 97.6513 45.691 95.3586 36.407C93.7113 29.7224 90.565 24.6934 83.8908 24.6934H75.2832ZM62.3985 80.407C64.7761 80.407 66.7023 82.3694 66.7023 84.7962C66.7023 87.2317 64.7761 89.2124 62.3985 89.2124C60.0294 89.2124 58.0947 87.2317 58.0947 84.7962C58.0947 82.3694 60.0294 80.407 62.3985 80.407Z" fill="url(#paint3_linear_1360_465)"/>
</g>
<defs>
<linearGradient id="paint0_linear_1360_465" x1="2.02734" y1="3.22559" x2="55.2396" y2="48.2395" gradientUnits="userSpaceOnUse">
<stop stop-color="#00ADB5"/>
<stop offset="1" stop-color="#00ADB5"/>
</linearGradient>
<linearGradient id="paint1_linear_1360_465" x1="61.8473" y1="87.2815" x2="42.6891" y2="60.6307" gradientUnits="userSpaceOnUse">
<stop stop-color="#00ADB5"/>
<stop offset="1" stop-color="#00ADB5"/>
</linearGradient>
<linearGradient id="paint2_linear_1360_465" x1="2.02734" y1="-2.49921e-07" x2="55.2396" y2="45.0139" gradientUnits="userSpaceOnUse">
<stop stop-color="#EEEEEE"/>
<stop offset="1" stop-color="#EEEEEE"/>
</linearGradient>
<linearGradient id="paint3_linear_1360_465" x1="61.8473" y1="84.0559" x2="42.6891" y2="57.4051" gradientUnits="userSpaceOnUse">
<stop stop-color="#EEEEEE"/>
<stop offset="1" stop-color="#EEEEEE"/>
</linearGradient>
<clipPath id="clip0_1360_465">
<rect width="95.1613" height="96.7742" fill="white" transform="translate(2 3.22559)"/>
</clipPath>
<clipPath id="clip1_1360_465">
<rect width="95.1613" height="96.7742" fill="white" transform="translate(2)"/>
</clipPath>
</defs>
</svg>
