<svg width="100" height="100" viewBox="0 0 100 100" fill="none" xmlns="http://www.w3.org/2000/svg">
<path d="M81.6797 35.9363C80.625 35.5812 79.5703 35.2458 78.5156 34.9302C78.6914 34.2002 78.8477 33.4703 79.0039 32.7403C81.4063 20.9821 79.8242 11.5321 74.4922 8.41503C69.3555 5.43602 60.9766 8.5334 52.5 15.9908C51.6602 16.7207 50.8398 17.4902 50.0586 18.2596C49.5312 17.7466 48.9844 17.2337 48.4375 16.7405C39.5508 8.77014 30.6445 5.41629 25.3125 8.55313C20.1953 11.5519 18.6719 20.4494 20.8203 31.5763C21.0352 32.6811 21.2695 33.7662 21.543 34.871C20.293 35.2261 19.0625 35.6207 17.9102 36.035C7.48047 39.6848 0 45.4455 0 51.4035C0 57.5588 7.96875 63.7338 18.8086 67.4823C19.6875 67.7782 20.5664 68.0741 21.4648 68.3306C21.1719 69.5143 20.918 70.6783 20.6836 71.8817C18.6328 82.8311 20.2344 91.5116 25.3516 94.4906C30.625 97.5683 39.4922 94.4117 48.125 86.7768C48.8086 86.1652 49.4922 85.5339 50.1758 84.8631C51.0352 85.7114 51.9336 86.5203 52.832 87.3094C61.1914 94.5695 69.4531 97.5091 74.5508 94.5301C79.8242 91.4524 81.543 82.1208 79.3164 70.7572C79.1406 69.8892 78.9453 69.0014 78.7305 68.0939C79.3555 67.9163 79.9609 67.719 80.5664 67.5217C91.8359 63.7536 100 57.6575 100 51.4035C100 45.4258 92.3047 39.6256 81.6797 35.9363ZM55.2539 19.1868C62.5195 12.7948 69.2969 10.2892 72.3828 12.0845C75.6836 13.9982 76.9531 21.7318 74.8828 31.892C74.7461 32.5628 74.6094 33.2138 74.4336 33.8648C70.0977 32.8784 65.7031 32.1682 61.2891 31.7736C58.75 28.1041 55.9766 24.5924 52.9688 21.2978C53.7305 20.5678 54.4727 19.8773 55.2539 19.1868ZM32.6562 61.6426C33.6523 63.359 34.668 65.0754 35.7422 66.7523C32.6953 66.4169 29.668 65.9237 26.6797 65.2727C27.5391 62.4318 28.6133 59.4922 29.8633 56.4935C30.7617 58.2296 31.6797 59.946 32.6562 61.6426ZM26.7383 37.9092C29.5508 37.2779 32.5391 36.7649 35.6445 36.3704C34.6094 38.0078 33.5938 39.6848 32.6367 41.3814C31.6797 43.0583 30.7422 44.7747 29.8633 46.5108C28.6328 43.5713 27.5977 40.6909 26.7383 37.9092ZM32.0898 51.5022C33.3789 48.7796 34.7852 46.1163 36.2695 43.4924C37.7539 40.8685 39.3555 38.3235 41.0352 35.818C43.9648 35.601 46.9531 35.4826 50 35.4826C53.0469 35.4826 56.0547 35.601 58.9648 35.818C60.625 38.3038 62.207 40.8487 63.7109 43.4529C65.2148 46.0571 66.6211 48.7204 67.9492 51.4232C66.6406 54.1458 65.2344 56.8289 63.7305 59.4725C62.2461 62.0964 60.6641 64.6414 59.0039 67.1666C56.0938 67.3836 53.0664 67.4823 50 67.4823C46.9336 67.4823 43.9648 67.3836 41.0937 67.2061C39.3945 64.7005 37.793 62.1358 36.2891 59.5119C34.7852 56.888 33.3984 54.2247 32.0898 51.5022ZM67.3633 61.6032C68.3594 59.867 69.2969 58.1112 70.2148 56.3356C71.4648 59.1963 72.5586 62.0964 73.5156 65.0754C70.4883 65.7659 67.4219 66.2986 64.3359 66.6537C65.3906 64.9965 66.3867 63.2998 67.3633 61.6032ZM70.1758 46.5108C69.2578 44.7747 68.3203 43.0386 67.3437 41.342C66.3867 39.665 65.3906 38.0078 64.3555 36.3704C67.5 36.7649 70.5078 37.2976 73.3203 37.9486C72.4219 40.8685 71.3672 43.7094 70.1758 46.5108ZM50.0391 24.3162C52.0898 26.5653 54.0234 28.9327 55.8203 31.379C51.9531 31.2015 48.0664 31.2015 44.1992 31.379C46.1133 28.8341 48.0859 26.4666 50.0391 24.3162ZM27.3828 12.2226C30.6641 10.2892 37.9492 13.0512 45.625 19.9168C46.1133 20.3508 46.6016 20.8243 47.1094 21.2978C44.082 24.5924 41.2891 28.1041 38.7305 31.7736C34.3164 32.1682 29.9414 32.8587 25.6055 33.8254C25.3516 32.8192 25.1367 31.7933 24.9219 30.7675C23.0859 21.2188 24.2969 14.0179 27.3828 12.2226ZM22.5977 64.2271C21.7773 63.9903 20.9766 63.7338 20.1758 63.4576C16.0156 62.1358 11.2891 60.0446 7.87109 57.3023C5.89844 55.9213 4.57031 53.7907 4.19922 51.4035C4.19922 47.7932 10.3711 43.1767 19.2773 40.0399C20.3906 39.6453 21.5234 39.2902 22.6562 38.9548C23.9844 43.2359 25.5859 47.4381 27.4414 51.5022C25.5664 55.6254 23.9453 59.8868 22.5977 64.2271ZM45.3711 83.561C42.1484 86.54 38.418 88.9075 34.3555 90.5252C32.1875 91.5708 29.6875 91.6695 27.4609 90.7817C24.3555 88.9666 23.0664 82.0025 24.8242 72.6314C25.0391 71.5266 25.2734 70.4218 25.5469 69.3367C29.9219 70.2837 34.3359 70.9348 38.8086 71.2701C41.3867 74.9594 44.2187 78.4908 47.2461 81.8052C46.6211 82.4168 45.9961 83.0086 45.3711 83.561ZM50.1562 78.767C48.1641 76.5968 46.1719 74.19 44.2383 71.6055C46.1133 71.6844 48.0469 71.7239 50 71.7239C52.0117 71.7239 53.9844 71.6844 55.9375 71.5858C54.1406 74.0913 52.207 76.4785 50.1562 78.767ZM75.6836 84.6855C75.5078 87.0924 74.3359 89.3415 72.4609 90.8606C69.3555 92.6756 62.7344 90.3082 55.5859 84.1134C54.7656 83.4032 53.9453 82.6338 53.1055 81.8446C56.0937 78.5105 58.8477 74.9791 61.3477 71.2701C65.8203 70.8953 70.2734 70.2048 74.668 69.1986C74.8633 70.0075 75.0391 70.8164 75.1953 71.6055C76.1523 75.8669 76.3086 80.3058 75.6836 84.6855ZM79.2383 63.4774C78.6914 63.6549 78.1445 63.8325 77.5781 63.9903C76.2109 59.6895 74.5313 55.4873 72.5977 51.4035C74.4727 47.3789 76.0547 43.2359 77.3828 38.9943C78.3984 39.2902 79.375 39.6058 80.3125 39.9215C89.4141 43.0781 95.8008 47.7735 95.8008 51.3641C95.8008 55.2308 88.9844 60.2222 79.2383 63.4774ZM50 60.5181C54.9414 60.5181 58.9453 56.4737 58.9453 51.4824C58.9453 46.4911 54.9414 42.4468 50 42.4468C45.0586 42.4468 41.0547 46.4911 41.0547 51.4824C41.0547 56.4737 45.0586 60.5181 50 60.5181Z" fill="#00ADB5"/>
<path d="M81.6797 32.9061C80.625 32.5509 79.5703 32.2156 78.5156 31.8999C78.6914 31.17 78.8477 30.44 79.0039 29.71C81.4063 17.9518 79.8242 8.50186 74.4922 5.38475C69.3555 2.40575 60.9766 5.50313 52.5 12.9605C51.6602 13.6905 50.8398 14.4599 50.0586 15.2293C49.5312 14.7164 48.9844 14.2034 48.4375 13.7102C39.5508 5.73987 30.6445 2.38602 25.3125 5.52285C20.1953 8.52159 18.6719 17.4192 20.8203 28.5461C21.0352 29.6509 21.2695 30.7359 21.543 31.8407C20.293 32.1958 19.0625 32.5904 17.9102 33.0047C7.48047 36.6545 0 42.4152 0 48.3732C0 54.5285 7.96875 60.7036 18.8086 64.452C19.6875 64.7479 20.5664 65.0438 21.4648 65.3003C21.1719 66.484 20.918 67.648 20.6836 68.8515C18.6328 79.8008 20.2344 88.4814 25.3516 91.4604C30.625 94.538 39.4922 91.3814 48.125 83.7465C48.8086 83.1349 49.4922 82.5036 50.1758 81.8328C51.0352 82.6812 51.9336 83.49 52.832 84.2792C61.1914 91.5393 69.4531 94.4788 74.5508 91.4998C79.8242 88.4222 81.543 79.0906 79.3164 67.7269C79.1406 66.8589 78.9453 65.9711 78.7305 65.0636C79.3555 64.886 79.9609 64.6887 80.5664 64.4914C91.8359 60.7233 100 54.6272 100 48.3732C100 42.3955 92.3047 36.5953 81.6797 32.9061ZM55.2539 16.1565C62.5195 9.76449 69.2969 7.25897 72.3828 9.05426C75.6836 10.9679 76.9531 18.7015 74.8828 28.8617C74.7461 29.5325 74.6094 30.1835 74.4336 30.8346C70.0977 29.8481 65.7031 29.1379 61.2891 28.7433C58.75 25.0738 55.9766 21.5622 52.9688 18.2675C53.7305 17.5375 54.4727 16.847 55.2539 16.1565ZM32.6562 58.6123C33.6523 60.3287 34.668 62.0451 35.7422 63.722C32.6953 63.3867 29.668 62.8934 26.6797 62.2424C27.5391 59.4015 28.6133 56.4619 29.8633 53.4632C30.7617 55.1993 31.6797 56.9157 32.6562 58.6123ZM26.7383 34.8789C29.5508 34.2476 32.5391 33.7347 35.6445 33.3401C34.6094 34.9776 33.5938 36.6545 32.6367 38.3511C31.6797 40.0281 30.7422 41.7444 29.8633 43.4806C28.6328 40.541 27.5977 37.6606 26.7383 34.8789ZM32.0898 48.4719C33.3789 45.7493 34.7852 43.086 36.2695 40.4621C37.7539 37.8382 39.3555 35.2932 41.0352 32.7877C43.9648 32.5707 46.9531 32.4523 50 32.4523C53.0469 32.4523 56.0547 32.5707 58.9648 32.7877C60.625 35.2735 62.207 37.8185 63.7109 40.4226C65.2148 43.0268 66.6211 45.6902 67.9492 48.393C66.6406 51.1155 65.2344 53.7986 63.7305 56.4422C62.2461 59.0661 60.6641 61.6111 59.0039 64.1363C56.0938 64.3534 53.0664 64.452 50 64.452C46.9336 64.452 43.9648 64.3534 41.0937 64.1758C39.3945 61.6703 37.793 59.1056 36.2891 56.4817C34.7852 53.8578 33.3984 51.1944 32.0898 48.4719ZM67.3633 58.5729C68.3594 56.8368 69.2969 55.0809 70.2148 53.3054C71.4648 56.166 72.5586 59.0661 73.5156 62.0451C70.4883 62.7356 67.4219 63.2683 64.3359 63.6234C65.3906 61.9662 66.3867 60.2695 67.3633 58.5729ZM70.1758 43.4806C69.2578 41.7444 68.3203 40.0083 67.3437 38.3117C66.3867 36.6348 65.3906 34.9776 64.3555 33.3401C67.5 33.7347 70.5078 34.2673 73.3203 34.9184C72.4219 37.8382 71.3672 40.6791 70.1758 43.4806ZM50.0391 21.286C52.0898 23.535 54.0234 25.9024 55.8203 28.3488C51.9531 28.1712 48.0664 28.1712 44.1992 28.3488C46.1133 25.8038 48.0859 23.4364 50.0391 21.286ZM27.3828 9.19236C30.6641 7.25897 37.9492 10.021 45.625 16.8865C46.1133 17.3205 46.6016 17.794 47.1094 18.2675C44.082 21.5622 41.2891 25.0738 38.7305 28.7433C34.3164 29.1379 29.9414 29.8284 25.6055 30.7951C25.3516 29.789 25.1367 28.7631 24.9219 27.7372C23.0859 18.1886 24.2969 10.9877 27.3828 9.19236ZM22.5977 61.1968C21.7773 60.96 20.9766 60.7036 20.1758 60.4274C16.0156 59.1056 11.2891 57.0143 7.87109 54.2721C5.89844 52.8911 4.57031 50.7604 4.19922 48.3732C4.19922 44.7629 10.3711 40.1464 19.2773 37.0096C20.3906 36.615 21.5234 36.2599 22.6562 35.9245C23.9844 40.2056 25.5859 44.4078 27.4414 48.4719C25.5664 52.5951 23.9453 56.8565 22.5977 61.1968ZM45.3711 80.5308C42.1484 83.5098 38.418 85.8772 34.3555 87.4949C32.1875 88.5405 29.6875 88.6392 27.4609 87.7514C24.3555 85.9364 23.0664 78.9722 24.8242 69.6011C25.0391 68.4963 25.2734 67.3915 25.5469 66.3065C29.9219 67.2534 34.3359 67.9045 38.8086 68.2399C41.3867 71.9291 44.2187 75.4605 47.2461 78.7749C46.6211 79.3865 45.9961 79.9784 45.3711 80.5308ZM50.1562 75.7367C48.1641 73.5666 46.1719 71.1597 44.2383 68.5753C46.1133 68.6542 48.0469 68.6936 50 68.6936C52.0117 68.6936 53.9844 68.6542 55.9375 68.5555C54.1406 71.0611 52.207 73.4482 50.1562 75.7367ZM75.6836 81.6553C75.5078 84.0622 74.3359 86.3112 72.4609 87.8303C69.3555 89.6453 62.7344 87.2779 55.5859 81.0831C54.7656 80.3729 53.9453 79.6035 53.1055 78.8144C56.0937 75.4802 58.8477 71.9488 61.3477 68.2399C65.8203 67.865 70.2734 67.1745 74.668 66.1684C74.8633 66.9772 75.0391 67.7861 75.1953 68.5753C76.1523 72.8366 76.3086 77.2755 75.6836 81.6553ZM79.2383 60.4471C78.6914 60.6247 78.1445 60.8022 77.5781 60.96C76.2109 56.6592 74.5313 52.457 72.5977 48.3732C74.4727 44.3486 76.0547 40.2056 77.3828 35.964C78.3984 36.2599 79.375 36.5756 80.3125 36.8912C89.4141 40.0478 95.8008 44.7432 95.8008 48.3338C95.8008 52.2006 88.9844 57.1919 79.2383 60.4471ZM50 57.4878C54.9414 57.4878 58.9453 53.4435 58.9453 48.4521C58.9453 43.4608 54.9414 39.4165 50 39.4165C45.0586 39.4165 41.0547 43.4608 41.0547 48.4521C41.0547 53.4435 45.0586 57.4878 50 57.4878Z" fill="#EEEEEE"/>
</svg>
