<svg width="100" height="100" viewBox="0 0 100 100" fill="none" xmlns="http://www.w3.org/2000/svg">
<g clip-path="url(#clip0_1360_386)">
<g clip-path="url(#clip1_1360_386)">
<path d="M69.2894 70.5594C72.9797 70.1717 75.7793 66.9437 75.6519 63.0696C75.525 59.1959 72.3433 56.0967 68.5258 56.0967H68.2715C64.3262 56.2259 61.2723 59.5832 61.3996 63.5861C61.5269 65.5231 62.2902 67.2017 63.4355 68.3639C59.109 77.0158 52.4918 83.343 42.566 88.6373C35.8215 92.253 28.8226 93.5443 21.8238 92.6406C16.0973 91.8657 11.6434 89.2834 8.84335 85.0216C4.77148 78.6944 4.38984 71.8503 7.82578 65.0067C10.2437 60.0996 14.0609 56.484 16.4789 54.6761C15.9699 52.9975 15.2062 50.1568 14.8246 48.0909C-3.62735 61.6494 -1.71836 79.9858 3.88085 88.6373C8.08007 95.0941 16.6062 99.0971 26.023 99.0971C28.568 99.0971 31.1129 98.8386 33.6582 98.1933C49.9469 94.9649 62.2906 85.1509 69.2894 70.5594ZM91.6863 54.5473C82.0148 43.0546 67.7625 36.7274 51.4738 36.7274H49.4379C48.2926 34.4031 45.8746 32.8533 43.2023 32.8533H42.9476C39.0031 32.9825 35.9492 36.3398 36.0762 40.3431C36.2035 44.2168 39.3848 47.316 43.2023 47.316H43.4566C46.2562 47.1868 48.6742 45.3789 49.6922 42.9254H51.9828C61.6543 42.9254 70.8164 45.7662 79.0883 51.3189C85.4508 55.5803 90.032 61.133 92.5769 67.8474C94.7402 73.2709 94.6129 78.5652 92.3223 83.085C88.7594 89.9287 82.7785 93.6736 74.8887 93.6736C69.7984 93.6736 64.9629 92.1238 62.4176 90.9616C61.018 92.253 58.4726 94.3188 56.691 95.6106C62.1633 98.1929 67.7625 99.6135 73.107 99.6135C85.3234 99.6135 94.3586 92.7694 97.7945 85.9258C101.485 78.436 101.23 65.5231 91.6863 54.5473ZM27.041 72.7541C27.1684 76.6282 30.3496 79.727 34.1672 79.727H34.4219C38.3668 79.5981 41.4207 76.2405 41.2933 72.2376C41.1664 68.3635 37.9848 65.2647 34.1672 65.2647H33.9129C33.6582 65.2647 33.2762 65.2647 33.0223 65.3935C27.8047 56.6128 25.6414 47.0576 26.4051 36.727C26.9137 28.9792 29.459 22.2644 33.9129 16.7116C37.6031 11.9338 44.7293 9.60953 49.5652 9.48072C63.0539 9.22228 68.7801 26.2673 69.1621 33.1114C70.8164 33.4986 73.616 34.4027 75.525 35.0484C73.9976 14.1297 61.2723 3.28271 49.0562 3.28271C37.6031 3.28271 27.041 11.6762 22.8414 24.0726C16.9879 40.6011 20.8055 56.484 27.9316 69.0096C27.2957 69.9133 26.9137 71.3335 27.041 72.7541Z" fill="#00ADB5"/>
</g>
<g clip-path="url(#clip2_1360_386)">
<path d="M69.2894 67.2806C72.9797 66.8929 75.7793 63.6649 75.6519 59.7908C75.525 55.9171 72.3433 52.8179 68.5258 52.8179H68.2715C64.3262 52.9471 61.2723 56.3044 61.3996 60.3073C61.5269 62.2443 62.2902 63.9229 63.4355 65.0851C59.109 73.737 52.4918 80.0642 42.566 85.3585C35.8215 88.9742 28.8226 90.2655 21.8238 89.3618C16.0973 88.5869 11.6434 86.0046 8.84335 81.7428C4.77148 75.4156 4.38984 68.5715 7.82578 61.7279C10.2437 56.8208 14.0609 53.2052 16.4789 51.3973C15.9699 49.7187 15.2062 46.8779 14.8246 44.8121C-3.62735 58.3706 -1.71836 76.707 3.88085 85.3585C8.08007 91.8153 16.6062 95.8182 26.023 95.8182C28.568 95.8182 31.1129 95.5598 33.6582 94.9145C49.9469 91.6861 62.2906 81.8721 69.2894 67.2806ZM91.6863 51.2685C82.0148 39.7758 67.7625 33.4486 51.4738 33.4486H49.4379C48.2926 31.1243 45.8746 29.5745 43.2023 29.5745H42.9476C39.0031 29.7037 35.9492 33.061 36.0762 37.0643C36.2035 40.938 39.3848 44.0372 43.2023 44.0372H43.4566C46.2562 43.908 48.6742 42.1001 49.6922 39.6466H51.9828C61.6543 39.6466 70.8164 42.4874 79.0883 48.0401C85.4508 52.3014 90.032 57.8542 92.5769 64.5686C94.7402 69.9921 94.6129 75.2864 92.3223 79.8062C88.7594 86.6499 82.7785 90.3947 74.8887 90.3947C69.7984 90.3947 64.9629 88.8449 62.4176 87.6828C61.018 88.9742 58.4726 91.04 56.691 92.3318C62.1633 94.9141 67.7625 96.3347 73.107 96.3347C85.3234 96.3347 94.3586 89.4906 97.7945 82.647C101.485 75.1572 101.23 62.2443 91.6863 51.2685ZM27.041 69.4753C27.1684 73.3494 30.3496 76.4482 34.1672 76.4482H34.4219C38.3668 76.3193 41.4207 72.9617 41.2933 68.9588C41.1664 65.0847 37.9848 61.9859 34.1672 61.9859H33.9129C33.6582 61.9859 33.2762 61.9859 33.0223 62.1147C27.8047 53.334 25.6414 43.7787 26.4051 33.4482C26.9137 25.7004 29.459 18.9856 33.9129 13.4328C37.6031 8.65503 44.7293 6.33073 49.5652 6.20191C63.0539 5.94347 68.7801 22.9885 69.1621 29.8325C70.8164 30.2198 73.616 31.1239 75.525 31.7696C73.9976 10.8509 61.2723 0.00390625 49.0562 0.00390625C37.6031 0.00390625 27.041 8.39739 22.8414 20.7938C16.9879 37.3223 20.8055 53.2052 27.9316 65.7308C27.2957 66.6345 26.9137 68.0547 27.041 69.4753Z" fill="#EEEEEE"/>
</g>
</g>
<defs>
<clipPath id="clip0_1360_386">
<rect width="100" height="100" fill="white"/>
</clipPath>
<clipPath id="clip1_1360_386">
<rect width="100" height="96.7213" fill="white" transform="translate(0 3.27881)"/>
</clipPath>
<clipPath id="clip2_1360_386">
<rect width="100" height="96.7213" fill="white"/>
</clipPath>
</defs>
</svg>
