<svg width="100" height="100" viewBox="0 0 100 100" fill="none" xmlns="http://www.w3.org/2000/svg">
<g clip-path="url(#clip0_1372_59)">
<path d="M25.9396 2.39209C19.3541 2.39209 14 7.79239 14 14.4346V86.6894C14 93.3316 19.3541 98.7319 25.9396 98.7319H73.6978C80.2832 98.7319 85.6373 93.3316 85.6373 86.6894V32.4983H61.7582C58.4562 32.4983 55.7884 29.8075 55.7884 26.477V2.39209H25.9396ZM61.7582 2.39209V26.477H85.6373L61.7582 2.39209ZM34.8942 50.562H64.7431C66.3848 50.562 67.728 51.9168 67.728 53.5726C67.728 55.2285 66.3848 56.5832 64.7431 56.5832H34.8942C33.2525 56.5832 31.9093 55.2285 31.9093 53.5726C31.9093 51.9168 33.2525 50.562 34.8942 50.562ZM34.8942 62.6045H64.7431C66.3848 62.6045 67.728 63.9593 67.728 65.6151C67.728 67.2709 66.3848 68.6257 64.7431 68.6257H34.8942C33.2525 68.6257 31.9093 67.2709 31.9093 65.6151C31.9093 63.9593 33.2525 62.6045 34.8942 62.6045ZM34.8942 74.647H64.7431C66.3848 74.647 67.728 76.0017 67.728 77.6576C67.728 79.3134 66.3848 80.6682 64.7431 80.6682H34.8942C33.2525 80.6682 31.9093 79.3134 31.9093 77.6576C31.9093 76.0017 33.2525 74.647 34.8942 74.647Z" fill="#00ADB5"/>
</g>
<g clip-path="url(#clip1_1372_59)">
<path d="M25.9396 0C19.3541 0 14 5.4003 14 12.0425V84.2973C14 90.9395 19.3541 96.3398 25.9396 96.3398H73.6978C80.2832 96.3398 85.6373 90.9395 85.6373 84.2973V30.1062H61.7582C58.4562 30.1062 55.7884 27.4155 55.7884 24.085V0H25.9396ZM61.7582 0V24.085H85.6373L61.7582 0ZM34.8942 48.1699H64.7431C66.3848 48.1699 67.728 49.5247 67.728 51.1805C67.728 52.8364 66.3848 54.1912 64.7431 54.1912H34.8942C33.2525 54.1912 31.9093 52.8364 31.9093 51.1805C31.9093 49.5247 33.2525 48.1699 34.8942 48.1699ZM34.8942 60.2124H64.7431C66.3848 60.2124 67.728 61.5672 67.728 63.223C67.728 64.8789 66.3848 66.2336 64.7431 66.2336H34.8942C33.2525 66.2336 31.9093 64.8789 31.9093 63.223C31.9093 61.5672 33.2525 60.2124 34.8942 60.2124ZM34.8942 72.2549H64.7431C66.3848 72.2549 67.728 73.6097 67.728 75.2655C67.728 76.9213 66.3848 78.2761 64.7431 78.2761H34.8942C33.2525 78.2761 31.9093 76.9213 31.9093 75.2655C31.9093 73.6097 33.2525 72.2549 34.8942 72.2549Z" fill="#EEEEEE"/>
</g>
<defs>
<clipPath id="clip0_1372_59">
<rect width="71.6373" height="96.3398" fill="white" transform="translate(14 3.66016)"/>
</clipPath>
<clipPath id="clip1_1372_59">
<rect width="71.6373" height="96.3398" fill="white" transform="translate(14)"/>
</clipPath>
</defs>
</svg>
