<svg width="100" height="100" viewBox="0 0 100 100" fill="none" xmlns="http://www.w3.org/2000/svg">
<g clip-path="url(#clip0_1360_362)">
<path d="M47.6887 69.7745C47.6423 69.8656 47.5959 69.9416 47.6887 69.7745ZM86.2214 56.5575C83.1102 56.5568 80.0405 57.2585 77.2495 58.6084C76.3368 56.8006 75.3932 55.2206 75.2386 54.0357C75.0529 52.6532 74.8518 51.8328 75.0684 50.1921C75.285 48.5514 76.2595 46.227 76.244 46.0599C76.2286 45.8928 76.0275 45.0572 74.032 45.0421C72.0365 45.0269 70.3195 45.4218 70.1184 45.9384C69.766 46.8823 69.4918 47.8527 69.2986 48.84C68.9428 50.6175 65.3076 56.9677 63.2503 60.2795C62.5696 58.9882 61.9973 57.8488 61.8736 56.9373C61.6879 55.5549 61.4868 54.7345 61.7034 53.0938C61.92 51.453 62.8945 49.1287 62.879 48.9616C62.8636 48.7945 62.6625 47.9589 60.667 47.9437C58.6715 47.9285 56.9545 48.3235 56.7534 48.84C56.5523 49.3566 56.3357 50.5719 55.9336 51.7417C55.5314 52.9115 50.6896 63.485 49.4212 66.2348C48.7715 67.6324 48.2147 68.7566 47.8125 69.5162C47.7506 69.6378 47.7042 69.7137 47.6732 69.7745C47.7197 69.6985 47.7506 69.6226 47.7506 69.653C47.4103 70.3062 47.2092 70.6708 47.2092 70.6708V70.686C46.9462 71.1722 46.6523 71.6127 46.5131 71.6127C46.4203 71.6127 46.2192 70.3366 46.5595 68.5895C47.2865 64.9131 49.0036 59.2009 48.9881 59.0034C48.9726 58.8971 49.3129 57.9096 47.8589 57.3779C46.4512 56.8766 45.9407 57.7121 45.817 57.7121C45.6932 57.7121 45.6004 58.0159 45.6004 58.0159C45.6004 58.0159 47.1628 51.5746 42.5995 51.5746C39.7532 51.5746 35.7932 54.6433 33.8442 57.4235C32.6221 58.0767 29.977 59.4896 27.1926 60.9936C26.1253 61.5709 25.027 62.1633 23.9906 62.7254C23.9132 62.6495 23.8514 62.5735 23.774 62.4976C18.2362 56.6943 8.01136 52.5924 8.44449 44.799C8.59918 41.9581 9.60464 34.4989 28.1053 25.4445C43.2646 18.0308 55.3922 20.0665 57.465 24.5937C60.4659 31.0503 50.9836 43.0671 35.2364 44.799C29.2345 45.4522 26.0789 43.1734 25.29 42.3227C24.4701 41.4264 24.3464 41.3808 24.037 41.5479C23.5265 41.8214 23.8514 42.6113 24.037 43.0823C24.5011 44.2825 26.4346 46.4093 29.7295 47.4728C32.6221 48.3995 39.6604 48.916 48.1682 45.6801C57.7279 42.0644 65.1684 31.9922 62.9873 23.5607C60.7907 14.9924 46.3275 12.1819 32.6531 16.9522C24.5011 19.7931 15.6839 24.2595 9.34168 30.078C1.8084 37.0055 0.601833 43.0367 1.09683 45.5586C2.86027 54.5066 15.4209 60.3403 20.4482 64.6548C20.2007 64.7915 19.9687 64.9131 19.7521 65.0346C17.2307 66.2652 7.65558 71.1873 5.25793 76.383C2.5509 82.2774 5.70652 86.5008 7.77933 87.0781C14.2453 88.8404 20.8659 85.6652 24.4237 80.4544C27.9815 75.2436 27.5484 68.4376 25.9087 65.3385C25.8932 65.2929 25.8623 65.2625 25.8468 65.2169C26.4965 64.8371 27.1617 64.4573 27.8268 64.0775C29.1107 63.3331 30.3637 62.6495 31.462 62.057C30.8432 63.6977 30.3946 65.6727 30.1626 68.5288C29.8842 71.871 31.2918 76.2007 33.1171 77.9022C33.9215 78.6466 34.8961 78.6618 35.4993 78.6618C37.634 78.6618 38.5931 76.9299 39.6604 74.8638C40.9753 72.3419 42.1354 69.4099 42.1354 69.4099C42.1354 69.4099 40.6814 77.3401 44.6568 77.3401C46.1109 77.3401 47.565 75.5018 48.2147 74.5599V74.5751C48.2147 74.5751 48.2456 74.5144 48.3229 74.3928C48.4776 74.165 48.555 74.0282 48.555 74.0282V73.9827C49.1428 72.9952 50.4267 70.7316 52.3603 66.9944C54.8662 62.1633 57.2639 56.1322 57.2639 56.1322C57.4954 57.458 57.8158 58.7673 58.2229 60.0517C58.6561 61.4949 59.5687 63.0749 60.2957 64.6092C59.7079 65.3992 59.3522 65.855 59.3522 65.855C59.3531 65.8667 59.3587 65.8776 59.3676 65.8854C58.9036 66.493 58.3776 67.1463 57.8362 67.7844C55.8562 70.0935 53.505 72.7369 53.1956 73.4965C52.8243 74.3928 52.9172 75.0613 53.6287 75.5778C54.1547 75.9728 55.0828 76.0336 56.0573 75.9576C57.8362 75.8361 59.0892 75.4107 59.6925 75.1372C60.8052 74.7457 61.8569 74.2037 62.8172 73.5269C64.7507 72.1292 65.9264 70.1239 65.8181 67.4805C65.7562 66.0221 65.2767 64.5637 64.6889 63.1964C64.859 62.9533 65.0447 62.6951 65.2148 62.4368C68.2622 58.0463 70.6289 53.2305 70.6289 53.2305C70.8604 54.5563 71.1808 55.8657 71.5879 57.15C71.9592 58.3806 72.6862 59.7326 73.3514 61.0543C70.4742 63.3483 68.6953 66.0069 68.0765 67.754C66.9318 70.9898 67.829 72.4483 69.5151 72.7825C70.2731 72.9344 71.3559 72.585 72.1603 72.2508C73.3554 71.86 74.4823 71.2913 75.5015 70.5645C77.4351 69.1668 79.3068 67.2071 79.1831 64.5485C79.1367 63.3483 78.7964 62.1482 78.3478 60.9936C80.7764 59.9909 83.932 59.444 87.9539 59.8997C96.57 60.8872 98.2561 66.174 97.9312 68.3768C97.6064 70.5797 95.7965 71.8102 95.1932 72.1748C94.59 72.5394 94.4043 72.6762 94.4507 72.9496C94.5281 73.3446 94.8065 73.3294 95.317 73.2383C96.0286 73.1167 99.8339 71.4456 100.004 67.359C100.252 62.1937 95.1932 56.5119 86.2368 56.5575H86.2214ZM19.8295 78.5402C16.9832 81.5938 12.9923 82.7484 11.2753 81.7761C9.44996 80.7279 10.177 76.2311 13.6884 72.98C15.8231 71.005 18.5765 69.182 20.4018 68.0578C20.8195 67.8147 21.4228 67.4501 22.1653 67.0096C22.289 66.9336 22.3509 66.9032 22.3509 66.9032C22.4901 66.8121 22.6448 66.7361 22.7995 66.645C24.0834 71.2633 22.8459 75.3347 19.845 78.5402H19.8295ZM40.6195 64.6548C39.6295 67.04 37.5412 73.1167 36.2728 72.7977C35.19 72.5242 34.5248 67.8907 36.0562 63.3331C36.8296 61.0391 38.4693 58.3046 39.4439 57.2412C41.0062 55.5245 42.7232 54.9776 43.1254 55.6612C43.6668 56.5575 41.2382 63.166 40.6195 64.6548ZM57.7898 72.7065C57.3722 72.9192 56.9854 73.0559 56.7998 72.9496C56.6606 72.8736 56.97 72.585 56.97 72.585C56.97 72.585 59.1201 70.3214 59.9709 69.2884C60.4659 68.6807 61.0382 67.9667 61.657 67.1767C61.657 67.2526 61.6725 67.3286 61.6725 67.4197C61.657 70.1391 58.9964 71.9773 57.7898 72.7065ZM71.0311 69.7441C70.7217 69.5314 70.7681 68.8174 71.8045 66.5994C72.2067 65.7334 73.1348 64.275 74.7436 62.8774C74.9258 63.4064 75.0249 63.9597 75.0375 64.5181C75.022 67.9363 72.5315 69.2124 71.0311 69.7441Z" fill="#00ADB5"/>
</g>
<g clip-path="url(#clip1_1360_362)">
<path d="M47.6887 67.2681C47.6423 67.3593 47.5959 67.4353 47.6887 67.2681ZM86.2214 54.0512C83.1102 54.0504 80.0405 54.7521 77.2495 56.1021C76.3368 54.2942 75.3932 52.7143 75.2386 51.5293C75.0529 50.1469 74.8518 49.3265 75.0684 47.6858C75.285 46.045 76.2595 43.7207 76.244 43.5536C76.2286 43.3865 76.0275 42.5509 74.032 42.5357C72.0365 42.5205 70.3195 42.9155 70.1184 43.432C69.766 44.376 69.4918 45.3463 69.2986 46.3337C68.9428 48.1111 65.3076 54.4614 63.2503 57.7732C62.5696 56.4819 61.9973 55.3425 61.8736 54.431C61.6879 53.0485 61.4868 52.2282 61.7034 50.5874C61.92 48.9467 62.8945 46.6223 62.879 46.4552C62.8636 46.2881 62.6625 45.4526 60.667 45.4374C58.6715 45.4222 56.9545 45.8172 56.7534 46.3337C56.5523 46.8502 56.3357 48.0656 55.9336 49.2353C55.5314 50.4051 50.6896 60.9787 49.4212 63.7284C48.7715 65.1261 48.2147 66.2503 47.8125 67.0099C47.7506 67.1314 47.7042 67.2074 47.6732 67.2681C47.7197 67.1922 47.7506 67.1162 47.7506 67.1466C47.4103 67.7999 47.2092 68.1645 47.2092 68.1645V68.1797C46.9462 68.6658 46.6523 69.1064 46.5131 69.1064C46.4203 69.1064 46.2192 67.8302 46.5595 66.0832C47.2865 62.4067 49.0036 56.6946 48.9881 56.4971C48.9726 56.3907 49.3129 55.4033 47.8589 54.8715C46.4512 54.3702 45.9407 55.2058 45.817 55.2058C45.6932 55.2058 45.6004 55.5096 45.6004 55.5096C45.6004 55.5096 47.1628 49.0682 42.5995 49.0682C39.7532 49.0682 35.7932 52.137 33.8442 54.9171C32.6221 55.5704 29.977 56.9832 27.1926 58.4872C26.1253 59.0645 25.027 59.657 23.9906 60.2191C23.9132 60.1431 23.8514 60.0672 23.774 59.9912C18.2362 54.1879 8.01136 50.0861 8.44449 42.2926C8.59918 39.4517 9.60464 31.9925 28.1053 22.9381C43.2646 15.5245 55.3922 17.5602 57.465 22.0874C60.4659 28.5439 50.9836 40.5608 35.2364 42.2926C29.2345 42.9459 26.0789 40.6671 25.29 39.8163C24.4701 38.92 24.3464 38.8745 24.037 39.0416C23.5265 39.315 23.8514 40.105 24.037 40.5759C24.5011 41.7761 26.4346 43.903 29.7295 44.9664C32.6221 45.8931 39.6604 46.4096 48.1682 43.1738C57.7279 39.5581 65.1684 29.4858 62.9873 21.0543C60.7907 12.4861 46.3275 9.67558 32.6531 14.4458C24.5011 17.2867 15.6839 21.7532 9.34168 27.5717C1.8084 34.4992 0.601833 40.5304 1.09683 43.0522C2.86027 52.0003 15.4209 57.834 20.4482 62.1485C20.2007 62.2852 19.9687 62.4067 19.7521 62.5283C17.2307 63.7588 7.65558 68.681 5.25793 73.8766C2.5509 79.7711 5.70652 83.9944 7.77933 84.5717C14.2453 86.334 20.8659 83.1589 24.4237 77.9481C27.9815 72.7372 27.5484 65.9313 25.9087 62.8321C25.8932 62.7865 25.8623 62.7561 25.8468 62.7106C26.4965 62.3308 27.1617 61.951 27.8268 61.5712C29.1107 60.8268 30.3637 60.1431 31.462 59.5507C30.8432 61.1914 30.3946 63.1663 30.1626 66.0224C29.8842 69.3646 31.2918 73.6943 33.1171 75.3958C33.9215 76.1402 34.8961 76.1554 35.4993 76.1554C37.634 76.1554 38.5931 74.4235 39.6604 72.3574C40.9753 69.8356 42.1354 66.9035 42.1354 66.9035C42.1354 66.9035 40.6814 74.8337 44.6568 74.8337C46.1109 74.8337 47.565 72.9955 48.2147 72.0536V72.0688C48.2147 72.0688 48.2456 72.008 48.3229 71.8865C48.4776 71.6586 48.555 71.5219 48.555 71.5219V71.4763C49.1428 70.4888 50.4267 68.2252 52.3603 64.488C54.8662 59.657 57.2639 53.6258 57.2639 53.6258C57.4954 54.9516 57.8158 56.261 58.2229 57.5453C58.6561 58.9886 59.5687 60.5685 60.2957 62.1029C59.7079 62.8929 59.3522 63.3486 59.3522 63.3486C59.3531 63.3603 59.3587 63.3712 59.3676 63.379C58.9036 63.9867 58.3776 64.6399 57.8362 65.278C55.8562 67.5872 53.505 70.2306 53.1956 70.9902C52.8243 71.8865 52.9172 72.5549 53.6287 73.0715C54.1547 73.4665 55.0828 73.5272 56.0573 73.4513C57.8362 73.3297 59.0892 72.9044 59.6925 72.6309C60.8052 72.2394 61.8569 71.6974 62.8172 71.0206C64.7507 69.6229 65.9264 67.6176 65.8181 64.9742C65.7562 63.5157 65.2767 62.0573 64.6889 60.69C64.859 60.447 65.0447 60.1887 65.2148 59.9305C68.2622 55.54 70.6289 50.7241 70.6289 50.7241C70.8604 52.05 71.1808 53.3593 71.5879 54.6437C71.9592 55.8742 72.6862 57.2263 73.3514 58.548C70.4742 60.842 68.6953 63.5006 68.0765 65.2476C66.9318 68.4835 67.829 69.9419 69.5151 70.2761C70.2731 70.4281 71.3559 70.0787 72.1603 69.7444C73.3554 69.3537 74.4823 68.785 75.5015 68.0581C77.4351 66.6605 79.3068 64.7007 79.1831 62.0421C79.1367 60.842 78.7964 59.6418 78.3478 58.4872C80.7764 57.4846 83.932 56.9376 87.9539 57.3934C96.57 58.3809 98.2561 63.6677 97.9312 65.8705C97.6064 68.0733 95.7965 69.3039 95.1932 69.6685C94.59 70.0331 94.4043 70.1698 94.4507 70.4433C94.5281 70.8382 94.8065 70.8231 95.317 70.7319C96.0286 70.6104 99.8339 68.9393 100.004 64.8526C100.252 59.6874 95.1932 54.0056 86.2368 54.0512H86.2214ZM19.8295 76.0339C16.9832 79.0875 12.9923 80.242 11.2753 79.2698C9.44996 78.2215 10.177 73.7247 13.6884 70.4736C15.8231 68.4987 18.5765 66.6757 20.4018 65.5515C20.8195 65.3084 21.4228 64.9438 22.1653 64.5032C22.289 64.4273 22.3509 64.3969 22.3509 64.3969C22.4901 64.3057 22.6448 64.2298 22.7995 64.1386C24.0834 68.757 22.8459 72.8284 19.845 76.0339H19.8295ZM40.6195 62.1485C39.6295 64.5336 37.5412 70.6104 36.2728 70.2913C35.19 70.0179 34.5248 65.3843 36.0562 60.8268C36.8296 58.5328 38.4693 55.7982 39.4439 54.7348C41.0062 53.0181 42.7232 52.4712 43.1254 53.1549C43.6668 54.0512 41.2382 60.6597 40.6195 62.1485ZM57.7898 70.2002C57.3722 70.4129 56.9854 70.5496 56.7998 70.4433C56.6606 70.3673 56.97 70.0787 56.97 70.0787C56.97 70.0787 59.1201 67.8151 59.9709 66.782C60.4659 66.1743 61.0382 65.4603 61.657 64.6703C61.657 64.7463 61.6725 64.8222 61.6725 64.9134C61.657 67.6328 58.9964 69.471 57.7898 70.2002ZM71.0311 67.2378C70.7217 67.0251 70.7681 66.3111 71.8045 64.093C72.2067 63.2271 73.1348 61.7687 74.7436 60.371C74.9258 60.9001 75.0249 61.4533 75.0375 62.0117C75.022 65.4299 72.5315 66.706 71.0311 67.2378Z" fill="#EEEEEE"/>
</g>
<defs>
<clipPath id="clip0_1360_362">
<rect width="99" height="75.1899" fill="white" transform="translate(1 13.5063)"/>
</clipPath>
<clipPath id="clip1_1360_362">
<rect width="99" height="75.1899" fill="white" transform="translate(1 11)"/>
</clipPath>
</defs>
</svg>
