<svg width="100" height="100" viewBox="0 0 100 100" fill="none" xmlns="http://www.w3.org/2000/svg">
<g clip-path="url(#clip0_1360_456)">
<path fill-rule="evenodd" clip-rule="evenodd" d="M2 3.22559H97.1613V99.9998H2V3.22559Z" fill="#00ADB5"/>
<path fill-rule="evenodd" clip-rule="evenodd" d="M45.8699 40.8468C45.8699 38.5726 47.7017 37.6774 50.7469 37.6774C55.1243 37.6774 60.6437 39.0323 65.0211 41.4274V27.6855C60.2392 25.75 55.5287 25 50.7707 25C39.0896 25 31.334 31.1935 31.334 41.5484C31.334 57.6855 53.1973 55.121 53.1973 62.0887C53.1973 64.7742 50.8896 65.6452 47.6779 65.6452C42.8961 65.6452 36.8058 63.6613 31.9763 60.9758V74.8871C37.3291 77.2339 42.7295 78.2258 47.6779 78.2258C59.6445 78.2258 67.8759 72.2016 67.8759 61.7258C67.7808 44.3065 45.8699 47.4032 45.8699 40.8468Z" fill="white"/>
</g>
<g clip-path="url(#clip1_1360_456)">
<path fill-rule="evenodd" clip-rule="evenodd" d="M2 0H97.1613V96.7742H2V0Z" fill="#EEEEEE"/>
<path fill-rule="evenodd" clip-rule="evenodd" d="M45.5691 36.8145C45.5691 34.5404 47.4009 33.6452 50.4461 33.6452C54.8235 33.6452 60.3429 35 64.7203 37.3952V23.6533C59.9384 21.7178 55.228 20.9678 50.4699 20.9678C38.7888 20.9678 31.0332 27.1613 31.0332 37.5162C31.0332 53.6533 52.8965 51.0887 52.8965 58.0565C52.8965 60.742 50.5888 61.6129 47.3772 61.6129C42.5953 61.6129 36.505 59.6291 31.6755 56.9436V70.8549C37.0284 73.2016 42.4288 74.1936 47.3772 74.1936C59.3437 74.1936 67.5751 68.1694 67.5751 57.6936C67.48 40.2742 45.5691 43.371 45.5691 36.8145Z" fill="#00ADB5"/>
<path fill-rule="evenodd" clip-rule="evenodd" d="M45.8699 39.234C45.8699 36.9598 47.7017 36.0646 50.7469 36.0646C55.1243 36.0646 60.6437 37.4195 65.0211 39.8146V26.0727C60.2392 24.1372 55.5287 23.3872 50.7707 23.3872C39.0896 23.3872 31.334 29.5808 31.334 39.9356C31.334 56.0727 53.1973 53.5082 53.1973 60.4759C53.1973 63.1614 50.8896 64.0324 47.6779 64.0324C42.8961 64.0324 36.8058 62.0485 31.9763 59.363V73.2743C37.3291 75.6211 42.7295 76.613 47.6779 76.613C59.6445 76.613 67.8759 70.5888 67.8759 60.113C67.7808 42.6937 45.8699 45.7904 45.8699 39.234Z" fill="#222831"/>
</g>
<defs>
<clipPath id="clip0_1360_456">
<rect width="95.1613" height="96.7742" fill="white" transform="translate(2 3.22559)"/>
</clipPath>
<clipPath id="clip1_1360_456">
<rect width="95.1613" height="96.7742" fill="white" transform="translate(2)"/>
</clipPath>
</defs>
</svg>
