<svg width="100" height="100" viewBox="0 0 100 100" fill="none" xmlns="http://www.w3.org/2000/svg">
<g clip-path="url(#clip0_1360_504)">
<mask id="mask0_1360_504" style="mask-type:luminance" maskUnits="userSpaceOnUse" x="0" y="20" width="100" height="61">
<path d="M0 20.667H100V80.8852H0V20.667Z" fill="white"/>
</mask>
<g mask="url(#mask0_1360_504)">
<path fill-rule="evenodd" clip-rule="evenodd" d="M50 20.667C36.6667 20.667 28.3333 27.3579 25 40.7397C30 34.0488 35.8333 31.5397 42.5 33.2124C46.3037 34.1659 49.0222 36.9371 52.0315 40.0019C56.9333 44.9959 62.6074 50.7761 75 50.7761C88.3333 50.7761 96.6667 44.0852 100 30.7034C95 37.3943 89.1667 39.9034 82.5 38.2306C78.6963 37.2772 75.9778 34.506 72.9685 31.4412C68.0667 26.4472 62.3926 20.667 50 20.667ZM25 50.7761C11.6667 50.7761 3.33333 57.467 0 70.8488C5 64.1579 10.8333 61.6488 17.5 63.3215C21.3037 64.2769 24.0222 67.0461 27.0315 70.111C31.9333 75.105 37.6074 80.8852 50 80.8852C63.3333 80.8852 71.6667 74.1943 75 60.8124C70 67.5034 64.1667 70.0124 57.5 68.3397C53.6963 67.3863 50.9778 64.6151 47.9685 61.5503C43.0667 56.5563 37.3926 50.7761 25 50.7761Z" fill="#00ADB5"/>
</g>
</g>
<mask id="mask1_1360_504" style="mask-type:luminance" maskUnits="userSpaceOnUse" x="0" y="18" width="100" height="61">
<path d="M0 18H100V78.2182H0V18Z" fill="white"/>
</mask>
<g mask="url(#mask1_1360_504)">
<path fill-rule="evenodd" clip-rule="evenodd" d="M50 18C36.6667 18 28.3333 24.6909 25 38.0727C30 31.3818 35.8333 28.8727 42.5 30.5455C46.3037 31.4989 49.0222 34.2701 52.0315 37.3349C56.9333 42.3289 62.6074 48.1091 75 48.1091C88.3333 48.1091 96.6667 41.4182 100 28.0364C95 34.7273 89.1667 37.2364 82.5 35.5636C78.6963 34.6102 75.9778 31.839 72.9685 28.7742C68.0667 23.7802 62.3926 18 50 18ZM25 48.1091C11.6667 48.1091 3.33333 54.8 0 68.1818C5 61.4909 10.8333 58.9818 17.5 60.6545C21.3037 61.6099 24.0222 64.3792 27.0315 67.444C31.9333 72.438 37.6074 78.2182 50 78.2182C63.3333 78.2182 71.6667 71.5273 75 58.1455C70 64.8364 64.1667 67.3455 57.5 65.6727C53.6963 64.7193 50.9778 61.9481 47.9685 58.8833C43.0667 53.8893 37.3926 48.1091 25 48.1091Z" fill="#EEEEEE"/>
</g>
<defs>
<clipPath id="clip0_1360_504">
<rect width="100" height="61.3333" fill="white" transform="translate(0 20.667)"/>
</clipPath>
</defs>
</svg>
