<svg width="100" height="100" viewBox="0 0 100 100" fill="none" xmlns="http://www.w3.org/2000/svg">
<g clip-path="url(#clip0_1360_392)">
<path d="M89.3238 3.22559H11.4506C6.23119 3.22559 2 7.45678 2 12.6762V90.5494C2 95.7688 6.23119 100 11.4506 100H89.3238C94.5432 100 98.7744 95.7688 98.7744 90.5494V12.6762C98.7744 7.45678 94.5432 3.22559 89.3238 3.22559Z" fill="#00ADB5"/>
<path d="M89.3238 3.22559H11.4506C6.23119 3.22559 2 7.45678 2 12.6762V90.5494C2 95.7688 6.23119 100 11.4506 100H89.3238C94.5432 100 98.7744 95.7688 98.7744 90.5494V12.6762C98.7744 7.45678 94.5432 3.22559 89.3238 3.22559Z" fill="#00ADB5"/>
<path fill-rule="evenodd" clip-rule="evenodd" d="M61.9047 80.2337V89.6959C63.4429 90.4844 65.2621 91.0757 67.3624 91.4699C69.4627 91.8642 71.6763 92.0614 74.0034 92.0614C76.2713 92.0614 78.4257 91.8446 80.4669 91.4108C82.508 90.9772 84.2978 90.2625 85.8359 89.267C87.3741 88.2717 88.5919 86.9705 89.4892 85.3639C90.3864 83.7573 90.8351 81.7713 90.8351 79.4058C90.8351 77.6907 90.5788 76.1877 90.066 74.8966C89.5533 73.6054 88.8138 72.4572 87.8474 71.4518C86.8812 70.4464 85.7225 69.5445 84.3717 68.7461C83.0208 67.9477 81.4974 67.1937 79.8013 66.4842C78.559 65.9716 77.4447 65.4739 76.4587 64.991C75.4726 64.5079 74.6345 64.0151 73.9442 63.5125C73.2539 63.0098 72.7215 62.4775 72.3469 61.9157C71.9723 61.3538 71.7848 60.7182 71.7848 60.0084C71.7848 59.358 71.9524 58.7715 72.2877 58.2491C72.623 57.7267 73.0963 57.2783 73.7076 56.9037C74.319 56.5293 75.0683 56.2384 75.9557 56.0314C76.8433 55.8244 77.8292 55.721 78.9139 55.721C79.7027 55.721 80.5358 55.7802 81.4134 55.8983C82.291 56.0167 83.1735 56.1991 84.0611 56.4453C84.9485 56.6918 85.8112 57.0024 86.6495 57.3768C87.4875 57.7514 88.2615 58.185 88.9715 58.678V49.8367C87.532 49.2848 85.9592 48.8758 84.2533 48.6096C82.5475 48.3435 80.5901 48.2104 78.3815 48.2104C76.1332 48.2104 74.0034 48.452 71.9919 48.9349C69.9804 49.4179 68.2105 50.1718 66.682 51.1968C65.1536 52.2221 63.9458 53.5279 63.0584 55.1149C62.171 56.7016 61.7272 58.599 61.7272 60.8068C61.7272 63.6257 62.5407 66.0307 64.1677 68.0218C65.7946 70.0127 68.2646 71.6981 71.5778 73.0781C72.8793 73.6103 74.0922 74.1326 75.2163 74.6452C76.3403 75.1578 77.3117 75.69 78.1299 76.2419C78.9483 76.7939 79.5942 77.3951 80.0677 78.0457C80.5409 78.6961 80.7776 79.4353 80.7776 80.2634C80.7776 80.8745 80.6296 81.4411 80.3338 81.9635C80.038 82.486 79.5893 82.9392 78.9878 83.3237C78.3864 83.7081 77.637 84.0087 76.7397 84.2255C75.8423 84.4424 74.7923 84.5508 73.5893 84.5508C71.5383 84.5508 69.5072 84.1911 67.4955 83.4715C65.484 82.7521 63.6204 81.6728 61.9047 80.2337ZM45.9976 56.9205H58.136V49.1555H24.3027V56.9205H36.3818V91.4943H45.9976V56.9205Z" fill="white"/>
</g>
<g clip-path="url(#clip1_1360_392)">
<path d="M89.3238 0H11.4506C6.23119 0 2 4.23119 2 9.45063V87.3238C2 92.5432 6.23119 96.7744 11.4506 96.7744H89.3238C94.5432 96.7744 98.7744 92.5432 98.7744 87.3238V9.45063C98.7744 4.23119 94.5432 0 89.3238 0Z" fill="#EEEEEE"/>
<path d="M89.3238 0H11.4506C6.23119 0 2 4.23119 2 9.45063V87.3238C2 92.5432 6.23119 96.7744 11.4506 96.7744H89.3238C94.5432 96.7744 98.7744 92.5432 98.7744 87.3238V9.45063C98.7744 4.23119 94.5432 0 89.3238 0Z" fill="#EEEEEE"/>
<path fill-rule="evenodd" clip-rule="evenodd" d="M61.9047 73.9588V83.421C63.4429 84.2095 65.2621 84.8007 67.3624 85.195C69.4627 85.5893 71.6763 85.7864 74.0034 85.7864C76.2713 85.7864 78.4257 85.5697 80.4669 85.1359C82.508 84.7023 84.2978 83.9876 85.8359 82.9921C87.3741 81.9967 88.5919 80.6956 89.4892 79.089C90.3864 77.4824 90.8351 75.4964 90.8351 73.1309C90.8351 71.4158 90.5788 69.9128 90.066 68.6217C89.5533 67.3305 88.8138 66.1823 87.8474 65.1769C86.8812 64.1715 85.7225 63.2696 84.3717 62.4712C83.0208 61.6728 81.4974 60.9188 79.8013 60.2093C78.559 59.6967 77.4447 59.199 76.4587 58.7161C75.4726 58.233 74.6345 57.7402 73.9442 57.2376C73.2539 56.7349 72.7215 56.2026 72.3469 55.6408C71.9723 55.0789 71.7848 54.4433 71.7848 53.7335C71.7848 53.0831 71.9524 52.4966 72.2877 51.9742C72.623 51.4518 73.0963 51.0034 73.7076 50.6288C74.319 50.2544 75.0683 49.9635 75.9557 49.7565C76.8433 49.5495 77.8292 49.4461 78.9139 49.4461C79.7027 49.4461 80.5358 49.5053 81.4134 49.6234C82.291 49.7418 83.1735 49.9242 84.0611 50.1704C84.9485 50.4169 85.8112 50.7275 86.6495 51.1019C87.4875 51.4765 88.2615 51.9101 88.9715 52.4031V43.5618C87.532 43.0099 85.9592 42.6009 84.2533 42.3347C82.5475 42.0686 80.5901 41.9355 78.3815 41.9355C76.1332 41.9355 74.0034 42.1771 71.9919 42.66C69.9804 43.143 68.2105 43.8969 66.682 44.9219C65.1536 45.9471 63.9458 47.253 63.0584 48.84C62.171 50.4267 61.7272 52.3241 61.7272 54.5319C61.7272 57.3508 62.5407 59.7558 64.1677 61.7469C65.7946 63.7378 68.2646 65.4232 71.5778 66.8032C72.8793 67.3354 74.0922 67.8577 75.2163 68.3703C76.3403 68.8829 77.3117 69.4151 78.1299 69.967C78.9483 70.519 79.5942 71.1202 80.0677 71.7708C80.5409 72.4212 80.7776 73.1604 80.7776 73.9885C80.7776 74.5996 80.6296 75.1662 80.3338 75.6886C80.038 76.2111 79.5893 76.6643 78.9878 77.0488C78.3864 77.4332 77.637 77.7338 76.7397 77.9506C75.8423 78.1675 74.7923 78.2759 73.5893 78.2759C71.5383 78.2759 69.5072 77.9162 67.4955 77.1966C65.484 76.4772 63.6204 75.3979 61.9047 73.9588ZM45.9976 50.6456H58.136V42.8806H24.3027V50.6456H36.3818V85.2194H45.9976V50.6456Z" fill="#00ADB5"/>
<path fill-rule="evenodd" clip-rule="evenodd" d="M61.9047 77.0081V86.4703C63.4429 87.2588 65.2621 87.8501 67.3624 88.2443C69.4627 88.6386 71.6763 88.8358 74.0034 88.8358C76.2713 88.8358 78.4257 88.619 80.4669 88.1852C82.508 87.7516 84.2978 87.0369 85.8359 86.0414C87.3741 85.0461 88.5919 83.7449 89.4892 82.1383C90.3864 80.5317 90.8351 78.5457 90.8351 76.1802C90.8351 74.4651 90.5788 72.9621 90.066 71.671C89.5533 70.3798 88.8138 69.2316 87.8474 68.2262C86.8812 67.2209 85.7225 66.3189 84.3717 65.5205C83.0208 64.7221 81.4974 63.9681 79.8013 63.2586C78.559 62.746 77.4447 62.2483 76.4587 61.7654C75.4726 61.2823 74.6345 60.7895 73.9442 60.2869C73.2539 59.7842 72.7215 59.2519 72.3469 58.6902C71.9723 58.1282 71.7848 57.4926 71.7848 56.7828C71.7848 56.1324 71.9524 55.5459 72.2877 55.0235C72.623 54.5011 73.0963 54.0527 73.7076 53.6781C74.319 53.3037 75.0683 53.0128 75.9557 52.8058C76.8433 52.5989 77.8292 52.4955 78.9139 52.4955C79.7027 52.4955 80.5358 52.5546 81.4134 52.6728C82.291 52.7911 83.1735 52.9735 84.0611 53.2198C84.9485 53.4662 85.8112 53.7768 86.6495 54.1512C87.4875 54.5258 88.2615 54.9594 88.9715 55.4524V46.6111C87.532 46.0592 85.9592 45.6502 84.2533 45.3841C82.5475 45.1179 80.5901 44.9849 78.3815 44.9849C76.1332 44.9849 74.0034 45.2264 71.9919 45.7093C69.9804 46.1923 68.2105 46.9462 66.682 47.9713C65.1536 48.9965 63.9458 50.3024 63.0584 51.8893C62.171 53.4761 61.7272 55.3734 61.7272 57.5812C61.7272 60.4002 62.5407 62.8052 64.1677 64.7962C65.7946 66.7871 68.2646 68.4725 71.5778 69.8525C72.8793 70.3847 74.0922 70.907 75.2163 71.4196C76.3403 71.9322 77.3117 72.4644 78.1299 73.0164C78.9483 73.5683 79.5942 74.1695 80.0677 74.8201C80.5409 75.4705 80.7776 76.2097 80.7776 77.0378C80.7776 77.6489 80.6296 78.2155 80.3338 78.738C80.038 79.2604 79.5893 79.7136 78.9878 80.0981C78.3864 80.4825 77.637 80.7831 76.7397 80.9999C75.8423 81.2169 74.7923 81.3252 73.5893 81.3252C71.5383 81.3252 69.5072 80.9655 67.4955 80.2459C65.484 79.5265 63.6204 78.4473 61.9047 77.0081ZM45.9976 53.6949H58.136V45.9299H24.3027V53.6949H36.3818V88.2687H45.9976V53.6949Z" fill="#222831"/>
</g>
<defs>
<clipPath id="clip0_1360_392">
<rect width="96.7744" height="96.7744" fill="white" transform="translate(2 3.22559)"/>
</clipPath>
<clipPath id="clip1_1360_392">
<rect width="96.7744" height="96.7744" fill="white" transform="translate(2)"/>
</clipPath>
</defs>
</svg>
