<svg width="200" height="211" viewBox="0 0 200 211" fill="none" xmlns="http://www.w3.org/2000/svg">
<g clip-path="url(#clip0_954_234)">
<mask id="mask0_954_234" style="mask-type:luminance" maskUnits="userSpaceOnUse" x="0" y="5" width="114" height="157">
<path d="M113.953 5.87244H0V161.686H113.953V5.87244Z" fill="white"/>
</mask>
<g mask="url(#mask0_954_234)">
<path d="M0.614746 149.078V47.1679C0.614746 19.9917 14.2027 6.40369 41.3789 6.40369H72.6314C99.8075 6.40369 113.396 19.9917 113.396 47.1679V149.078L87.5782 161.307H86.2195V47.1679C86.2195 36.2974 81.6901 30.8622 72.6314 30.8622H41.3789C32.3202 30.8622 27.7909 36.2974 27.7909 47.1679V149.078H3.48847H0.614746Z" fill="#00ADB5"/>
</g>
</g>
<g clip-path="url(#clip1_954_234)">
<mask id="mask1_954_234" style="mask-type:luminance" maskUnits="userSpaceOnUse" x="86" y="50" width="114" height="161">
<path d="M200 50.0582H86.0469V210.523H200V50.0582Z" fill="white"/>
</mask>
<g mask="url(#mask1_954_234)">
<path d="M127.257 210.523C99.8004 210.523 86.0723 195.987 86.0723 166.915V161.682L112.156 148.599H113.529V166.915C113.529 178.543 118.105 184.359 127.257 184.359H158.831C167.983 184.359 172.559 178.543 172.559 166.915V155.431C172.559 143.803 167.983 137.988 158.831 137.988H133.022C105.566 137.988 91.8381 123.404 91.8381 94.2347C91.8381 65.1625 105.566 50.6265 133.022 50.6265H149.084C176.541 50.6265 190.269 62.3522 190.269 85.8038H162.813C162.209 76.7914 158.236 76.7914 149.084 76.7914H133.022C123.87 76.7914 119.294 82.6058 119.294 94.2347C119.294 105.96 123.87 111.823 133.022 111.823H158.831C186.288 111.823 200.016 126.359 200.016 155.431V166.915C200.016 195.987 186.288 210.523 158.831 210.523H127.257Z" fill="#00ADB5"/>
</g>
</g>
<g clip-path="url(#clip2_954_234)">
<mask id="mask2_954_234" style="mask-type:luminance" maskUnits="userSpaceOnUse" x="0" y="0" width="114" height="156">
<path d="M113.953 0.0584717H0V155.872H113.953V0.0584717Z" fill="white"/>
</mask>
<g mask="url(#mask2_954_234)">
<path d="M0.614746 143.264V41.3539C0.614746 14.1778 14.2027 0.589722 41.3789 0.589722H72.6314C99.8075 0.589722 113.396 14.1778 113.396 41.3539V143.264L87.5782 155.493H86.2195V41.3539C86.2195 30.4834 81.6901 25.0482 72.6314 25.0482H41.3789C32.3202 25.0482 27.7909 30.4834 27.7909 41.3539V143.264H3.48847H0.614746Z" fill="#EEEEEE"/>
</g>
</g>
<g clip-path="url(#clip3_954_234)">
<mask id="mask3_954_234" style="mask-type:luminance" maskUnits="userSpaceOnUse" x="86" y="44" width="114" height="161">
<path d="M200 44.2445H86.0469V204.709H200V44.2445Z" fill="white"/>
</mask>
<g mask="url(#mask3_954_234)">
<path d="M127.257 204.71C99.8004 204.71 86.0723 190.173 86.0723 161.101V155.868L112.156 142.786H113.529V161.101C113.529 172.73 118.105 178.545 127.257 178.545H158.831C167.983 178.545 172.559 172.73 172.559 161.101V149.618C172.559 137.989 167.983 132.175 158.831 132.175H133.022C105.566 132.175 91.8381 117.59 91.8381 88.4211C91.8381 59.3489 105.566 44.8129 133.022 44.8129H149.084C176.541 44.8129 190.269 56.5386 190.269 79.9902H162.813C162.209 70.9778 158.236 70.9778 149.084 70.9778H133.022C123.87 70.9778 119.294 76.7922 119.294 88.4211C119.294 100.147 123.87 106.01 133.022 106.01H158.831C186.288 106.01 200.016 120.546 200.016 149.618V161.101C200.016 190.173 186.288 204.71 158.831 204.71H127.257Z" fill="#EEEEEE"/>
</g>
</g>
<defs>
<clipPath id="clip0_954_234">
<rect width="113.953" height="155.814" fill="white" transform="translate(0 5.87244)"/>
</clipPath>
<clipPath id="clip1_954_234">
<rect width="113.953" height="160.465" fill="white" transform="translate(86.0469 50.0582)"/>
</clipPath>
<clipPath id="clip2_954_234">
<rect width="113.953" height="155.814" fill="white" transform="translate(0 0.0584717)"/>
</clipPath>
<clipPath id="clip3_954_234">
<rect width="113.953" height="160.465" fill="white" transform="translate(86.0469 44.2445)"/>
</clipPath>
</defs>
</svg>
