<svg width="39" height="62" viewBox="0 0 39 62" fill="none" xmlns="http://www.w3.org/2000/svg">
<g clip-path="url(#clip0_1123_49)">
<path d="M5.73645 8.76367C2.56945 8.76367 0 11.3185 0 14.4675V48.6907C0 51.8397 2.56945 54.3945 5.73645 54.3945H9.56075C12.7277 54.3945 15.2972 51.8397 15.2972 48.6907V14.4675C15.2972 11.3185 12.7277 8.76367 9.56075 8.76367H5.73645ZM28.6822 8.76367C25.5152 8.76367 22.9458 11.3185 22.9458 14.4675V48.6907C22.9458 51.8397 25.5152 54.3945 28.6822 54.3945H32.5065C35.6735 54.3945 38.243 51.8397 38.243 48.6907V14.4675C38.243 11.3185 35.6735 8.76367 32.5065 8.76367H28.6822Z" fill="#00ADB5"/>
</g>
<g clip-path="url(#clip1_1123_49)">
<path d="M5.73645 7.60498C2.56945 7.60498 0 10.1598 0 13.3088V47.532C0 50.681 2.56945 53.2358 5.73645 53.2358H9.56075C12.7277 53.2358 15.2972 50.681 15.2972 47.532V13.3088C15.2972 10.1598 12.7277 7.60498 9.56075 7.60498H5.73645ZM28.6822 7.60498C25.5152 7.60498 22.9458 10.1598 22.9458 13.3088V47.532C22.9458 50.681 25.5152 53.2358 28.6822 53.2358H32.5065C35.6735 53.2358 38.243 50.681 38.243 47.532V13.3088C38.243 10.1598 35.6735 7.60498 32.5065 7.60498H28.6822Z" fill="#EEEEEE"/>
</g>
<defs>
<clipPath id="clip0_1123_49">
<rect width="38.243" height="60.8411" fill="white" transform="translate(0 1.15869)"/>
</clipPath>
<clipPath id="clip1_1123_49">
<rect width="38.243" height="60.8411" fill="white"/>
</clipPath>
</defs>
</svg>
