<svg width="45" height="62" viewBox="0 0 45 62" fill="none" xmlns="http://www.w3.org/2000/svg">
<path d="M8.55469 6.57023C6.82031 5.50383 4.64063 5.46867 2.87109 6.46477C1.10156 7.46086 0 9.33586 0 11.3749V52.6249C0 54.664 1.10156 56.539 2.87109 57.5351C4.64063 58.5312 6.82031 58.4843 8.55469 57.4296L42.3047 36.8046C43.9805 35.7851 45 33.9687 45 31.9999C45 30.0312 43.9805 28.2265 42.3047 27.1952L8.55469 6.57023Z" fill="#00ADB5"/>
<path d="M8.55469 4.57023C6.82031 3.50383 4.64063 3.46867 2.87109 4.46477C1.10156 5.46086 0 7.33586 0 9.37492V50.6249C0 52.664 1.10156 54.539 2.87109 55.5351C4.64063 56.5312 6.82031 56.4843 8.55469 55.4296L42.3047 34.8046C43.9805 33.7851 45 31.9687 45 29.9999C45 28.0312 43.9805 26.2265 42.3047 25.1952L8.55469 4.57023Z" fill="#EEEEEE"/>
</svg>
