<?xml version="1.0" standalone="no"?>
<!DOCTYPE svg PUBLIC "-//W3C//DTD SVG 20010904//EN"
 "http://www.w3.org/TR/2001/REC-SVG-20010904/DTD/svg10.dtd">
<svg version="1.0" xmlns="http://www.w3.org/2000/svg"
 width="1080.000000pt" height="1080.000000pt" viewBox="0 0 1080.000000 1080.000000"
 preserveAspectRatio="xMidYMid meet">
<metadata>
Created by potrace 1.14, written by Peter Selinger 2001-2017
</metadata>
<g transform="translate(0.000000,1080.000000) scale(0.100000,-0.100000)"
fill="#000000" stroke="none">
<path d="M0 5400 l0 -5400 5400 0 5400 0 0 5400 0 5400 -5400 0 -5400 0 0
-5400z m4859 3441 c492 -93 788 -347 915 -783 48 -165 58 -249 63 -510 3 -137
8 -248 12 -248 4 0 41 11 81 25 202 69 450 90 960 82 387 -7 502 -18 691 -66
220 -56 381 -143 514 -276 177 -176 269 -404 290 -718 l7 -107 -461 0 -461 0
0 33 c0 50 -29 138 -57 176 -14 18 -47 43 -72 55 -45 20 -57 21 -516 21 l-470
0 -57 -27 c-150 -70 -224 -197 -249 -426 -35 -321 48 -555 228 -645 87 -44
125 -47 667 -47 625 0 764 -12 981 -85 423 -142 666 -455 758 -975 20 -117 22
-156 22 -590 0 -436 -1 -472 -22 -586 -113 -621 -470 -954 -1098 -1024 -118
-13 -1402 -13 -1520 0 -270 30 -491 110 -663 240 -226 170 -363 413 -434 772
l-23 113 -2 1485 c-5 2805 -6 2937 -26 3005 -42 144 -106 226 -217 279 l-65
31 -655 0 -655 0 -57 -23 c-114 -46 -188 -139 -231 -289 l-22 -78 -3 -1757 -3
-1758 -449 0 -450 0 0 1743 c0 1132 4 1781 10 1852 66 686 433 1055 1123 1125
45 4 402 7 792 5 679 -2 715 -3 824 -24z"/>
<path d="M5847 4463 c-3 -81 -2 -362 2 -623 9 -517 10 -523 71 -646 38 -78
119 -154 198 -186 l57 -23 650 0 650 0 57 23 c84 34 161 108 203 196 58 121
68 209 62 576 -4 278 -7 324 -25 392 -47 173 -119 259 -262 315 -40 15 -109
18 -655 23 -659 7 -688 9 -885 67 -47 14 -92 27 -101 30 -14 4 -17 -14 -22
-144z"/>
</g>
</svg>
